<svg width="32" height="32" viewBox="0 0 32 32" fill="none" xmlns="http://www.w3.org/2000/svg">
<path d="M19.7143 24.375C18.6563 24.817 17.5045 25.0714 16.2857 25.0714C14.1563 25.0714 12.2143 24.308 10.6875 23.0625C10.6875 23.0625 10.808 23.1429 10.8884 23.2098C12.5759 19.5402 17.7857 17.7188 17.7857 17.7188C17.7991 17.7188 17.8259 17.7054 17.8393 17.7054C19.0714 20.9196 19.5804 23.5982 19.7143 24.375ZM17.2366 16.2455C17.1295 16.2857 17.0089 16.3125 16.8884 16.3527C16.8884 16.3527 12.1473 17.8795 9.75 22.1518C8.35714 20.5982 7.5 18.5357 7.5 16.2857C7.5 16.192 7.5 16.0982 7.51339 16.0045C7.66071 16.0045 12 16.1116 16.5268 14.7589C16.7813 15.2545 17.0223 15.75 17.2366 16.2455ZM15.8036 13.4063C11.5848 14.5179 7.91518 14.4777 7.6875 14.4777C8.26339 11.7589 10.0848 9.49554 12.5357 8.34375C12.6562 8.50447 14.2768 10.7009 15.8036 13.4063ZM24.9643 17.6786C24.5625 20.1295 23.1696 22.2455 21.2009 23.5714C21.1071 23.0491 20.6384 20.4643 19.4866 17.2902C22.3259 16.8482 24.7768 17.625 24.9643 17.6786ZM14.183 7.75447C14.1696 7.75447 14.1563 7.76786 14.1563 7.76786C14.1696 7.75447 14.1696 7.75447 14.183 7.75447ZM22.0848 9.69643C22.058 9.73661 20.8125 11.6384 17.5045 12.8705C16.0045 10.1116 14.3438 7.92857 14.2098 7.75447C14.8795 7.59375 15.5759 7.5 16.2857 7.5C18.5089 7.5 20.5446 8.33036 22.0848 9.69643ZM25.0714 16.192C24.9643 16.1786 21.9777 15.5223 18.9509 15.9107C18.8839 15.7634 18.8304 15.6027 18.7634 15.4554C18.5759 15.0268 18.375 14.5982 18.1741 14.183C21.6429 12.7634 23.0491 10.7277 23.0759 10.7009C24.308 12.2009 25.0446 14.1161 25.0714 16.192ZM26.5714 16.2857C26.5714 10.6071 21.9643 6 16.2857 6C10.6071 6 6 10.6071 6 16.2857C6 21.9643 10.6071 26.5714 16.2857 26.5714C21.9643 26.5714 26.5714 21.9643 26.5714 16.2857Z" fill="white"/>
</svg>
