<svg width="32" height="32" viewBox="0 0 32 32" fill="none" xmlns="http://www.w3.org/2000/svg">
<path d="M16.2857 6C10.6071 6 6 10.6071 6 16.2857C6 20.8259 8.94643 24.683 13.0312 26.0491C13.5536 26.1429 13.7411 25.8214 13.7411 25.5536C13.7411 25.2991 13.7277 24.4955 13.7277 23.6384C13.7277 23.6384 10.8616 24.2545 10.2589 22.4196C10.2589 22.4196 9.79018 21.2277 9.12054 20.9196C9.12054 20.9196 8.18304 20.2768 9.1875 20.2902C9.1875 20.2902 10.2054 20.3705 10.7679 21.3482C11.6652 22.9286 13.1652 22.4732 13.7545 22.2054C13.8482 21.5491 14.1161 21.0938 14.4107 20.8259C12.1205 20.5714 9.72321 19.6875 9.72321 15.75C9.72321 14.625 10.125 13.7143 10.7813 12.9911C10.6741 12.7232 10.3259 11.6786 10.8884 10.2589C11.7455 9.99107 13.7143 11.317 13.7143 11.317C14.5313 11.0893 15.4152 10.9688 16.2857 10.9688C17.1563 10.9688 18.0402 11.0893 18.8571 11.317C18.8571 11.317 20.8259 9.99107 21.683 10.2589C22.2455 11.6786 21.8973 12.7232 21.7902 12.9911C22.4464 13.7143 22.8482 14.625 22.8482 15.75C22.8482 19.7009 20.4375 20.5714 18.1473 20.8259C18.5223 21.1473 18.8438 21.7634 18.8438 22.7277C18.8438 24.1071 18.8304 25.2188 18.8304 25.5536C18.8304 25.8214 19.0179 26.1429 19.5402 26.0491C23.625 24.683 26.5714 20.8259 26.5714 16.2857C26.5714 10.6071 21.9643 6 16.2857 6ZM9.89732 20.7723C9.87054 20.8259 9.79018 20.8393 9.72321 20.7991C9.64286 20.7589 9.60268 20.692 9.62946 20.6384C9.65625 20.5982 9.72321 20.5848 9.80357 20.6116C9.88393 20.6518 9.92411 20.7188 9.89732 20.7723ZM10.3125 21.2277C10.2589 21.2813 10.1652 21.2545 10.0982 21.1875C10.0313 21.1071 10.0179 21.0134 10.0714 20.9732C10.125 20.9196 10.2188 20.9464 10.2857 21.0134C10.3527 21.0938 10.3661 21.1875 10.3125 21.2277ZM10.7143 21.8304C10.6607 21.8705 10.5536 21.8304 10.4866 21.7366C10.4196 21.6429 10.4196 21.5357 10.4866 21.4955C10.5536 21.442 10.6607 21.4821 10.7143 21.5759C10.7813 21.6696 10.7813 21.7768 10.7143 21.8304ZM11.2768 22.3929C11.2232 22.4598 11.1027 22.4464 11.0089 22.3527C10.9152 22.2723 10.8884 22.1518 10.9554 22.0982C11.0089 22.0313 11.1295 22.0446 11.2232 22.1384C11.3036 22.2188 11.3304 22.3393 11.2768 22.3929ZM12.0402 22.7277C12.0134 22.808 11.8929 22.8482 11.7857 22.808C11.6652 22.7813 11.5848 22.6875 11.6116 22.6071C11.6384 22.5268 11.7589 22.4866 11.8661 22.5134C11.9866 22.5536 12.067 22.6473 12.0402 22.7277ZM12.8839 22.7946C12.8839 22.875 12.7902 22.942 12.6696 22.942C12.5357 22.9554 12.442 22.8884 12.442 22.7946C12.442 22.7143 12.5357 22.6473 12.6562 22.6473C12.7768 22.6339 12.8839 22.7009 12.8839 22.7946ZM13.6607 22.6607C13.6741 22.7411 13.5937 22.8214 13.4732 22.8482C13.3527 22.875 13.2455 22.8214 13.2321 22.7411C13.2188 22.6473 13.2991 22.567 13.4196 22.5402C13.5402 22.5268 13.6473 22.5804 13.6607 22.6607Z" fill="white"/>
</svg>
