<svg width="32" height="32" viewBox="0 0 32 32" fill="none" xmlns="http://www.w3.org/2000/svg">
<path d="M10.6741 12.3884H6.25446V25.6607H10.6741V12.3884ZM10.9554 8.29018C10.942 6.99107 10.0045 6 8.49107 6C6.99107 6 6 6.99107 6 8.29018C6 9.5625 6.95089 10.5804 8.4375 10.5804H8.46429C10.0045 10.5804 10.9688 9.5625 10.9554 8.29018ZM26.5714 18.0536C26.5714 13.9821 24.4018 12.0804 21.4955 12.0804C19.1116 12.0804 18.067 13.4062 17.4911 14.317H17.5179V12.3884H13.1116C13.1116 12.3884 13.1652 13.6339 13.1116 25.6607H17.5179V18.2545C17.5179 17.8527 17.558 17.4643 17.6652 17.1696C17.9866 16.3795 18.7098 15.5625 19.9286 15.5625C21.5223 15.5625 22.1652 16.7812 22.1652 18.5625V25.6607H26.5714V18.0536Z" fill="white"/>
</svg>
