<svg width="32" height="32" viewBox="0 0 32 32" fill="none" xmlns="http://www.w3.org/2000/svg">
<path d="M28 13.0804C27.5982 13.5223 27.1429 13.9107 26.6607 14.2455C24.4241 15.7589 22.1741 17.2857 19.9911 18.8661C18.8661 19.6964 17.4732 20.7143 16.0134 20.7143H15.9866C14.5268 20.7143 13.1339 19.6964 12.0089 18.8661C9.82589 17.2723 7.57589 15.7589 5.35268 14.2455C4.85714 13.9107 4.40179 13.5223 4 13.0804V23.7143C4 24.8929 4.96429 25.8571 6.14286 25.8571H25.8571C27.0357 25.8571 28 24.8929 28 23.7143V13.0804ZM28 9.14286C28 7.96428 27.0223 7 25.8571 7H6.14286C4.70982 7 4 8.125 4 9.4375C4 10.6562 5.35268 12.1696 6.30357 12.8125C8.37946 14.2589 10.4821 15.7054 12.558 17.1652C13.4286 17.7679 14.9018 19 15.9866 19H16.0134C17.0982 19 18.5714 17.7679 19.442 17.1652C21.5179 15.7054 23.6205 14.2589 25.7098 12.8125C26.8884 11.9955 28 10.6429 28 9.14286Z" fill="white"/>
</svg>
