<?xml version="1.0" encoding="utf-8"?>
<!-- Generator: Adobe Illustrator 24.0.1, SVG Export Plug-In . SVG Version: 6.00 Build 0)  -->
<svg version="1.1" id="Layer_1" xmlns="http://www.w3.org/2000/svg" xmlns:xlink="http://www.w3.org/1999/xlink" x="0px" y="0px"
	 viewBox="0 0 1758 508" style="enable-background:new 0 0 1758 508;" xml:space="preserve">
<style type="text/css">
	.st0{clip-path:url(#SVGID_2_);}
	.st1{fill:#B2BF88;}
</style>
<g>
	<defs>
		<rect id="SVGID_1_" width="1758" height="508"/>
	</defs>
	<clipPath id="SVGID_2_">
		<use xlink:href="#SVGID_1_"  style="overflow:visible;"/>
	</clipPath>
	<g class="st0">
		<path class="st1" d="M533.6,130.2c-22.1-68.5-293.2,85.4-442.1,172.7c-35.3,20.7-67.5,40.7-65,63.8
			c6.4,58.1,347.4-94.9,425.7-103.5c78.3-8.6-137.6,190.9-17.2,204.2C555.5,480.8,839.8,276.7,882.6,306
			c42.9,29.3-108.7,93.2-62.6,170.8s691-53.8,857-194.7c166-140.8-48.1-171.9-391.6-88.4c-343.4,83.6-148-112.2-186.1-174.5
			C1061.2-43,555.8,198.7,533.6,130.2z"/>
	</g>
</g>
</svg>
