<?xml version="1.0" encoding="utf-8"?>
<!-- Generator: Adobe Illustrator 24.0.1, SVG Export Plug-In . SVG Version: 6.00 Build 0)  -->
<svg version="1.1" id="Layer_1" xmlns="http://www.w3.org/2000/svg" xmlns:xlink="http://www.w3.org/1999/xlink" x="0px" y="0px"
	 viewBox="0 0 375 296" style="enable-background:new 0 0 375 296;" xml:space="preserve">
<style type="text/css">
	.st0{clip-path:url(#SVGID_2_);}
	.st1{fill:#B2BF88;}
</style>
<g>
	<defs>
		<rect id="SVGID_1_" width="375" height="296"/>
	</defs>
	<clipPath id="SVGID_2_">
		<use xlink:href="#SVGID_1_"  style="overflow:visible;"/>
	</clipPath>
	<g class="st0">
		<path class="st1" d="M43,79c-9.9-42.4-93.2,17.5-144.4,66.6c-12.1,11.6-23.2,22.9-21.6,37.1c3.9,35.7,122.6-48.2,150.6-51.3
			S-50.8,236.6-7,248c43.8,11.5,174.5-97.6,190.8-78.5c16.3,19-36.6,53.8-17.8,102.5c18.8,48.6,247.5-13.6,303.5-94.9
			c55.9-81.3-22.1-106.2-143.6-64.8C204.4,153.7,320.5,67.1,305,28S52.9,121.4,43,79z"/>
	</g>
</g>
</svg>
