<svg width="2120" height="714" viewBox="0 0 2120 714" fill="none" xmlns="http://www.w3.org/2000/svg">
<path d="M1048.03 24.15C1109.89 -65.7788 307.62 171.976 129.923 245.258C74.7752 268 24.7252 306.375 57.9227 321.257C129.534 353.36 704.651 212.244 783.464 212.296C862.277 212.348 495.73 467.3 613.922 508.628C732.114 549.957 1115.25 356.829 1154.62 409.564C1193.99 462.299 1036.32 535.53 1073.57 663.89C1110.81 792.249 1724.79 641.288 1946.83 508.628C2217.41 346.975 2016.22 328.628 1665.66 399.44C1315.1 470.252 1481.71 378.001 1505.02 156.056C1515.86 52.9408 759.106 444.143 1048.03 24.15Z" fill="#B2BF88"/>
</svg>
