<?xml version="1.0" encoding="utf-8"?>
<!-- Generator: Adobe Illustrator 24.0.1, SVG Export Plug-In . SVG Version: 6.00 Build 0)  -->
<svg version="1.1" id="Layer_1" xmlns="http://www.w3.org/2000/svg" xmlns:xlink="http://www.w3.org/1999/xlink" x="0px" y="0px"
	 viewBox="0 0 1440 714" style="enable-background:new 0 0 1440 714;" xml:space="preserve">
<style type="text/css">
	.st0{clip-path:url(#SVGID_2_);}
	.st1{fill:#B2BF88;}
</style>
<g>
	<defs>
		<rect id="SVGID_1_" width="1440" height="714"/>
	</defs>
	<clipPath id="SVGID_2_">
		<use xlink:href="#SVGID_1_"  style="overflow:visible;"/>
	</clipPath>
	<g class="st0">
		<path class="st1" d="M592.3,24.2c61.9-89.9-760.4,111.2-918.1,221.1c-37.3,26-105.2,61.1-72,76c71.6,32.1,646.7-109,725.5-109
			c78.8,0.1-287.7,255-169.5,296.3c118.2,41.3,501.3-151.8,540.7-99.1c39.4,52.7-118.3,126-81.1,254.3
			c37.2,128.4,651.2-22.6,873.3-155.3c270.6-161.7,69.4-180-281.2-109.2c-350.6,70.8-184-21.4-160.6-243.4
			C1060.1,52.9,303.3,444.1,592.3,24.2z"/>
	</g>
</g>
</svg>
