<?xml version="1.0" encoding="utf-8"?>
<!-- Generator: Adobe Illustrator 23.1.1, SVG Export Plug-In . SVG Version: 6.00 Build 0)  -->
<svg version="1.1" xmlns="http://www.w3.org/2000/svg" xmlns:xlink="http://www.w3.org/1999/xlink" x="0px" y="0px"
	 viewBox="0 0 497.88 497.88" style="enable-background:new 0 0 497.88 497.88;" xml:space="preserve">
<style type="text/css">
	.st0{fill:#B2BF87;}
	.st1{fill:#435900;}
	.st2{fill:none;stroke:#435900;stroke-miterlimit:10;}
	.st3{fill:#FFFFFF;}
	.st4{fill:none;stroke:#262D3B;}
	.st5{fill:#AA55B1;}
	.st6{fill:#FEF9EB;}
	.st7{fill:none;stroke:#B2BF88;}
	.st8{fill:#262D3B;}
	.st9{fill:#ACE0D3;}
	.st10{fill:none;stroke:#262D3B;stroke-width:2;}
	.st11{fill:#B2BF88;}
	.st12{clip-path:url(#Path_68_4_);fill:#435900;}
	.st13{fill:#FEF9EB;stroke:#B2C085;}
	.st14{fill:none;stroke:#AA55B1;stroke-miterlimit:10;}
	.st15{fill:none;}
	.st16{clip-path:url(#SVGID_2_);}
	.st17{fill:#EFC371;}
	.st18{fill:none;stroke:#262D3B;stroke-width:8;}
	.st19{fill:none;stroke:#262D3B;stroke-width:4;}
	.st20{clip-path:url(#SVGID_4_);}
	.st21{fill:none;stroke:#FFFAEB;stroke-width:8;}
	.st22{fill:none;stroke:#FFFAEB;stroke-width:4;}
	.st23{clip-path:url(#SVGID_6_);}
	.st24{clip-path:url(#SVGID_8_);}
	.st25{fill:#9E95CE;}
	.st26{clip-path:url(#SVGID_10_);}
	.st27{clip-path:url(#SVGID_12_);}
	.st28{clip-path:url(#SVGID_14_);}
	.st29{fill:none;stroke:#000000;stroke-miterlimit:10;}
	.st30{fill:none;stroke:#000000;stroke-linecap:round;stroke-miterlimit:10;}
	.st31{fill:none;stroke:#000000;stroke-linecap:round;stroke-linejoin:round;stroke-miterlimit:10;}
	.st32{fill:#FFFFFF;stroke:#565577;stroke-width:1.1802;}
	.st33{display:none;}
	.st34{display:inline;fill:#FEF9EB;}
	.st35{fill:#FFEFC7;}
	.st36{fill:#565577;}
	.st37{fill:#F9DAAC;}
	.st38{fill:none;stroke:#C69D5C;stroke-width:2.793;}
	.st39{fill:none;stroke:#C69D5C;stroke-width:2.0763;}
	.st40{fill:none;stroke:#565577;stroke-width:3;}
	.st41{fill:none;stroke:#565577;stroke-width:2;}
	.st42{fill:none;stroke:#565577;stroke-width:2.1352;}
	.st43{fill:#FEF9EB;stroke:#EFC371;stroke-width:2;stroke-miterlimit:10;}
	.st44{fill:none;stroke:#C69D5C;stroke-width:3;}
	.st45{fill:#C69D5C;}
	.st46{fill:none;stroke:#C69D5C;stroke-width:2;stroke-miterlimit:10;}
	.st47{fill:none;stroke:#C69D5C;stroke-width:4;}
	.st48{fill:none;stroke:#C69D5C;stroke-width:2.9736;}
	.st49{fill:none;stroke:#518273;stroke-width:2;}
	.st50{fill:none;stroke:#518273;stroke-width:3;}
	.st51{fill:#80BFAD;}
	.st52{fill:#AF74B5;}
	.st53{fill:none;stroke:#673C6D;stroke-width:2;}
	.st54{fill:none;stroke:#673C6D;stroke-width:3;}
	.st55{fill:#673C6D;}
	.st56{fill:#915B99;}
	.st57{fill:#D9E2B5;}
	.st58{fill:#518273;}
	.st59{fill:none;stroke:#B2BF87;stroke-miterlimit:10;}
	.st60{fill:none;stroke:#D9E2B5;stroke-width:2;stroke-miterlimit:10;}
	.st61{fill:none;stroke:#B2BF87;stroke-width:2;stroke-miterlimit:10;}
	.st62{fill:none;stroke:#B2BF87;stroke-width:3;stroke-miterlimit:10;}
	.st63{fill:none;stroke:#AF74B5;stroke-width:2;stroke-miterlimit:10;}
	.st64{fill:none;stroke:#ACE0D3;stroke-width:2;stroke-miterlimit:10;}
	.st65{fill:#EFC371;stroke:#C69D5C;stroke-width:2;stroke-miterlimit:10;}
	.st66{fill:none;stroke:#000000;stroke-width:2;stroke-linecap:round;stroke-linejoin:round;stroke-miterlimit:10;}
</style>
<g id="Layer_1">
</g>
<g id="Layer_2" class="st33">
	<rect x="-1.06" y="-1.66" class="st34" width="500" height="500"/>
</g>
<g id="Layer_3">
	<circle class="st17" cx="253.64" cy="139.76" r="56.14"/>
	<path class="st37" d="M251.56,205.12l7.63,44.43c0.22,1.31,2.12,1.26,2.27-0.06l5.15-44.43c0.08-0.68-0.45-1.28-1.14-1.28h-12.78
		C251.98,203.78,251.44,204.42,251.56,205.12z"/>
	<path id="Path_1_7_" class="st57" d="M79.6,217.26c10.84-5.47,69.27,32.9,83.73,61.55c14.46,28.64,0.09,46.86-23.08,58.56l0,0
		c-23.17,11.7-48.97,7.29-63.44-21.35c0,0,0-0.01,0-0.01C62.34,287.36,68.76,222.73,79.6,217.26z"/>
	<path id="Path_1_5_" class="st0" d="M252.63,206.59c14.74,0,56.74,62.91,56.74,94.41c0,31.5-25.53,46.79-57.03,46.79l0,0
		c-31.5,0.01-57.04-15.28-57.04-46.78c0,0,0-0.01,0-0.01C195.29,269.5,237.9,206.59,252.63,206.59z"/>
	<path id="Path_4_13_" class="st40" d="M241.55,270.34c0,0,2.66,9.03,12.25,9.03c9.68,0,11.94-9.03,11.94-9.03"/>
	<path id="Path_5_3_" class="st41" d="M205.7,264.99c10.45-10,37.39-42.75,70.82-42.75"/>
	<path class="st41" d="M223.95,247.36c0,0,19.91-19.66,56.25-16.26"/>
	<path id="Path_2_26_" class="st40" d="M237.69,256.5c0,0-0.11,7.46,3.87,7.46c3.98,0,3.85-7.46,3.85-7.46"/>
	<g>
		<path class="st0" d="M127.79,336.1l10.19-6.02l-5.2-11.8c-15.53-35.27-52.82-49.28-83.28-31.3L39.31,293l5.2,11.8
			C60.04,340.07,97.33,354.08,127.79,336.1z"/>
		<path class="st60" d="M131.72,328.64c-26.41-29.81-50.86-37.42-83.16-32.9"/>
	</g>
	<path id="Path_1_8_" class="st57" d="M415.44,211.86c12.39,4.04,30.07,70.47,20.59,99.51c-9.47,29.03-33.83,30.88-60.32,22.24l0,0
		c-26.49-8.64-43.36-29.73-33.89-58.76c0,0,0-0.01,0-0.01C351.31,245.8,403.06,207.82,415.44,211.86z"/>
	<g>
		<path class="st0" d="M378.04,344.01l-10.08-5.14l12.5-24.51c15.53-30.46,52.82-42.56,83.28-27.03l10.08,5.14l-12.5,24.51
			C445.79,347.44,408.5,359.54,378.04,344.01z"/>
		<path class="st60" d="M381.53,323.32c27.95-23.99,50.86-32.31,83.16-28.41"/>
	</g>
	<path id="Path_2_25_" class="st40" d="M260.14,256.5c0,0-0.11,7.46,3.87,7.46s3.85-7.46,3.85-7.46"/>
	<g>
		<path class="st37" d="M448.2,345.16c-49.25,0-49.25-30.85-98.5-30.85c-49.25,0-49.25,30.85-98.5,30.85
			c-49.25,0-49.25-30.85-98.5-30.85c-47.64,0-49.22,28.85-93.86,30.74c-1.34,0.06-2,1.67-1.06,2.63
			c49.77,50.78,119.13,82.29,195.85,82.29c76.66,0,145.98-31.46,195.74-82.17c0.96-0.98,0.25-2.63-1.13-2.63
			C448.23,345.16,448.21,345.16,448.2,345.16z"/>
	</g>
	<circle class="st57" cx="228.16" cy="268.09" r="7.16"/>
	<circle class="st57" cx="280.19" cy="268.09" r="7.16"/>
	<g>
		<path class="st1" d="M219.23,348.89l27.37-4.36l-4.36-27.37c-5.38-33.77-37.12-56.78-70.88-51.4l-27.37,4.36l4.36,27.37
			C153.73,331.26,185.46,354.28,219.23,348.89z"/>
		<path class="st61" d="M239.79,340.73c-11.1-17.44-46.94-56.73-85.96-64.36"/>
	</g>
	<g>
		<path class="st1" d="M286.43,348.95l-27.37-4.36l4.36-27.37c5.38-33.77,37.12-56.78,70.88-51.4l27.37,4.36l-4.36,27.37
			C351.93,331.32,320.2,354.33,286.43,348.95z"/>
		<path class="st61" d="M266.39,340.73c11.1-17.44,46.94-56.73,85.96-64.36"/>
	</g>
	<path id="Path_2_28_" class="st62" d="M110.69,274.17c0,0-1.52-6.9,2.17-7.66c3.69-0.76,5,6.19,5,6.19"/>
	<path id="Path_4_14_" class="st62" d="M121.89,277.22c0,0,3.07,4.83,7.28,3.97c4.25-0.87,4.2-6.14,4.2-6.14"/>
	<path id="Path_2_27_" class="st62" d="M135.08,269.17c0,0-1.52-6.9,2.17-7.66c3.69-0.76,5,6.19,5,6.19"/>
	<path id="Path_2_30_" class="st62" d="M392.39,268.09c0,0,0.87-5.01-2.87-5.42c-3.75-0.41-4.4,4.63-4.4,4.63"/>
	<path id="Path_4_15_" class="st62" d="M386.09,271.67c0,0-4.66,9.1-12.29,8.27c-7.7-0.84-8.5-10.23-8.5-10.23"/>
	<path id="Path_2_29_" class="st62" d="M367.64,265.38c0,0,0.87-5.01-2.87-5.42c-3.75-0.41-4.4,4.63-4.4,4.63"/>
	<path class="st17" d="M189.94,181.99l-14.61,26.25c-0.47,1.39,1.3,2.42,2.27,1.33l26.24-19.91c0.58-0.65,0.4-1.66-0.36-2.07
		l-11.63-6.34C191.12,180.85,190.21,181.2,189.94,181.99z"/>
	<path class="st17" d="M322.11,179.25l17.77,26.23c0.71,1.72-1.48,3.16-2.77,1.81l-26.47-16.48c-0.61-0.63-0.63-1.63-0.04-2.29
		l8.7-9.75C320.13,177.85,321.64,178.1,322.11,179.25z"/>
</g>
</svg>
