<?xml version="1.0" encoding="utf-8"?>
<!-- Generator: Adobe Illustrator 23.1.1, SVG Export Plug-In . SVG Version: 6.00 Build 0)  -->
<svg version="1.1" id="Layer_1" xmlns="http://www.w3.org/2000/svg" xmlns:xlink="http://www.w3.org/1999/xlink" x="0px" y="0px"
	 viewBox="0 0 537 800" style="enable-background:new 0 0 537 800;" xml:space="preserve">
<style type="text/css">
	.st0{clip-path:url(#SVGID_2_);}
	.st1{fill:#EFC371;}
	.st2{fill:#B2BF88;}
	.st3{fill:none;stroke:#262D3B;stroke-width:8;}
	.st4{fill:none;stroke:#262D3B;stroke-width:6;}
	.st5{enable-background:new    ;}
	.st6{fill:#262D3B;}
</style>
<g>
	<defs>
		<rect id="SVGID_1_" width="537" height="800"/>
	</defs>
	<clipPath id="SVGID_2_">
		<use xlink:href="#SVGID_1_"  style="overflow:visible;"/>
	</clipPath>
	<g id="logo_3" class="st0">
		<circle id="Ellipse_8" class="st1" cx="330" cy="252" r="144"/>
		<g id="Group_7" transform="translate(-1105 -2393)">
			<path id="Path_1" class="st2" d="M1257.88,2541.62c40.43,0,224.12,152.44,224.12,238.88c0,86.43-70.07,156.5-156.5,156.5
				s-156.5-70.07-156.5-156.5C1169,2694.07,1217.45,2541.62,1257.88,2541.62z"/>
			<path id="Path_2" class="st3" d="M1311.07,2803.5c0,0-9.02,24.69,4.16,24.69s17.07-24.69,17.07-24.69"/>
			<path id="Path_3" class="st3" d="M1405.07,2803.5c0,0-9.02,24.69,4.16,24.69s17.07-24.69,17.07-24.69"/>
			<path id="Path_4" class="st3" d="M1333.68,2848.78c0,0-19.15,41.5,15.74,41.5s36.59-41.5,36.59-41.5"/>
			<path id="Path_5" class="st4" d="M1201.76,2615.79c28.68,27.43,127.43,116.14,249.14,84.95"/>
			<path id="Path_15" class="st4" d="M1380.73,2707.27c0,0-109.44-55.88-109.44-161.89"/>
		</g>
		<g class="st5">
			<path class="st6" d="M163,642.3c0,14.8-7.4,25.6-21.1,25.6c-5.9,0-11.5-2-14.9-6.4v5.5h-10.3v-69.7H127v25.9
				c3.1-4,8.8-6.5,14.9-6.5C154.5,616.7,163,626.4,163,642.3z M152.7,642.4c0-10.1-4.5-16.4-13.2-16.4c-9,0-13.5,7-13.5,16.4
				c0,9.2,4.3,16.1,13.6,16.1C148.4,658.5,152.7,652.2,152.7,642.4z"/>
			<path class="st6" d="M218.1,617.7V667h-10.3v-6.2c-3.5,4.9-9.2,7.1-15.2,7.1c-12,0-17.1-8.5-17.1-19.6v-30.6h10.3v28
				c0,5,0.5,13.2,9.7,13.2c10.7,0,12.3-11,12.3-21.2v-20H218.1z"/>
			<path class="st6" d="M278.1,597.3V667h-10.3v-5.5c-3.4,4.4-9,6.4-14.9,6.4c-13.7,0-21.1-10.8-21.1-25.6
				c0-15.9,8.5-25.6,21.1-25.6c6.1,0,11.8,2.5,14.9,6.5v-25.9H278.1z M268.8,642.4c0-9.4-4.5-16.4-13.5-16.4
				c-8.7,0-13.2,6.3-13.2,16.4c0,9.8,4.3,16.1,13.1,16.1C264.5,658.5,268.8,651.6,268.8,642.4z"/>
			<path class="st6" d="M338.5,597.3V667h-10.3v-5.5c-3.4,4.4-9,6.4-14.9,6.4c-13.7,0-21.1-10.8-21.1-25.6
				c0-15.9,8.5-25.6,21.1-25.6c6.1,0,11.8,2.5,14.9,6.5v-25.9H338.5z M329.2,642.4c0-9.4-4.5-16.4-13.5-16.4
				c-8.7,0-13.2,6.3-13.2,16.4c0,9.8,4.3,16.1,13.1,16.1C324.9,658.5,329.2,651.6,329.2,642.4z"/>
			<path class="st6" d="M356,597.3h11v10.8h-11V597.3z M356.4,617.7h10.3V667h-10.3V617.7z"/>
			<path class="st6" d="M425.3,645.6h-34.6c0.4,7.9,5.1,13,13.5,13c4.8,0,8.9-1.4,12.6-5.6l7.2,6.2c-5.6,6.1-11.8,8.7-19.9,8.7
				c-16.3,0-23.7-11.8-23.7-25.3c0-13.2,7.2-25.8,22.9-25.8c15.3,0,22.3,11.4,22.3,24.3C425.6,642.6,425.5,644.1,425.3,645.6z
				 M415.7,637.7v-0.6c-0.2-7-5.1-11.7-12.4-11.7c-8.1,0-12.1,6.1-12.6,12.3H415.7z"/>
		</g>
	</g>
</g>
</svg>
