<?xml version="1.0" encoding="utf-8"?>
<!-- Generator: Adobe Illustrator 24.0.1, SVG Export Plug-In . SVG Version: 6.00 Build 0)  -->
<svg version="1.1" id="Layer_1" xmlns="http://www.w3.org/2000/svg" xmlns:xlink="http://www.w3.org/1999/xlink" x="0px" y="0px"
	 viewBox="0 0 375 353" style="enable-background:new 0 0 375 353;" xml:space="preserve">
<style type="text/css">
	.st0{clip-path:url(#SVGID_2_);}
	.st1{fill:#B2BF88;}
</style>
<g>
	<defs>
		<rect id="SVGID_1_" width="375" height="353"/>
	</defs>
	<clipPath id="SVGID_2_">
		<use xlink:href="#SVGID_1_"  style="overflow:visible;"/>
	</clipPath>
	<g class="st0">
		<path class="st1" d="M196.9,11.5c22.7-53-449.6,55.1-542.9,109.6c-22.1,12.9-62.2,30.3-42.6,37.7c42.3,15.9,382.4-54,429-54
			c46.6,0-69.9,54,0,74.5s196.2-2.8,219.5,23.4c23.3,26.2-69.9,62.5-47.9,126.1s385.1-11.2,516.4-77c160-80.2,41-89.3-166.3-54.2
			c-207.3,35.1-108.8-10.6-95-120.7C473.5,25.9,121,188.7,196.9,11.5z"/>
	</g>
</g>
</svg>
