<?xml version="1.0" encoding="utf-8"?>
<!-- Generator: Adobe Illustrator 23.1.1, SVG Export Plug-In . SVG Version: 6.00 Build 0)  -->
<svg version="1.1" id="Layer_1" xmlns="http://www.w3.org/2000/svg" xmlns:xlink="http://www.w3.org/1999/xlink" x="0px" y="0px"
	 viewBox="0 0 180 248" style="enable-background:new 0 0 180 248;" xml:space="preserve">
<style type="text/css">
	.st0{clip-path:url(#SVGID_2_);}
	.st1{enable-background:new    ;}
	.st2{fill:#293040;}
	.st3{fill:#262D3B;}
	.st4{fill:#4D5661;}
</style>
<g>
	<defs>
		<rect id="SVGID_1_" width="180" height="248"/>
	</defs>
	<clipPath id="SVGID_2_">
		<use xlink:href="#SVGID_1_"  style="overflow:visible;"/>
	</clipPath>
	<g id="Artboard_10" class="st0">
		<g id="Group_603" transform="translate(-56 4)">
			<g class="st1">
				<path class="st2" d="M109.22,25.27h2.57v6.96h7.78v-6.96h2.57V42h-2.57v-7.39h-7.78V42h-2.57V25.27z"/>
				<path class="st2" d="M136.05,36.86h-8.3c0.1,1.9,1.22,3.12,3.24,3.12c1.15,0,2.14-0.34,3.02-1.34l1.73,1.49
					c-1.34,1.46-2.83,2.09-4.78,2.09c-3.91,0-5.69-2.83-5.69-6.07c0-3.17,1.73-6.19,5.5-6.19c3.67,0,5.35,2.74,5.35,5.83
					C136.12,36.14,136.1,36.5,136.05,36.86z M133.75,34.97v-0.14c-0.05-1.68-1.22-2.81-2.98-2.81c-1.94,0-2.9,1.46-3.02,2.95H133.75
					z"/>
				<path class="st2" d="M148.17,34.56V42h-2.26l-0.19-1.68c-0.77,1.2-2.14,1.9-3.82,1.9c-2.52,0-4.2-1.51-4.2-3.77
					c0-1.34,0.58-2.35,1.63-2.88c0.82-0.41,1.92-0.6,3.6-0.6h2.76v-0.41c0-1.54-0.94-2.45-2.5-2.45c-1.3,0-2.45,0.62-3.34,1.85
					l-1.8-1.51c1.37-1.68,3.05-2.5,5.16-2.5C146.3,29.95,148.17,31.68,148.17,34.56z M145.7,36.91v-0.05h-2.47
					c-1.37,0-2.06,0.12-2.52,0.48c-0.36,0.24-0.53,0.65-0.53,1.15c0,1.01,0.84,1.63,2.18,1.63C144.28,40.13,145.7,38.78,145.7,36.91
					z"/>
				<path class="st2" d="M161.71,25.27V42h-2.47v-1.32c-0.82,1.06-2.16,1.54-3.58,1.54c-3.29,0-5.06-2.59-5.06-6.14
					c0-3.82,2.04-6.14,5.06-6.14c1.46,0,2.83,0.6,3.58,1.56v-6.22H161.71z M159.48,36.1c0-2.26-1.08-3.94-3.24-3.94
					c-2.09,0-3.17,1.51-3.17,3.94c0,2.35,1.03,3.86,3.14,3.86C158.44,39.96,159.48,38.3,159.48,36.1z"/>
				<path class="st2" d="M165.33,25.27h2.64v2.59h-2.64V25.27z M165.43,30.17h2.47V42h-2.47V30.17z"/>
				<path class="st2" d="M181.82,34.49V42h-2.47v-6.89c0-1.39-0.26-3-2.3-3c-2.54,0-2.98,2.45-2.98,4.97V42h-2.47V30.17h2.47v1.46
					c0.82-1.13,2.16-1.68,3.7-1.68C180.38,29.95,181.82,31.58,181.82,34.49z"/>
				<path class="st2" d="M195.02,43.68c0,2.4-2.21,3.43-5.33,3.43c-3.46,0-5.45-1.3-5.45-3.7c0-0.29,0.02-0.41,0.05-0.53l1.8-1.25
					c-0.89-0.46-1.49-1.18-1.49-2.4c0-1.01,0.41-1.75,1.18-2.33c-0.62-0.74-0.98-1.68-0.98-2.71c0-2.5,2.11-4.25,4.73-4.25
					c1.06,0,2.04,0.29,2.83,0.82l1.75-1.51l1.3,1.58l-1.68,1.37c0.36,0.62,0.55,1.34,0.55,2.14c0,2.57-2.11,4.22-4.68,4.22
					c-0.86,0-1.63-0.19-2.33-0.5c-0.31,0.19-0.48,0.46-0.48,0.82C186.79,41.35,195.02,39.12,195.02,43.68z M192.55,43.9
					c0-1.32-2.45-1.25-4.61-1.68l-1.22,1.18c-0.02,0.1-0.02,0.17-0.02,0.22c0,1.22,1.54,1.61,3.1,1.61
					C191.3,45.22,192.55,44.83,192.55,43.9z M187.24,34.27c0,1.27,0.82,2.26,2.3,2.26s2.26-0.96,2.26-2.26
					c0-1.37-0.86-2.26-2.23-2.26C188.18,32.02,187.24,32.93,187.24,34.27z"/>
			</g>
			<g class="st1">
				<path class="st2" d="M108.55,93.59h1.71v4.64h5.19v-4.64h1.71v11.16h-1.71v-4.93h-5.19v4.93h-1.71V93.59z"/>
				<path class="st2" d="M126.44,101.32h-5.54c0.06,1.26,0.82,2.08,2.16,2.08c0.77,0,1.42-0.22,2.02-0.9l1.15,0.99
					c-0.9,0.98-1.89,1.39-3.19,1.39c-2.61,0-3.79-1.89-3.79-4.05c0-2.11,1.15-4.13,3.67-4.13c2.45,0,3.57,1.82,3.57,3.89
					C126.49,100.84,126.47,101.08,126.44,101.32z M124.91,100.06v-0.1c-0.03-1.12-0.82-1.87-1.98-1.87c-1.3,0-1.94,0.98-2.02,1.97
					H124.91z"/>
				<path class="st2" d="M134.52,99.78v4.96h-1.5l-0.13-1.12c-0.51,0.8-1.42,1.26-2.54,1.26c-1.68,0-2.8-1.01-2.8-2.51
					c0-0.9,0.38-1.57,1.09-1.92c0.54-0.27,1.28-0.4,2.4-0.4h1.84v-0.27c0-1.02-0.62-1.63-1.66-1.63c-0.86,0-1.63,0.42-2.22,1.23
					l-1.2-1.01c0.91-1.12,2.03-1.67,3.44-1.67C133.27,96.71,134.52,97.86,134.52,99.78z M132.87,101.35v-0.03h-1.65
					c-0.91,0-1.38,0.08-1.68,0.32c-0.24,0.16-0.35,0.43-0.35,0.77c0,0.67,0.56,1.09,1.46,1.09
					C131.93,103.5,132.87,102.6,132.87,101.35z"/>
				<path class="st2" d="M143.55,93.59v11.16h-1.65v-0.88c-0.54,0.7-1.44,1.02-2.39,1.02c-2.19,0-3.38-1.73-3.38-4.1
					c0-2.55,1.36-4.1,3.38-4.1c0.98,0,1.89,0.4,2.39,1.04v-4.15H143.55z M142.06,100.81c0-1.5-0.72-2.62-2.16-2.62
					c-1.39,0-2.11,1.01-2.11,2.62c0,1.57,0.69,2.58,2.1,2.58C141.37,103.39,142.06,102.28,142.06,100.81z"/>
				<path class="st2" d="M145.96,93.59h1.76v1.73h-1.76V93.59z M146.02,96.85h1.65v7.89h-1.65V96.85z"/>
				<path class="st2" d="M156.96,99.74v5.01h-1.65v-4.59c0-0.93-0.18-2-1.54-2c-1.7,0-1.98,1.63-1.98,3.31v3.28h-1.65v-7.89h1.65
					v0.98c0.54-0.75,1.44-1.12,2.46-1.12C155.99,96.71,156.96,97.8,156.96,99.74z"/>
				<path class="st2" d="M165.75,105.87c0,1.6-1.47,2.29-3.55,2.29c-2.3,0-3.63-0.86-3.63-2.46c0-0.19,0.02-0.27,0.03-0.35l1.2-0.83
					c-0.59-0.3-0.99-0.78-0.99-1.6c0-0.67,0.27-1.17,0.78-1.55c-0.42-0.5-0.66-1.12-0.66-1.81c0-1.67,1.41-2.83,3.15-2.83
					c0.7,0,1.36,0.19,1.89,0.54l1.17-1.01l0.86,1.06l-1.12,0.91c0.24,0.42,0.37,0.9,0.37,1.42c0,1.71-1.41,2.82-3.12,2.82
					c-0.58,0-1.09-0.13-1.55-0.34c-0.21,0.13-0.32,0.3-0.32,0.54C160.26,104.31,165.75,102.83,165.75,105.87z M164.11,106.01
					c0-0.88-1.63-0.83-3.07-1.12l-0.82,0.78c-0.02,0.06-0.02,0.11-0.02,0.14c0,0.82,1.02,1.07,2.07,1.07
					C163.27,106.89,164.11,106.63,164.11,106.01z M160.57,99.59c0,0.85,0.54,1.5,1.54,1.5s1.5-0.64,1.5-1.5
					c0-0.91-0.58-1.5-1.49-1.5C161.19,98.09,160.57,98.7,160.57,99.59z"/>
				<path class="st2" d="M170.79,101.29l1.63-0.1c0,1.36,1.04,2.13,2.48,2.13c1.28,0,2.37-0.64,2.37-1.98
					c0-1.67-1.63-1.78-2.91-1.78v-1.33c1.57,0,2.32-0.58,2.32-1.62c0-1.09-0.8-1.6-1.79-1.6c-1.15,0-1.92,0.66-1.94,1.78l-1.62-0.11
					c0-2.03,1.58-3.23,3.52-3.23c1.82,0,3.47,1.09,3.47,2.98c0,1.02-0.51,1.87-1.42,2.3c1.3,0.35,2.02,1.42,2.02,2.77
					c0,2.21-1.87,3.39-4.05,3.39C172.65,104.89,170.79,103.67,170.79,101.29z"/>
			</g>
			<g class="st1">
				<path class="st3" d="M108.94,62.24h2.14v5.8h6.48v-5.8h2.14v13.94h-2.14v-6.16h-6.48v6.16h-2.14V62.24z"/>
				<path class="st3" d="M131.3,71.9h-6.92c0.08,1.58,1.02,2.6,2.7,2.6c0.96,0,1.78-0.28,2.52-1.12l1.44,1.24
					c-1.12,1.22-2.36,1.74-3.98,1.74c-3.26,0-4.74-2.36-4.74-5.06c0-2.64,1.44-5.16,4.58-5.16c3.06,0,4.46,2.28,4.46,4.86
					C131.36,71.3,131.34,71.6,131.3,71.9z M129.38,70.32V70.2c-0.04-1.4-1.02-2.34-2.48-2.34c-1.62,0-2.42,1.22-2.52,2.46H129.38z"
					/>
				<path class="st3" d="M141.4,69.98v6.2h-1.88l-0.16-1.4c-0.64,1-1.78,1.58-3.18,1.58c-2.1,0-3.5-1.26-3.5-3.14
					c0-1.12,0.48-1.96,1.36-2.4c0.68-0.34,1.6-0.5,3-0.5h2.3v-0.34c0-1.28-0.78-2.04-2.08-2.04c-1.08,0-2.04,0.52-2.78,1.54
					l-1.5-1.26c1.14-1.4,2.54-2.08,4.3-2.08C139.84,66.14,141.4,67.58,141.4,69.98z M139.34,71.94V71.9h-2.06
					c-1.14,0-1.72,0.1-2.1,0.4c-0.3,0.2-0.44,0.54-0.44,0.96c0,0.84,0.7,1.36,1.82,1.36C138.16,74.62,139.34,73.5,139.34,71.94z"/>
				<path class="st3" d="M152.68,62.24v13.94h-2.06v-1.1c-0.68,0.88-1.8,1.28-2.98,1.28c-2.74,0-4.22-2.16-4.22-5.12
					c0-3.18,1.7-5.12,4.22-5.12c1.22,0,2.36,0.5,2.98,1.3v-5.18H152.68z M150.82,71.26c0-1.88-0.9-3.28-2.7-3.28
					c-1.74,0-2.64,1.26-2.64,3.28c0,1.96,0.86,3.22,2.62,3.22C149.96,74.48,150.82,73.1,150.82,71.26z"/>
				<path class="st3" d="M155.7,62.24h2.2v2.16h-2.2V62.24z M155.78,66.32h2.06v9.86h-2.06V66.32z"/>
				<path class="st3" d="M169.44,69.92v6.26h-2.06v-5.74c0-1.16-0.22-2.5-1.92-2.5c-2.12,0-2.48,2.04-2.48,4.14v4.1h-2.06v-9.86
					h2.06v1.22c0.68-0.94,1.8-1.4,3.08-1.4C168.24,66.14,169.44,67.5,169.44,69.92z"/>
				<path class="st3" d="M180.44,77.58c0,2-1.84,2.86-4.44,2.86c-2.88,0-4.54-1.08-4.54-3.08c0-0.24,0.02-0.34,0.04-0.44l1.5-1.04
					c-0.74-0.38-1.24-0.98-1.24-2c0-0.84,0.34-1.46,0.98-1.94c-0.52-0.62-0.82-1.4-0.82-2.26c0-2.08,1.76-3.54,3.94-3.54
					c0.88,0,1.7,0.24,2.36,0.68l1.46-1.26l1.08,1.32l-1.4,1.14c0.3,0.52,0.46,1.12,0.46,1.78c0,2.14-1.76,3.52-3.9,3.52
					c-0.72,0-1.36-0.16-1.94-0.42c-0.26,0.16-0.4,0.38-0.4,0.68C173.58,75.64,180.44,73.78,180.44,77.58z M178.38,77.76
					c0-1.1-2.04-1.04-3.84-1.4l-1.02,0.98c-0.02,0.08-0.02,0.14-0.02,0.18c0,1.02,1.28,1.34,2.58,1.34
					C177.34,78.86,178.38,78.54,178.38,77.76z M173.96,69.74c0,1.06,0.68,1.88,1.92,1.88s1.88-0.8,1.88-1.88
					c0-1.14-0.72-1.88-1.86-1.88C174.74,67.86,173.96,68.62,173.96,69.74z"/>
				<path class="st3" d="M196.8,74.24v1.94h-9.72v-1.74c2.72-1.68,7.06-4.64,7.06-8.06c0-1.36-0.72-2.32-2.24-2.32
					c-1.92,0-2.62,1.52-2.66,3.14l-2.02-0.16c0-2.6,1.64-4.96,4.68-4.96c2.52,0,4.3,1.62,4.3,4.2c0,3.3-2.86,6.26-5.6,7.96H196.8z"
					/>
			</g>
			<g class="st1">
				<path class="st2" d="M108.75,183.63h1.23v8.57h4.4v1.18h-5.63V183.63z"/>
				<path class="st2" d="M122.61,190.8h-4.69l-0.99,2.58h-1.23l3.75-9.74h1.71l3.75,9.74h-1.3L122.61,190.8z M122.2,189.75
					l-1.93-5.04l-1.95,5.04H122.2z"/>
				<path class="st2" d="M134.06,190.65c0,0.94-0.3,1.63-0.9,2.07c-0.6,0.44-1.44,0.66-2.52,0.66h-3.42v-9.74h3.51
					c0.95,0,1.69,0.21,2.21,0.63c0.52,0.42,0.78,1.06,0.78,1.92c0,0.98-0.36,1.69-1.08,2.13
					C133.59,188.71,134.06,189.49,134.06,190.65z M128.46,184.81v3.01h2.13c0.64,0,1.11-0.12,1.39-0.35s0.43-0.64,0.43-1.23
					c0-0.54-0.14-0.92-0.43-1.12s-0.75-0.31-1.39-0.31H128.46z M132.24,191.86c0.33-0.22,0.49-0.65,0.49-1.27
					c0-0.62-0.17-1.05-0.5-1.27c-0.33-0.22-0.87-0.34-1.62-0.34h-2.16v3.22h2.18C131.38,192.2,131.91,192.09,132.24,191.86z"/>
				<path class="st2" d="M138.26,184.81v3.08h4.27v1.12h-4.27v3.19h4.58v1.18h-5.81v-9.74h5.81v1.18H138.26z"/>
				<path class="st2" d="M145.99,183.63h1.23v8.57h4.4v1.18h-5.63V183.63z"/>
			</g>
			<g class="st1">
				<path class="st2" d="M114.36,214.66c0,0.81-0.26,1.4-0.77,1.78c-0.51,0.38-1.23,0.56-2.16,0.56h-2.93v-8.35h3.01
					c0.82,0,1.45,0.18,1.9,0.54c0.45,0.36,0.67,0.91,0.67,1.64c0,0.84-0.31,1.45-0.92,1.82C113.96,213,114.36,213.67,114.36,214.66z
					 M109.56,209.66v2.58h1.82c0.55,0,0.95-0.1,1.19-0.3c0.24-0.2,0.37-0.55,0.37-1.06c0-0.46-0.12-0.78-0.37-0.96
					c-0.24-0.18-0.64-0.26-1.19-0.26H109.56z M112.8,215.7c0.28-0.19,0.42-0.56,0.42-1.09s-0.14-0.9-0.43-1.09
					c-0.28-0.19-0.75-0.29-1.39-0.29h-1.85v2.76h1.87C112.06,215.99,112.52,215.9,112.8,215.7z"/>
				<path class="st2" d="M117.73,216.18c-0.56-0.64-0.83-1.52-0.83-2.63v-4.9h1.06v4.86c0,0.82,0.18,1.46,0.55,1.94
					c0.36,0.48,0.89,0.71,1.58,0.71c0.69,0,1.21-0.24,1.58-0.71c0.36-0.48,0.55-1.12,0.55-1.94v-4.86h1.06v4.9
					c0,1.11-0.28,1.99-0.83,2.63c-0.56,0.64-1.34,0.97-2.35,0.97C119.07,217.14,118.29,216.82,117.73,216.18z"/>
				<path class="st2" d="M128.07,209.7h-2.52v-1.06h6.1v1.06h-2.52v7.3h-1.06V209.7z"/>
				<path class="st2" d="M135.75,209.7h-2.52v-1.06h6.1v1.06h-2.52v7.3h-1.06V209.7z"/>
				<path class="st2" d="M142.61,216.6c-0.57-0.36-1.01-0.86-1.31-1.51c-0.3-0.65-0.45-1.4-0.45-2.27s0.15-1.62,0.45-2.27
					c0.3-0.65,0.74-1.15,1.31-1.51c0.57-0.36,1.26-0.54,2.07-0.54s1.5,0.18,2.07,0.54c0.57,0.36,1.01,0.86,1.31,1.51
					c0.3,0.65,0.45,1.4,0.45,2.27s-0.15,1.62-0.45,2.27c-0.3,0.65-0.74,1.15-1.31,1.51c-0.57,0.36-1.26,0.54-2.07,0.54
					S143.18,216.96,142.61,216.6z M146.7,215.28c0.45-0.6,0.67-1.42,0.67-2.45s-0.22-1.85-0.67-2.45s-1.12-0.91-2.02-0.91
					s-1.57,0.3-2.02,0.91s-0.67,1.42-0.67,2.45s0.22,1.85,0.67,2.45c0.45,0.6,1.12,0.91,2.02,0.91S146.25,215.88,146.7,215.28z"/>
				<path class="st2" d="M157.82,208.65V217h-1.06l-4.49-6.44V217h-1.06v-8.35h1.06l4.49,6.44v-6.44H157.82z"/>
			</g>
			<g class="st1">
				<path class="st2" d="M108.5,230.65h2.71c2.08,0,3.12,0.91,3.12,2.74c0,0.92-0.26,1.62-0.77,2.11s-1.27,0.73-2.26,0.73h-1.74V239
					h-1.06V230.65z M111.26,235.23c0.69,0,1.18-0.14,1.48-0.42c0.3-0.28,0.45-0.74,0.45-1.38c0-0.64-0.15-1.1-0.45-1.37
					c-0.3-0.27-0.81-0.41-1.53-0.41h-1.66v3.58H111.26z"/>
				<path class="st2" d="M120.02,239l-0.17-0.9c-0.31,0.34-0.65,0.6-1.01,0.78c-0.36,0.18-0.77,0.26-1.23,0.26
					c-0.57,0-1.03-0.16-1.38-0.49s-0.53-0.75-0.53-1.29c0-0.7,0.28-1.21,0.84-1.54c0.56-0.33,1.28-0.49,2.16-0.49
					c0.32,0,0.67,0.02,1.06,0.06v-0.43c0-0.43-0.12-0.78-0.35-1.04c-0.24-0.26-0.54-0.39-0.92-0.39c-0.45,0-0.85,0.06-1.22,0.18
					c-0.36,0.12-0.74,0.31-1.12,0.56v-1.02c0.38-0.25,0.76-0.42,1.15-0.52c0.39-0.1,0.84-0.15,1.34-0.15c0.64,0,1.16,0.2,1.57,0.61
					c0.4,0.41,0.61,0.95,0.61,1.62v2.78l0.26,1.39H120.02z M118.86,238.02c0.3-0.16,0.6-0.39,0.9-0.7v-1.18h-1.1
					c-1.21,0-1.81,0.39-1.81,1.16c0,0.29,0.09,0.52,0.28,0.69s0.42,0.26,0.71,0.26C118.21,238.26,118.55,238.18,118.86,238.02z"/>
				<path class="st2" d="M126.22,232.59v1.16h-0.18c-0.38,0-0.71,0.07-1.01,0.2c-0.3,0.14-0.55,0.33-0.75,0.59V239h-1.06v-4.87
					l-0.26-1.39h1.06l0.22,1.12c0.33-0.48,0.61-0.81,0.83-0.99c0.23-0.18,0.49-0.27,0.79-0.27H126.22z"/>
				<path class="st2" d="M132.02,239l-0.17-0.9c-0.31,0.34-0.65,0.6-1.01,0.78c-0.36,0.18-0.77,0.26-1.23,0.26
					c-0.57,0-1.03-0.16-1.38-0.49s-0.53-0.75-0.53-1.29c0-0.7,0.28-1.21,0.84-1.54c0.56-0.33,1.28-0.49,2.16-0.49
					c0.32,0,0.67,0.02,1.06,0.06v-0.43c0-0.43-0.12-0.78-0.35-1.04c-0.24-0.26-0.54-0.39-0.92-0.39c-0.45,0-0.85,0.06-1.22,0.18
					c-0.36,0.12-0.74,0.31-1.12,0.56v-1.02c0.38-0.25,0.76-0.42,1.15-0.52c0.39-0.1,0.84-0.15,1.34-0.15c0.64,0,1.16,0.2,1.57,0.61
					c0.4,0.41,0.61,0.95,0.61,1.62v2.78l0.26,1.39H132.02z M130.86,238.02c0.3-0.16,0.6-0.39,0.9-0.7v-1.18h-1.1
					c-1.21,0-1.81,0.39-1.81,1.16c0,0.29,0.09,0.52,0.28,0.69s0.42,0.26,0.71,0.26C130.21,238.26,130.55,238.18,130.86,238.02z"/>
				<path class="st2" d="M140.48,232.72l-0.26,1.39v4.48c0,1.06-0.24,1.88-0.73,2.46c-0.49,0.58-1.21,0.88-2.17,0.88
					c-0.54,0-0.98-0.05-1.32-0.16c-0.34-0.1-0.7-0.31-1.07-0.62v-1.07c0.39,0.33,0.76,0.55,1.1,0.68c0.34,0.12,0.77,0.19,1.28,0.19
					c0.62,0,1.08-0.19,1.39-0.58c0.31-0.39,0.46-0.93,0.46-1.63v-0.31c-0.26,0.18-0.53,0.3-0.8,0.38s-0.59,0.11-0.95,0.11
					c-0.9,0-1.59-0.27-2.05-0.82c-0.46-0.54-0.69-1.31-0.69-2.29c0-1.02,0.24-1.81,0.72-2.37c0.48-0.56,1.19-0.85,2.14-0.85
					c0.34,0,0.64,0.03,0.89,0.1c0.25,0.07,0.56,0.18,0.92,0.34l0.08-0.31H140.48z M138.34,237.81c0.26-0.09,0.54-0.23,0.82-0.42
					v-3.62c-0.26-0.09-0.5-0.15-0.73-0.19s-0.49-0.05-0.79-0.05c-0.62,0-1.09,0.2-1.39,0.6c-0.3,0.4-0.45,0.96-0.45,1.67
					c0,1.43,0.54,2.15,1.61,2.15C137.77,237.94,138.08,237.9,138.34,237.81z"/>
				<path class="st2" d="M145.66,232.59v1.16h-0.18c-0.38,0-0.71,0.07-1.01,0.2c-0.3,0.14-0.55,0.33-0.75,0.59V239h-1.06v-4.87
					l-0.26-1.39h1.06l0.22,1.12c0.33-0.48,0.61-0.81,0.83-0.99c0.23-0.18,0.49-0.27,0.79-0.27H145.66z"/>
				<path class="st2" d="M151.46,239l-0.17-0.9c-0.31,0.34-0.65,0.6-1.01,0.78c-0.36,0.18-0.77,0.26-1.23,0.26
					c-0.57,0-1.03-0.16-1.38-0.49c-0.35-0.32-0.53-0.75-0.53-1.29c0-0.7,0.28-1.21,0.84-1.54s1.28-0.49,2.16-0.49
					c0.32,0,0.67,0.02,1.06,0.06v-0.43c0-0.43-0.12-0.78-0.35-1.04c-0.24-0.26-0.54-0.39-0.92-0.39c-0.45,0-0.85,0.06-1.22,0.18
					c-0.36,0.12-0.74,0.31-1.12,0.56v-1.02c0.38-0.25,0.76-0.42,1.15-0.52c0.39-0.1,0.84-0.15,1.34-0.15c0.64,0,1.16,0.2,1.57,0.61
					c0.4,0.41,0.61,0.95,0.61,1.62v2.78l0.26,1.39H151.46z M150.29,238.02c0.3-0.16,0.6-0.39,0.9-0.7v-1.18h-1.1
					c-1.21,0-1.81,0.39-1.81,1.16c0,0.29,0.09,0.52,0.28,0.69c0.18,0.17,0.42,0.26,0.71,0.26
					C149.65,238.26,149.99,238.18,150.29,238.02z"/>
				<path class="st2" d="M158.91,233.02c0.38,0.29,0.67,0.68,0.87,1.18s0.29,1.06,0.29,1.68s-0.11,1.18-0.34,1.67
					s-0.56,0.88-0.98,1.16c-0.43,0.28-0.93,0.42-1.52,0.42c-0.3,0-0.57-0.03-0.83-0.1c-0.26-0.06-0.53-0.16-0.82-0.28v3.02h-1.06
					v-7.66l-0.26-1.39h1.06l0.16,0.8c0.54-0.63,1.22-0.95,2.04-0.95C158.06,232.59,158.53,232.74,158.91,233.02z M158.46,237.55
					c0.32-0.43,0.47-0.99,0.47-1.67c0-0.68-0.12-1.24-0.37-1.67s-0.63-0.65-1.15-0.65c-0.37,0-0.7,0.08-0.99,0.23
					c-0.29,0.15-0.57,0.38-0.85,0.67v3.49c0.52,0.16,1.03,0.24,1.54,0.24C157.7,238.2,158.14,237.98,158.46,237.55z"/>
				<path class="st2" d="M166.89,233.14c0.3,0.36,0.46,0.87,0.46,1.52V239h-1.06v-4.2c0-0.4-0.08-0.71-0.25-0.93
					s-0.42-0.33-0.77-0.33c-0.39,0-0.72,0.06-0.99,0.19c-0.27,0.13-0.57,0.34-0.89,0.62V239h-1.06v-9.05h1.06v3.56
					c0.35-0.32,0.69-0.55,1-0.7c0.32-0.15,0.7-0.22,1.16-0.22C166.14,232.59,166.59,232.77,166.89,233.14z"/>
			</g>
			<g class="st1">
				<path class="st2" d="M110.39,122.49h-3.15v-1.39h7.83v1.39h-3.17v8.38h-1.51V122.49z"/>
				<path class="st2" d="M120.64,126.53v4.34h-1.32l-0.11-0.98c-0.45,0.7-1.25,1.11-2.23,1.11c-1.47,0-2.45-0.88-2.45-2.2
					c0-0.78,0.34-1.37,0.95-1.68c0.48-0.24,1.12-0.35,2.1-0.35h1.61v-0.24c0-0.9-0.55-1.43-1.46-1.43c-0.76,0-1.43,0.36-1.95,1.08
					l-1.05-0.88c0.8-0.98,1.78-1.46,3.01-1.46C119.55,123.84,120.64,124.85,120.64,126.53z M119.2,127.9v-0.03h-1.44
					c-0.8,0-1.2,0.07-1.47,0.28c-0.21,0.14-0.31,0.38-0.31,0.67c0,0.59,0.49,0.95,1.27,0.95C118.37,129.78,119.2,128.99,119.2,127.9
					z"/>
				<path class="st2" d="M129.1,127.41c0,2.07-1.04,3.59-2.96,3.59c-0.83,0-1.61-0.28-2.09-0.9v0.77h-1.44v-9.76h1.44v3.63
					c0.43-0.56,1.23-0.91,2.09-0.91C127.91,123.82,129.1,125.18,129.1,127.41z M127.65,127.42c0-1.41-0.63-2.3-1.85-2.3
					c-1.26,0-1.89,0.98-1.89,2.3c0,1.29,0.6,2.26,1.9,2.26C127.05,129.68,127.65,128.8,127.65,127.42z"/>
			</g>
			<g class="st1">
				<path class="st2" d="M111.42,156.37h-3.36v-1.41h8.13v1.41h-3.36v9.73h-1.41V156.37z"/>
				<path class="st2" d="M124.79,162.39h-5.92c0.09,0.82,0.36,1.47,0.82,1.96s1.1,0.73,1.9,0.73c0.48,0,0.95-0.1,1.4-0.3
					c0.45-0.2,0.91-0.49,1.38-0.87h0.06v1.41c-0.47,0.34-0.93,0.59-1.39,0.74c-0.46,0.15-0.95,0.23-1.47,0.23
					c-0.85,0-1.59-0.19-2.22-0.56s-1.11-0.89-1.45-1.56c-0.34-0.67-0.5-1.43-0.5-2.3c0-0.82,0.15-1.56,0.46-2.22
					c0.3-0.66,0.74-1.17,1.3-1.54c0.57-0.37,1.23-0.56,1.98-0.56c0.77,0,1.43,0.19,1.98,0.57c0.55,0.38,0.97,0.9,1.25,1.56
					s0.42,1.41,0.42,2.24V162.39z M119.58,159.44c-0.39,0.48-0.63,1.1-0.7,1.86h4.46c-0.07-0.78-0.29-1.4-0.65-1.87
					c-0.36-0.47-0.87-0.7-1.53-0.7C120.5,158.72,119.97,158.96,119.58,159.44z"/>
				<path class="st2" d="M132.89,166.1l-2.64-3.46l-2.56,3.46h-1.55l3.36-4.42l-3.01-3.94h1.7l2.29,2.99l2.21-2.99h1.55l-3.01,3.97
					l3.36,4.38H132.89z"/>
				<path class="st2" d="M138.25,157.75h2.3v1.22h-2.3v4.78c0,0.39,0.09,0.71,0.26,0.95c0.18,0.24,0.43,0.36,0.78,0.36
					c0.23,0,0.44-0.02,0.63-0.07c0.19-0.05,0.4-0.12,0.63-0.23V166c-0.25,0.12-0.48,0.19-0.7,0.23c-0.22,0.04-0.5,0.06-0.82,0.06
					c-0.68,0-1.22-0.22-1.61-0.66c-0.39-0.44-0.58-1.02-0.58-1.74v-4.93h-1.6v-1.22h1.6v-2.24l1.41-0.74V157.75z"/>
				<path class="st2" d="M147.69,158.96h-1.6v-1.22h1.6v-0.96c0-0.93,0.22-1.65,0.65-2.17c0.43-0.52,1.08-0.78,1.94-0.78
					c0.23,0,0.44,0.02,0.62,0.06c0.18,0.04,0.4,0.11,0.66,0.21v1.22c-0.21-0.1-0.39-0.16-0.53-0.2s-0.29-0.06-0.46-0.06
					c-0.51,0-0.89,0.14-1.12,0.42c-0.23,0.28-0.35,0.66-0.35,1.13v1.12h2.3v1.22h-2.3v7.14h-1.41V158.96z M152.99,155.57
					c-0.19-0.19-0.28-0.44-0.28-0.74s0.09-0.54,0.28-0.74c0.19-0.19,0.43-0.29,0.73-0.29c0.3,0,0.54,0.1,0.73,0.29
					c0.19,0.19,0.28,0.44,0.28,0.74s-0.09,0.54-0.28,0.74c-0.19,0.19-0.43,0.29-0.73,0.29
					C153.42,155.86,153.18,155.76,152.99,155.57z M154.42,157.75v8.35h-1.41v-8.35H154.42z"/>
				<path class="st2" d="M164.47,162.39h-5.92c0.08,0.82,0.36,1.47,0.82,1.96s1.1,0.73,1.9,0.73c0.48,0,0.95-0.1,1.4-0.3
					c0.45-0.2,0.91-0.49,1.38-0.87h0.06v1.41c-0.47,0.34-0.93,0.59-1.39,0.74c-0.46,0.15-0.95,0.23-1.47,0.23
					c-0.85,0-1.59-0.19-2.22-0.56c-0.63-0.37-1.11-0.89-1.45-1.56c-0.34-0.67-0.5-1.43-0.5-2.3c0-0.82,0.15-1.56,0.46-2.22
					c0.3-0.66,0.74-1.17,1.3-1.54c0.57-0.37,1.23-0.56,1.98-0.56c0.77,0,1.43,0.19,1.98,0.57c0.55,0.38,0.97,0.9,1.25,1.56
					s0.42,1.41,0.42,2.24V162.39z M159.26,159.44c-0.39,0.48-0.63,1.1-0.7,1.86h4.46c-0.07-0.78-0.29-1.4-0.65-1.87
					c-0.36-0.47-0.87-0.7-1.53-0.7C160.18,158.72,159.65,158.96,159.26,159.44z"/>
				<path class="st2" d="M167.1,154.04h1.41v12.06h-1.41V154.04z"/>
				<path class="st2" d="M177.54,166.1l-0.21-1.1c-0.38,0.43-0.82,0.75-1.3,0.96c-0.48,0.21-1.02,0.32-1.62,0.32
					c-1.04,0-1.83-0.4-2.38-1.2c-0.55-0.8-0.83-1.82-0.83-3.07c0-0.85,0.15-1.62,0.46-2.29c0.3-0.67,0.74-1.2,1.31-1.58
					c0.57-0.38,1.25-0.58,2.04-0.58c0.38,0,0.75,0.05,1.09,0.14c0.34,0.09,0.7,0.22,1.09,0.39v-4.05h1.41v10.21l0.35,1.86H177.54z
					 M176.02,164.67c0.4-0.21,0.79-0.51,1.18-0.92v-4.59c-0.68-0.23-1.36-0.35-2.03-0.35c-0.78,0-1.38,0.3-1.8,0.89
					s-0.63,1.35-0.63,2.28c0,0.89,0.15,1.61,0.46,2.17s0.79,0.84,1.46,0.84C175.16,164.98,175.62,164.88,176.02,164.67z"/>
			</g>
			<g class="st1">
				<path class="st4" d="M81.65,97.06H90v1.06h-3.86v4.49H90v1.06h-8.35v-1.06h3.5v-4.49h-3.5V97.06z"/>
				<path class="st4" d="M86.15,91.79l1.4,1.21H90v1.06h-8.35V93h4.37l-4.37-3.77v-1.3l3.62,3.11L90,87.68v1.36L86.15,91.79z"/>
				<path class="st4" d="M83.56,82.13c-0.65-0.3-1.16-0.75-1.52-1.35c-0.36-0.6-0.54-1.31-0.54-2.15c0-0.48,0.06-0.93,0.17-1.36
					c0.12-0.42,0.27-0.8,0.47-1.13l1.19,0.01v0.05c-0.27,0.31-0.49,0.68-0.64,1.11c-0.16,0.43-0.23,0.88-0.23,1.35
					c0,0.94,0.3,1.63,0.91,2.09s1.43,0.69,2.47,0.69c1.03,0,1.85-0.23,2.45-0.68c0.6-0.45,0.9-1.13,0.9-2.05
					c0-0.38-0.05-0.72-0.15-1.03c-0.1-0.31-0.24-0.58-0.43-0.82h-1.79v1.76H85.9v-2.82h3.26c0.33,0.5,0.57,0.97,0.74,1.41
					c0.16,0.44,0.25,0.95,0.25,1.51c0,0.82-0.18,1.51-0.54,2.09c-0.36,0.58-0.86,1.02-1.51,1.31c-0.65,0.3-1.4,0.44-2.26,0.44
					C84.97,82.59,84.21,82.44,83.56,82.13z"/>
				<path class="st4" d="M90,68.15l-3.28,1.69v0.12v1.92H90v1.06h-8.35v-2.83c0-1,0.21-1.74,0.63-2.23s1.03-0.73,1.84-0.73
					c0.6,0,1.11,0.13,1.52,0.4c0.42,0.26,0.71,0.65,0.89,1.16L90,66.88V68.15z M85.36,68.72c-0.24-0.29-0.66-0.44-1.24-0.44
					c-0.54,0-0.91,0.15-1.13,0.44c-0.22,0.29-0.33,0.75-0.33,1.39v1.78h3.07V70.1C85.73,69.47,85.61,69.01,85.36,68.72z"/>
				<path class="st4" d="M89.6,63.07c-0.36,0.57-0.86,1.01-1.51,1.31c-0.65,0.3-1.4,0.45-2.27,0.45s-1.62-0.15-2.27-0.45
					c-0.65-0.3-1.15-0.74-1.51-1.31C81.68,62.5,81.5,61.81,81.5,61s0.18-1.5,0.54-2.07s0.86-1.01,1.51-1.31
					c0.65-0.3,1.4-0.45,2.27-0.45s1.62,0.15,2.27,0.45c0.65,0.3,1.15,0.74,1.51,1.31c0.36,0.57,0.54,1.26,0.54,2.07
					S89.96,62.5,89.6,63.07z M88.28,58.98c-0.6-0.45-1.42-0.67-2.45-0.67s-1.85,0.22-2.45,0.67c-0.6,0.45-0.91,1.12-0.91,2.02
					s0.3,1.57,0.91,2.02s1.42,0.67,2.45,0.67s1.85-0.22,2.45-0.67c0.6-0.45,0.91-1.12,0.91-2.02S88.88,59.43,88.28,58.98z"/>
				<path class="st4" d="M82.7,53.13v2.52h-1.06v-6.1h1.06v2.52H90v1.06H82.7z"/>
				<path class="st4" d="M82.66,46.2h2.64v-3.66h0.96v3.66h2.74v-3.92H90v4.98h-8.35v-4.98h1.01V46.2z"/>
				<path class="st4" d="M89.96,38.62c-0.12,0.5-0.28,0.98-0.49,1.43h-1.14c0.29-0.53,0.5-1.02,0.64-1.47
					c0.14-0.45,0.2-0.9,0.2-1.34c0-0.55-0.12-0.98-0.37-1.28c-0.25-0.3-0.59-0.46-1.02-0.46c-0.3,0-0.54,0.08-0.74,0.25
					s-0.36,0.38-0.48,0.64s-0.25,0.6-0.4,1.03c-0.18,0.52-0.34,0.94-0.5,1.25c-0.16,0.32-0.39,0.59-0.68,0.81
					c-0.3,0.22-0.68,0.34-1.15,0.34c-0.7,0-1.27-0.26-1.69-0.77c-0.42-0.51-0.63-1.2-0.63-2.06c0-0.84,0.18-1.61,0.54-2.32h1.1
					c-0.45,0.79-0.67,1.56-0.67,2.32c0,0.55,0.11,0.98,0.33,1.3c0.22,0.31,0.52,0.47,0.91,0.47c0.26,0,0.48-0.08,0.66-0.24
					s0.32-0.36,0.43-0.59c0.11-0.23,0.24-0.56,0.39-0.98c0.18-0.53,0.35-0.96,0.52-1.3s0.41-0.62,0.73-0.86
					c0.32-0.24,0.73-0.35,1.24-0.35c0.5,0,0.93,0.11,1.3,0.34c0.37,0.22,0.66,0.54,0.86,0.96s0.31,0.9,0.31,1.44
					C90.14,37.63,90.08,38.12,89.96,38.62z"/>
				<path class="st4" d="M86.15,29.63l1.4,1.21H90v1.06h-8.35v-1.06h4.37l-4.37-3.77v-1.3l3.62,3.11L90,25.52v1.36L86.15,29.63z"/>
			</g>
			<g class="st1">
				<path class="st4" d="M87.79,189.06v4.02l2.21,0.85v1.06l-8.35-3.22v-1.46l8.35-3.22v1.12L87.79,189.06z M86.89,189.41
					l-4.32,1.66l4.32,1.67V189.41z"/>
				<path class="st4" d="M90,176.34v1.06h-7.44l7.44,2.72v1.15l-7.39,2.77H90v1.06h-8.35v-1.85l6.88-2.58l-6.88-2.52v-1.81H90z"/>
				<path class="st4" d="M81.65,173.45v-1.06H90v1.06H81.65z"/>
				<path class="st4" d="M86.15,167.23l1.4,1.21H90v1.06h-8.35v-1.06h4.37l-4.37-3.77v-1.3l3.62,3.11l4.73-3.37v1.36L86.15,167.23z"
					/>
				<path class="st4" d="M89.6,160.11c-0.36,0.57-0.86,1.01-1.51,1.31c-0.65,0.3-1.4,0.45-2.27,0.45s-1.62-0.15-2.27-0.45
					c-0.65-0.3-1.15-0.74-1.51-1.31c-0.36-0.57-0.54-1.26-0.54-2.07c0-0.81,0.18-1.5,0.54-2.07s0.86-1.01,1.51-1.31
					c0.65-0.3,1.4-0.45,2.27-0.45s1.62,0.15,2.27,0.45c0.65,0.3,1.15,0.74,1.51,1.31c0.36,0.57,0.54,1.26,0.54,2.07
					C90.14,158.85,89.96,159.54,89.6,160.11z M88.28,156.02c-0.6-0.45-1.42-0.67-2.45-0.67s-1.85,0.22-2.45,0.67
					s-0.91,1.12-0.91,2.02c0,0.9,0.3,1.57,0.91,2.02s1.42,0.67,2.45,0.67s1.85-0.22,2.45-0.67c0.6-0.45,0.91-1.12,0.91-2.02
					C89.18,157.14,88.88,156.47,88.28,156.02z"/>
			</g>
		</g>
	</g>
</g>
</svg>
