<svg width="1440" height="714" viewBox="0 0 1440 714" fill="none" xmlns="http://www.w3.org/2000/svg">
<g clip-path="url(#clip0)">
<path d="M592.253 24.1505C654.117 -65.7783 -168.154 135.36 -325.852 245.258C-363.202 271.286 -431.05 306.375 -397.853 321.257C-326.241 353.361 248.876 212.245 327.689 212.296C406.502 212.348 39.9545 467.301 158.147 508.629C276.339 549.957 659.473 356.83 698.845 409.565C738.216 462.3 580.542 535.531 617.79 663.89C655.038 792.25 1269.01 641.289 1491.06 508.629C1761.63 346.975 1560.44 328.628 1209.88 399.44C859.327 470.252 1025.93 378.002 1049.25 156.056C1060.08 52.9413 303.331 444.143 592.253 24.1505Z" fill="#F6E022"/>
</g>
<defs>
<clipPath id="clip0">
<rect width="1440" height="714" fill="white"/>
</clipPath>
</defs>
</svg>
