<?xml version="1.0" encoding="utf-8"?>
<!-- Generator: Adobe Illustrator 22.1.0, SVG Export Plug-In . SVG Version: 6.00 Build 0)  -->
<svg version="1.1" xmlns="http://www.w3.org/2000/svg" xmlns:xlink="http://www.w3.org/1999/xlink" x="0px" y="0px"
	 viewBox="0 0 400 400" style="enable-background:new 0 0 400 400;" xml:space="preserve">
<style type="text/css">
	.st0{opacity:0.45;}
	.st1{fill:#EA4E4E;}
	.st2{fill:#3F3F3F;}
	.st3{fill:none;stroke:#000000;stroke-width:9;stroke-linecap:round;stroke-linejoin:round;stroke-miterlimit:10;}
	.st4{fill:#EA9898;}
	.st5{fill:none;stroke:#1D2B2B;stroke-width:5;stroke-linecap:round;stroke-linejoin:round;stroke-miterlimit:10;}
	.st6{fill:#FFFFFF;stroke:#1D2B2B;stroke-width:5;stroke-linecap:round;stroke-linejoin:round;stroke-miterlimit:10;}
	.st7{fill:none;stroke:#1D2B2B;stroke-width:2;stroke-miterlimit:10;}
	.st8{fill:none;stroke:#1D2B2B;stroke-width:8;stroke-linecap:round;stroke-miterlimit:10;}
	.st9{fill:#9B9B9B;}
	.st10{fill:#FFF176;}
	.st11{fill:#1D2B2B;}
	.st12{fill:#FFFFFF;stroke:#1D2B2B;stroke-width:3;stroke-miterlimit:10;}
	.st13{fill:none;stroke:#1D2B2B;stroke-width:3;stroke-miterlimit:10;}
	.st14{fill:#9B9B9B;stroke:#1D2B2B;stroke-width:3;stroke-linecap:round;stroke-linejoin:round;stroke-miterlimit:10;}
	.st15{fill:none;stroke:#1D2B2B;stroke-width:3;stroke-linecap:round;stroke-miterlimit:10;}
	.st16{fill:none;stroke:#1D2B2B;stroke-width:3;stroke-linecap:round;stroke-linejoin:round;stroke-miterlimit:10;}
	.st17{fill:#FFFFFF;stroke:#1D2B2B;stroke-width:3;stroke-linecap:round;stroke-linejoin:round;stroke-miterlimit:10;}
	.st18{fill:#FFFFFF;stroke:#1D2B2B;stroke-width:3;stroke-linecap:round;stroke-miterlimit:10;}
	.st19{fill:none;}
	.st20{fill:#FFFFFF;}
	.st21{fill:#F6E022;}
</style>
<g id="Layer_1" class="st0">
</g>
<g id="Layer_2">
	<path class="st20" d="M204.3,254.9L147.5,229l55,25.9c1.1,0.7,2.3,0.8,3.6,0l67.2-39.1l0,0c4-11.9,2.7-43-7-53.2l0,0
		c0,0-3-9.2-3-21.7c0-21.9-7.6-38.5-17.8-46.3l0,0c-18.4-18.7-48.8-15-62.1-7.2c-21.6,12.7-34.4,38.7-34.4,79.6
		c0,21.4-4.3,55.3-4.3,55.3c0,2.8,0.7,4.9,1.9,6.1l0.8,0.4"/>
	<g>
		<g>
			<path class="st21" d="M197.1,255l-55.6-25.5l53.8,25.5c1.1,0.7,2.3,0.7,3.5,0l65.8-38.6l0,0c3.9-11.8,2.7-42.5-6.9-52.6l0,0
				c0,0-3-9.1-3-21.5c0-21.6-7.4-38-17.4-45.7l0,0c-18-18.4-47.8-14.8-60.8-7.1c-21.2,12.5-33.7,38.3-33.7,78.6
				c0,21.2-4.2,54.6-4.2,54.6c0,2.8,0.7,4.9,1.9,6l0.7,0.4"/>
			
				<ellipse transform="matrix(8.294760e-02 -0.9966 0.9966 8.294760e-02 79.0065 352.4297)" class="st11" cx="231" cy="133.3" rx="16.6" ry="12.2"/>
			<g>
				<path class="st19" d="M151.3,114.9c-0.6-0.1-1.2-0.3-1.7-0.5c-4-1.1-4.1-0.9-4.7-0.2c-14.4,15.8-18,51.1-4.5,71.2
					c0.4-6.4,0.8-12.8,0.8-18.3C141.1,146.4,144.5,128.9,151.3,114.9z"/>
				<path class="st11" d="M267.9,161.5c-0.6-2-2.9-10.1-2.9-20.6c0-21.1-7.3-39-19.2-47.8c0,0,0,0,0,0c-14.5-14.1-35-15.9-50.6-13.1
					c-0.3,0-0.6-0.1-0.9-0.1c-1.3,0-2.9-0.4-4.6-0.9c-4.1-1.1-11.1-3-16.7,3.2c-3.7,4.1-6.9,9.1-9.3,14.7c-2.2,2.3-4.2,4.7-6.1,7.4
					c-0.1,0-0.1,0-0.2,0c-1.3,0-2.9-0.4-4.6-0.9c-4.1-1.1-11.1-3-16.7,3.2c-19.6,21.5-23.2,69.4,0.7,92.6c0.7,0.7,1.5,1.1,2.4,1.4
					c-1.2,11.9-2.4,21.4-2.4,21.5l0,0.3c0,3.3,0.9,6,2.7,7.6l0.2,0.2l0.5,0.2c0.2,0.3,0.5,0.5,0.8,0.7l57.4,25.8
					c0.9,0.5,1.9,0.8,2.9,0.8c1,0,2-0.3,3-0.8l70.4-39.1c0.6-0.3,0.9-0.8,1.1-1.4C279.5,204.6,279,173.2,267.9,161.5z M158.4,104.3
					c0,0-0.1,0-0.1,0C158.3,104.3,158.3,104.3,158.4,104.3z M144.8,114.2c0.6-0.7,0.8-0.8,4.7,0.2c0.6,0.2,1.1,0.3,1.7,0.5
					c-6.7,14-10.2,31.5-10.2,52.2c0,5.5-0.3,11.9-0.8,18.3C126.8,165.3,130.5,129.9,144.8,114.2z M204.7,227.6
					c-1-9.4-3.4-18.7-7.8-24.5l26.1-14.3c1.1-0.6,1.4-1.9,0.8-2.9c-0.6-1-2-1.4-3-0.8l-26.5,14.6c-1-3.3-2.9-14-2.9-48.1
					c0-3.3,0.2-6,0.6-7.9c0.2-1.2-0.5-2.3-1.7-2.5c-1.2-0.2-2.4,0.5-2.6,1.7c-0.4,2.1-0.7,5.2-0.7,8.7c0,32.1,1.6,49.8,4.8,52.5
					c0.1,0.1,0.3,0.2,0.4,0.3c4.3,4.6,7,14,8.1,23.8c0,0-0.1,0-0.1-0.1l-56.8-25.5c0.1-0.7,0.1-1.5,0.2-2.3c0.3-3.2,0.6-6.5,0.9-9.8
					c0.6-8.1,1.1-16.4,1.1-23.3c0-20.8,3.4-37.9,10.2-51.4c1.7-3.5,3.7-6.7,5.9-9.7c5.1-6.9,11.3-12.5,18.8-16.7
					c4.9-2.8,11.8-4.9,19.4-5.7c9.6-1,20.3-0.1,29.8,3.9c-4.1,0.1-8.2,1.2-12.1,3.4c-10.5,5.9-19.6,18.8-25.6,36.4
					c-0.4,1.1,0.2,2.4,1.4,2.7c1.2,0.4,2.4-0.2,2.8-1.4c5.7-16.6,14.1-28.7,23.6-34c6.7-3.8,13.8-3.8,20.5,0
					c12.4,6.9,20.4,25.1,20.4,46.4c0,9.7,1.8,17.4,2.8,20.7l-22.1,12.2c-1.1,0.6-1.4,1.9-0.8,2.9c0.6,1,2,1.4,3,0.8l22.1-12.2
					c4.1,5.2,6.5,14.6,7.5,24.3L204.7,227.6z"/>
			</g>
		</g>
		<g>
			<path class="st11" d="M77,286.2c-8.8-3.3-12-6.5-12-13.4c0-8.4,6.3-13.1,16.4-13.1c3.7,0,7.2,0.6,10.2,1.7l4.2,1.4
				c0.6,0.2,0.7,0.5,0.6,1l-2.6,7.2c-0.2,0.5-0.5,0.7-1,0.5l-3.8-1.2c-2.6-0.8-5-1.3-7.6-1.3c-3.6,0-6,1.5-6,3.8
				c0,2.2,2,3.3,5.6,4.6l5.4,2c8.9,3.3,12.1,6.7,12.1,13.6c0,8.8-6,13.4-16.8,13.4c-3.8,0-7.3-0.4-12.6-2.1l-4.2-1.3
				c-0.6-0.2-0.7-0.5-0.6-1l2.6-7.1c0.2-0.5,0.5-0.7,1-0.5l4.5,1.3c3.8,1.2,6.6,1.5,9.3,1.5c3.5,0,6.4-0.8,6.4-4.2
				c0-1.9-2.2-3.4-5.8-4.7L77,286.2z"/>
			<path class="st11" d="M111.8,276.2c0.6,1,1,0.9,2,0.1c2.6-2.2,5.5-2.7,7.4-2.7c7.6,0,12.2,4.4,12.2,11.8v19.5
				c0,0.5-0.3,0.8-0.8,0.8h-8.5c-0.5,0-0.8-0.3-0.8-0.8v-18.2c0-2.6-1.3-4.1-3.6-4.1c-3.1,0-4.8,2.2-4.8,6.5v15.7
				c0,0.5-0.3,0.8-0.8,0.8h-8.5c-0.5,0-0.8-0.3-0.8-0.8v-29.8c0-0.5,0.3-0.8,0.8-0.8h4.5c0.4,0,0.8,0.2,1,0.6L111.8,276.2z"/>
			<path class="st11" d="M144.4,274.6c2.4-0.6,4.6-1,7-1c9.7,0,15.4,4.6,15.4,12.4v18.9c0,0.5-0.3,0.8-0.8,0.8h-4.8
				c-0.5,0-0.8-0.2-1-0.6l-0.6-1.2c-0.4-0.8-1-0.9-2,0c-1.7,1.5-4.2,2.4-6.9,2.4c-7.6,0-12.2-3.8-12.2-10.2c0-6,4.7-9.5,12.7-9.5h6
				v-0.1c-0.3-2.8-2.6-4.4-6.3-4.4c-1.3,0-2.8,0.3-4.2,0.6l-2.4,0.7c-0.5,0.1-0.8-0.1-1-0.6l-2-6.7c-0.2-0.6,0-0.9,0.6-1
				L144.4,274.6z M151.2,293.1c-1.9,0-3.2,1-3.2,2.4c0,1.8,1.3,2.8,3.6,2.8c3.3,0,5.2-1.6,5.6-5.1v-0.1H151.2z"/>
			<path class="st11" d="M181,276.4c0.5,0.8,1,0.6,1.6,0.1c2.7-2.3,5.4-2.9,8.2-2.9c8.5,0,13.8,6.3,13.8,16.4
				c0,10.1-5.6,16.4-14.8,16.4c-1.9,0-3.1-0.3-4.3-0.8l-1.5-0.6v13.9c0,0.5-0.3,0.8-0.8,0.8h-8.5c-0.5,0-0.8-0.3-0.8-0.8v-43.8
				c0-0.5,0.3-0.8,0.8-0.8h4.5c0.4,0,0.8,0.2,1,0.6L181,276.4z M185,296.7c1.1,0.6,2.6,0.8,3.9,0.8c3.7,0,5.7-2.8,5.7-7.5
				c0-4.6-2.1-7.4-5.8-7.4c-3.3,0-5.1,2.4-5.1,6.3v7.1L185,296.7z"/>
			<path class="st11" d="M219,292.9c-6.2-1.4-9-4.2-9-9.1c0-6.5,4.6-10.2,12.5-10.2c2.9,0,6,0.5,8.3,1l3.2,0.8
				c0.5,0.1,0.8,0.5,0.6,1l-1.9,6.7c-0.1,0.5-0.4,0.7-1,0.6l-3.3-0.8c-1.7-0.4-4.4-0.6-6-0.6c-1.7,0-2.6,0.6-2.6,1.6
				c0,0.6,0.6,1.3,1.7,1.7l5.4,1.3c6.1,1.5,8.9,4.4,8.9,9.3c0,6.5-4.6,10.3-12.4,10.3c-2.8,0-6.2-0.3-9.8-1.2l-3.4-0.8
				c-0.5-0.1-0.8-0.5-0.6-1l1.9-6.8c0.1-0.5,0.4-0.7,1-0.6l3,0.8c2.8,0.7,6.7,1,7.9,1c1.6,0,2.5-0.6,2.5-1.7c0-0.8-0.6-1.6-1.9-1.9
				L219,292.9z"/>
			<path class="st11" d="M245.6,274.6c2.4-0.6,4.6-1,7-1c9.7,0,15.4,4.6,15.4,12.4v18.9c0,0.5-0.3,0.8-0.8,0.8h-4.8
				c-0.5,0-0.8-0.2-1-0.6l-0.6-1.2c-0.4-0.8-1-0.9-2,0c-1.7,1.5-4.2,2.4-6.9,2.4c-7.6,0-12.2-3.8-12.2-10.2c0-6,4.7-9.5,12.7-9.5h6
				v-0.1c-0.3-2.8-2.6-4.4-6.3-4.4c-1.3,0-2.8,0.3-4.2,0.6l-2.4,0.7c-0.5,0.1-0.8-0.1-1-0.6l-2-6.7c-0.2-0.6,0-0.9,0.6-1
				L245.6,274.6z M252.4,293.1c-1.9,0-3.2,1-3.2,2.4c0,1.8,1.3,2.8,3.6,2.8c3.3,0,5.2-1.6,5.6-5.1v-0.1H252.4z"/>
			<path class="st11" d="M295.1,305.8c-1.8,0.5-3.8,0.6-5.5,0.6c-10.2,0-16-6.3-16-16.4c0-10,5.7-16.4,16.2-16.4
				c1.4,0,3.3,0.1,5.1,0.6l3.5,1c0.6,0.2,0.8,0.5,0.6,1.1l-2,7c-0.2,0.5-0.5,0.7-1,0.6l-2.6-0.7c-1.3-0.4-2.7-0.6-3.6-0.6
				c-4.4,0-6.3,2.8-6.3,7.3c0,4.7,2,7.6,6.2,7.6c1,0,2.6-0.3,3.9-0.6l2.6-0.6c0.5-0.1,0.8,0.1,1,0.6l2.1,7c0.2,0.6,0,0.9-0.6,1
				L295.1,305.8z"/>
			<path class="st11" d="M336.1,304.8c0.3,0.6,0.1,1-0.6,1h-9.2c-0.5,0-0.8-0.2-1-0.6l-3.5-6.8c-1.3-2.4-2.6-4-5.6-4h-0.5v10.6
				c0,0.5-0.3,0.8-0.8,0.8h-8.5c-0.5,0-0.8-0.3-0.8-0.8V260c0-0.5,0.3-0.8,0.8-0.8h8.5c0.5,0,0.8,0.3,0.8,0.8v25.4h0.6
				c2.8,0,3.9-2.1,5.1-4.4l3.1-6.1c0.3-0.4,0.5-0.6,1-0.6h9.2c0.6,0,0.9,0.4,0.6,1l-5.1,10c-1.2,2.2-2.7,3.4-4.7,4.2
				c-0.2,0.1-0.3,0.4,0,0.5c2,0.9,4,2.2,5.1,4.3L336.1,304.8z"/>
		</g>
	</g>
</g>
<g id="Layer_3">
</g>
</svg>
