<svg width="375" height="353" viewBox="0 0 375 353" fill="none" xmlns="http://www.w3.org/2000/svg">
<g clip-path="url(#clip0)">
<path d="M196.853 11.5459C219.559 -41.4771 -252.768 66.6592 -346.008 121.16C-368.091 134.068 -408.208 151.467 -388.577 158.851C-346.231 174.779 -6.17375 104.821 40.4283 104.851C87.0304 104.882 -29.4352 158.86 40.4544 179.367C110.344 199.874 236.621 176.562 259.905 202.721C283.188 228.881 189.96 265.194 211.993 328.864C234.026 392.534 597.06 317.694 728.346 251.908C888.326 171.743 769.361 162.63 562.081 197.731C354.802 232.833 453.309 187.086 467.083 77.0008C473.482 25.8557 121 188.678 196.853 11.5459Z" fill="#F6E022"/>
</g>
<defs>
<clipPath id="clip0">
<rect width="375" height="353" fill="white"/>
</clipPath>
</defs>
</svg>
