<svg width="80" height="80" viewBox="0 0 80 80" fill="none" xmlns="http://www.w3.org/2000/svg">
<path d="M22 65C29.2353 65 35.4118 59.386 35.4118 51.6667C35.4118 43.4211 29.2353 39.5614 24.2941 39.5614C21.4706 39.5614 20.0588 40.0877 19 40.9649L18.2941 40.4386C20.4118 33.0702 27.1176 25.8772 36.8235 22.3684L27.8235 15C14.5882 20.9649 7 33.5965 7 46.5789C7 57.1053 12.2941 65 22 65ZM58.1765 65C65.4118 65 71.5882 59.386 71.5882 51.6667C71.5882 43.4211 65.4118 39.5614 60.4706 39.5614C57.6471 39.5614 56.2353 40.0877 55.1765 40.9649L54.4706 40.4386C56.5882 33.0702 63.2941 25.8772 73 22.3684L64.1765 15C50.7647 20.9649 43.1765 33.5965 43.1765 46.5789C43.1765 57.1053 48.4706 65 58.1765 65Z" fill="#3F3B43"/>
</svg>
