<svg width="375" height="296" viewBox="0 0 375 296" fill="none" xmlns="http://www.w3.org/2000/svg">
<g clip-path="url(#clip0)">
<path d="M42.9999 79.0444C33.1201 36.6718 -50.1582 96.552 -101.424 145.65C-113.566 157.278 -124.626 168.573 -123.065 182.775C-119.144 218.426 -0.496703 134.549 27.4978 131.47C55.4923 128.391 -50.7629 236.561 -7 248.044C36.7629 259.528 167.526 150.474 183.786 169.509C200.046 188.545 147.206 223.33 165.977 271.968C184.747 320.606 413.51 258.323 469.436 177.023C525.362 95.724 447.315 70.8085 325.863 112.234C204.411 153.66 320.478 67.0849 305 28.0443C289.522 -10.9963 52.8797 121.417 42.9999 79.0444Z" fill="#F6E022"/>
<path d="M356.654 291.408L304.654 218C297.999 222.799 281.463 239.807 278.852 254.704C275.589 273.325 264.748 282.209 230 292.959" stroke="#1F2E2D" stroke-width="2"/>
<path d="M291 239.195C285.313 266.335 301.066 279.993 265.411 295.544" stroke="#1F2E2D" stroke-width="2"/>
<path d="M16 70.878L50.001 21C56.4774 25.6702 67.2868 32.4112 69.8275 46.9076C73.0034 65.0281 65.6938 74.4274 99.5081 84.8887" stroke="#1F2E2D" stroke-width="2"/>
<path d="M65.229 45.3984C66.7294 59.784 39.9094 81.8293 74.6067 96.9622" stroke="#1F2E2D" stroke-width="2"/>
</g>
<defs>
<clipPath id="clip0">
<rect width="375" height="296" fill="white"/>
</clipPath>
</defs>
</svg>
