<svg width="1440" height="508" viewBox="0 0 1440 508" fill="none" xmlns="http://www.w3.org/2000/svg">
<g clip-path="url(#clip0)">
<path d="M374.62 130.249C352.485 61.7983 81.4662 215.657 -67.5115 302.929C-102.796 323.598 -135.025 343.582 -132.478 366.746C-126.083 424.896 214.927 271.864 293.267 263.247C371.608 254.631 155.684 454.117 276.084 467.456C396.484 480.796 680.761 276.745 723.622 305.997C766.484 335.249 614.938 399.174 661.034 476.804C707.13 554.434 1352.01 422.956 1518.05 282.12C1684.09 141.285 1469.93 110.199 1126.5 193.753C783.063 277.307 978.531 81.5475 940.385 19.2878C902.239 -42.9718 396.754 198.701 374.62 130.249Z" fill="#F6E022"/>
<path d="M1364.33 187.067L1277.16 64C1266 72.0458 1238.28 100.559 1233.9 125.533C1228.43 156.751 1210.25 171.644 1152 189.667" stroke="#1F2E2D" stroke-width="4"/>
<path d="M1254.27 99.5333C1244.73 145.033 1271.14 167.929 1211.37 194" stroke="#1F2E2D" stroke-width="4"/>
<path d="M91 386.534L171.121 269C186.383 280.005 211.854 295.89 217.841 330.05C225.325 372.749 208.1 394.898 287.781 419.55" stroke="#1F2E2D" stroke-width="4"/>
<path d="M207.004 326.493C210.54 360.392 147.34 412.34 229.102 448" stroke="#1F2E2D" stroke-width="4"/>
</g>
<defs>
<clipPath id="clip0">
<rect width="1440" height="508" fill="white"/>
</clipPath>
</defs>
</svg>
