<svg width="1758" height="508" viewBox="0 0 1758 508" fill="none" xmlns="http://www.w3.org/2000/svg">
<g clip-path="url(#clip0)">
<path d="M533.62 130.249C511.485 61.7983 240.466 215.657 91.4885 302.929C56.2044 323.598 23.9748 343.582 26.5223 366.746C32.9175 424.896 373.927 271.864 452.267 263.247C530.608 254.631 314.684 454.117 435.084 467.456C555.484 480.796 839.761 276.745 882.622 305.997C925.484 335.249 773.938 399.174 820.034 476.804C866.13 554.434 1511.01 422.956 1677.05 282.12C1843.09 141.285 1628.93 110.199 1285.5 193.753C942.063 277.307 1137.53 81.5475 1099.39 19.2878C1061.24 -42.9718 555.754 198.701 533.62 130.249Z" fill="#F6E022"/>
<path d="M1523.33 187.067L1436.16 64C1425 72.0458 1397.28 100.559 1392.9 125.533C1387.43 156.751 1369.26 171.644 1311 189.667" stroke="#1F2E2D" stroke-width="4"/>
<path d="M1413.27 99.5333C1403.73 145.033 1430.14 167.929 1370.37 194" stroke="#1F2E2D" stroke-width="4"/>
<path d="M250 386.534L330.121 269C345.383 280.005 370.854 295.89 376.841 330.05C384.325 372.749 367.1 394.898 446.781 419.55" stroke="#1F2E2D" stroke-width="4"/>
<path d="M366.004 326.493C369.54 360.392 306.34 412.34 388.102 448" stroke="#1F2E2D" stroke-width="4"/>
</g>
<defs>
<clipPath id="clip0">
<rect width="1758" height="508" fill="white"/>
</clipPath>
</defs>
</svg>
