<svg width="1440" height="714" viewBox="0 0 1440 714" fill="none" xmlns="http://www.w3.org/2000/svg">
<g clip-path="url(#clip0)">
<path d="M592.254 24.1505C654.118 -65.7783 -168.153 135.36 -325.851 245.258C-363.201 271.286 -431.049 306.375 -397.852 321.257C-326.24 353.361 248.877 212.245 327.69 212.296C406.503 212.348 39.9555 467.301 158.148 508.629C276.34 549.957 659.474 356.83 698.846 409.565C738.217 462.3 580.543 535.531 617.791 663.89C655.039 792.25 1269.01 641.289 1491.06 508.629C1761.63 346.975 1560.44 328.628 1209.89 399.44C859.328 470.252 1025.93 378.002 1049.25 156.056C1060.08 52.9413 303.332 444.143 592.254 24.1505Z" fill="#FFEFE9"/>
</g>
<defs>
<clipPath id="clip0">
<rect width="1440" height="714" fill="white"/>
</clipPath>
</defs>
</svg>
