<svg width="1758" height="508" viewBox="0 0 1758 508" fill="none" xmlns="http://www.w3.org/2000/svg">
<g clip-path="url(#clip0)">
<path d="M533.62 130.249C511.485 61.7983 240.466 215.657 91.4885 302.929C56.2044 323.598 23.9748 343.582 26.5223 366.746C32.9175 424.896 373.927 271.864 452.267 263.247C530.608 254.631 314.684 454.117 435.084 467.456C555.484 480.796 839.761 276.745 882.622 305.997C925.484 335.249 773.938 399.174 820.034 476.804C866.13 554.434 1511.01 422.956 1677.05 282.12C1843.09 141.285 1628.93 110.199 1285.5 193.753C942.063 277.307 1137.53 81.5475 1099.39 19.2878C1061.24 -42.9719 555.754 198.701 533.62 130.249Z" fill="#FFEFE9"/>
</g>
<defs>
<clipPath id="clip0">
<rect width="1758" height="508" fill="white"/>
</clipPath>
</defs>
</svg>
