<svg width="375" height="296" viewBox="0 0 375 296" fill="none" xmlns="http://www.w3.org/2000/svg">
<g clip-path="url(#clip0)">
<path d="M43.0009 79.0444C33.1211 36.6718 -50.1572 96.552 -101.423 145.65C-113.565 157.278 -124.625 168.573 -123.064 182.775C-119.143 218.426 -0.495726 134.549 27.4988 131.47C55.4933 128.391 -50.7619 236.561 -6.99902 248.044C36.7638 259.528 167.527 150.474 183.787 169.509C200.047 188.545 147.207 223.33 165.978 271.968C184.748 320.606 413.511 258.323 469.437 177.023C525.363 95.724 447.316 70.8085 325.864 112.234C204.412 153.66 320.479 67.0849 305.001 28.0443C289.523 -10.9963 52.8807 121.417 43.0009 79.0444Z" fill="#FFEFE9"/>
</g>
<defs>
<clipPath id="clip0">
<rect width="375" height="296" fill="white"/>
</clipPath>
</defs>
</svg>
