<svg width="1440" height="508" viewBox="0 0 1440 508" fill="none" xmlns="http://www.w3.org/2000/svg">
<g clip-path="url(#clip0)">
<path d="M374.62 130.249C352.485 61.7983 81.4662 215.657 -67.5115 302.929C-102.796 323.598 -135.025 343.582 -132.478 366.746C-126.083 424.896 214.927 271.864 293.267 263.247C371.608 254.631 155.684 454.117 276.084 467.456C396.484 480.796 680.761 276.745 723.622 305.997C766.484 335.249 614.938 399.174 661.034 476.804C707.13 554.434 1352.01 422.956 1518.05 282.12C1684.09 141.285 1469.93 110.199 1126.5 193.753C783.063 277.307 978.531 81.5475 940.385 19.2878C902.239 -42.9719 396.754 198.7 374.62 130.249Z" fill="#FFEFE9"/>
</g>
<defs>
<clipPath id="clip0">
<rect width="1440" height="508" fill="white"/>
</clipPath>
</defs>
</svg>
