<?xml version="1.0" encoding="utf-8"?>
<!-- Generator: Adobe Illustrator 23.0.4, SVG Export Plug-In . SVG Version: 6.00 Build 0)  -->
<svg version="1.1" id="Layer_1" xmlns="http://www.w3.org/2000/svg" xmlns:xlink="http://www.w3.org/1999/xlink" x="0px" y="0px"
	 viewBox="0 0 157 154.71" style="enable-background:new 0 0 157 154.71;" xml:space="preserve">
<style type="text/css">
	.st0{enable-background:new    ;}
	.st1{fill:#E0517E;}
	.st2{fill:#FFFFFF;}
	.st3{fill:#FFFFFF;stroke:#E0517E;stroke-width:4;stroke-linejoin:round;}
	.st4{fill:#E0517E;stroke:#E0517E;stroke-width:4;}
	.st5{fill:#E0517E;stroke:#E0517E;stroke-width:3;stroke-linejoin:round;}
	.st6{fill:#FFFFFF;stroke:#E0517E;stroke-width:4;}
	.st7{fill:#FFFFFF;fill-opacity:0.5;}
	.st8{fill:#BEE4FF;stroke:#BEE4FF;stroke-width:4;}
</style>
<g id="Group_780" transform="translate(-31 -22.627)">
	<g id="Group_778" transform="translate(32 101.332)">
		<g id="Group_749">
			<g class="st0">
				<path class="st1" d="M12.48,54.73c-8.35,0-12.53-3.03-12.53-9.1c0-0.94,0.1-1.94,0.31-3.02l0.68-3.85h9.36l-0.31,1.72
					c-0.14,0.87-0.21,1.75-0.21,2.65c0,0.9,0.23,1.65,0.68,2.24c0.69,0.87,1.84,1.3,3.43,1.3c1.59,0,2.89-0.43,3.87-1.3
					c0.99-0.87,1.69-2.46,2.11-4.78l4.26-24.08h9.31l-4.37,24.8c-0.8,4.61-2.53,8-5.2,10.17C21.2,53.64,17.4,54.73,12.48,54.73z"/>
				<path class="st1" d="M45.24,47.34c0.8,0,1.51-0.17,2.13-0.52l-0.26,5.88c-1.63,1.35-3.48,2.03-5.56,2.03
					c-3.15,0-5.2-0.73-6.14-2.18c-0.62-0.97-0.94-2-0.94-3.09s0.07-2.05,0.21-2.89l3.12-17.58h8.84l-2.91,16.38
					c-0.03,0.21-0.05,0.4-0.05,0.57C43.68,46.88,44.2,47.34,45.24,47.34z M38.84,20.51c0-2.22,0.49-3.84,1.48-4.86
					c0.99-1.02,2.52-1.53,4.6-1.53c2.91,0,4.37,1.28,4.37,3.85c0,2.18-0.49,3.78-1.48,4.78c-0.99,1.01-2.54,1.51-4.65,1.51
					C40.28,24.26,38.84,23.01,38.84,20.51z"/>
				<path class="st1" d="M67.55,38.04c0-1.49-0.72-2.24-2.16-2.24c-1.44,0-2.63,0.54-3.56,1.61L58.91,54h-8.84l4.42-25.01h8.22
					l-0.57,3.07c2.04-2.53,4.63-3.8,7.75-3.8s5.15,0.76,6.08,2.29c0.59,0.97,0.88,2.08,0.88,3.33s-0.09,2.41-0.26,3.48l-1.4,8.01
					c-0.04,0.21-0.05,0.4-0.05,0.57c0,0.94,0.52,1.4,1.56,1.4c0.8,0,1.51-0.17,2.13-0.52l-0.26,5.88c-1.63,1.35-3.48,2.03-5.56,2.03
					c-4.71,0-7.07-1.98-7.07-5.93c0-0.69,0.07-1.44,0.21-2.24l1.25-6.92C67.49,39.02,67.55,38.49,67.55,38.04z"/>
				<path class="st1" d="M99.81,65.28c-2.72,2.56-5.83,3.85-9.33,3.85c-3.5,0-6.02-0.64-7.57-1.92c-1.54-1.28-2.31-2.96-2.31-5.04
					c0-3.05,1.94-5.7,5.82-7.96C83.47,53.27,82,51.04,82,47.5c0-0.87,0.09-1.82,0.26-2.86l1.04-6.08c0.55-3.12,1.84-5.61,3.85-7.46
					c2.01-1.85,4.62-2.78,7.83-2.78c3.21,0,5.4,0.78,6.58,2.34l0.31-1.66h7.75l-4.58,25.84C104.28,59.23,102.53,62.72,99.81,65.28z
					 M91.67,61.7c2.25,0,3.73-2.05,4.42-6.14l0.52-3.02c-4.82,2.25-7.23,4.52-7.23,6.81c0,0.69,0.2,1.26,0.6,1.69
					S90.95,61.7,91.67,61.7z M91.31,43.5c-0.07,0.31-0.1,0.75-0.1,1.3c0,0.55,0.26,1.1,0.78,1.64c0.52,0.54,1.39,0.81,2.63,0.81
					c1.23,0,2.3-0.49,3.2-1.46l1.56-8.74c-0.49-0.87-1.4-1.3-2.76-1.3s-2.41,0.35-3.17,1.04c-0.76,0.69-1.25,1.63-1.46,2.81
					L91.31,43.5z"/>
				<path class="st1" d="M121.05,45.99c0,0.9,0.46,1.35,1.38,1.35c0.92,0,1.69-0.17,2.31-0.52l-0.26,5.88
					c-1.66,1.35-3.54,2.03-5.62,2.03c-3.15,0-5.2-0.73-6.13-2.18c-0.59-0.94-0.88-1.96-0.88-3.07c0-1.11,0.07-2.08,0.21-2.91
					l5.67-32.03h8.84l-5.46,30.84C121.07,45.58,121.05,45.78,121.05,45.99z"/>
				<path class="st1" d="M138.73,54.73c-7.21,0-10.82-2.5-10.82-7.49c0-0.69,0.07-1.44,0.21-2.24l1.09-6.45
					c0.59-3.33,2.12-5.88,4.6-7.67c2.48-1.79,5.76-2.68,9.85-2.68c6.97,0,10.45,2.63,10.45,7.9c0,0.76-0.07,1.59-0.21,2.5
					l-0.62,3.69h-15.86l-0.21,1.2c-0.07,0.42-0.1,0.8-0.1,1.14c0,1.91,1.13,2.86,3.38,2.86c0.83,0,1.54-0.26,2.13-0.78
					c0.59-0.52,0.94-1.13,1.04-1.82l8.63,0.1C151.16,51.49,146.64,54.73,138.73,54.73z M144.97,39.13c0.14-0.59,0.21-1.13,0.21-1.64
					c0-0.5-0.23-1.01-0.68-1.53c-0.45-0.52-1.17-0.78-2.16-0.78c-0.99,0-1.89,0.33-2.71,0.99c-0.81,0.66-1.38,1.65-1.69,2.96H144.97
					z"/>
			</g>
		</g>
		<circle id="Ellipse_80" class="st2" cx="45.11" cy="19.1" r="8.53"/>
	</g>
	<g id="Group_779" transform="translate(88.585 24.627)">
		<path id="Polygon_17" class="st3" d="M25.62,77.07L9.44,36.6h32.37L25.62,77.07z"/>
		<circle id="Ellipse_79" class="st4" cx="25.65" cy="25.9" r="2.83"/>
		<g id="Group_751" transform="translate(0)">
			<path id="Union_26" class="st5" d="M25.55,36.89c-1.95,0-25.99,0.02-25.55,0c0.25-0.01,0.23-3.54,4.16-6.8
				c0.4-3.91,1.95-24.22,21.33-24.37h0.21c19.52,0.15,20.95,20.75,21.34,24.45c3.82,3.24,3.81,6.71,4.06,6.72
				c0.15,0.01-2.65,0.01-6.45,0.01C37.51,36.9,26.83,36.89,25.55,36.89z"/>
			<circle id="Ellipse_76" class="st6" cx="25.65" cy="2.83" r="2.83"/>
			<ellipse id="Ellipse_77" class="st7" cx="25.65" cy="8.9" rx="14.97" ry="4.45"/>
			<circle id="Ellipse_78" class="st7" cx="13.91" cy="17.4" r="3.24"/>
		</g>
	</g>
	<circle id="Ellipse_90" class="st8" cx="76.7" cy="120.03" r="5.69"/>
</g>
</svg>
