<svg width="375" height="353" viewBox="0 0 375 353" fill="none" xmlns="http://www.w3.org/2000/svg">
<g clip-path="url(#clip0)">
<path d="M196.854 11.5459C219.56 -41.4771 -252.767 66.6592 -346.007 121.16C-368.09 134.068 -408.207 151.467 -388.576 158.851C-346.23 174.779 -6.17278 104.821 40.4293 104.851C87.0314 104.882 -29.4342 158.86 40.4554 179.367C110.345 199.874 236.622 176.562 259.906 202.721C283.189 228.881 189.961 265.194 211.994 328.864C234.027 392.534 597.061 317.694 728.347 251.908C888.327 171.743 769.362 162.63 562.082 197.731C354.803 232.833 453.31 187.086 467.084 77.0008C473.483 25.8557 121.001 188.678 196.854 11.5459Z" fill="#FFEFE9"/>
</g>
<defs>
<clipPath id="clip0">
<rect width="375" height="353" fill="white"/>
</clipPath>
</defs>
</svg>
