<?xml version="1.0" encoding="utf-8"?>
<!-- Generator: Adobe Illustrator 23.0.4, SVG Export Plug-In . SVG Version: 6.00 Build 0)  -->
<svg version="1.1" id="Layer_1" xmlns="http://www.w3.org/2000/svg" xmlns:xlink="http://www.w3.org/1999/xlink" x="0px" y="0px"
	 viewBox="0 0 152 315" style="enable-background:new 0 0 152 315;" xml:space="preserve">
<style type="text/css">
	.st0{enable-background:new    ;}
	.st1{fill:#3E3232;}
</style>
<g id="Group_781" transform="translate(-41 -440)">
	<g class="st0">
		<path class="st1" d="M63.43,449.96L59.4,473h-5.79l1.47-8.32h-6.24L47.4,473h-5.79l4.06-23.04h5.76l-1.73,9.73h6.24l1.73-9.73
			H63.43z"/>
		<path class="st1" d="M70.63,473.45c-4.44,0-6.66-1.54-6.66-4.61c0-0.43,0.04-0.88,0.13-1.38l0.67-3.97
			c0.36-2.05,1.31-3.62,2.83-4.72c1.52-1.1,3.55-1.65,6.06-1.65c4.29,0,6.43,1.62,6.43,4.86c0,0.47-0.04,0.98-0.13,1.54l-0.38,2.27
			h-9.76l-0.13,0.74c-0.04,0.26-0.06,0.49-0.06,0.7c0,1.17,0.69,1.76,2.08,1.76c0.51,0,0.95-0.16,1.31-0.48
			c0.36-0.32,0.58-0.69,0.64-1.12l5.31,0.06C78.28,471.45,75.5,473.45,70.63,473.45z M74.47,463.85c0.08-0.36,0.13-0.7,0.13-1.01
			c0-0.31-0.14-0.62-0.42-0.94c-0.28-0.32-0.72-0.48-1.33-0.48s-1.16,0.2-1.66,0.61c-0.5,0.41-0.85,1.01-1.04,1.82H74.47z"/>
		<path class="st1" d="M97,468.07c0,0.55,0.28,0.83,0.85,0.83c0.56,0,1.04-0.11,1.42-0.32l-0.16,3.62
			c-1.02,0.83-2.18,1.25-3.46,1.25c-2.35,0-3.65-0.85-3.9-2.56c-1.07,1.71-2.63,2.56-4.7,2.56c-3.5,0-5.25-1.5-5.25-4.51
			c0-0.51,0.05-1.08,0.16-1.7l0.67-3.74c0.34-1.92,1.12-3.45,2.35-4.59s2.83-1.71,4.8-1.71c1.97,0,3.31,0.46,4.02,1.38l0.16-0.96
			h4.86l-1.79,10.08C97.01,467.82,97,467.94,97,468.07z M87.53,466.54c-0.04,0.19-0.06,0.46-0.06,0.8c0,0.34,0.16,0.68,0.48,1.01
			c0.32,0.33,0.86,0.5,1.62,0.5c0.76,0,1.41-0.3,1.97-0.9l0.96-5.38c-0.24-0.53-0.79-0.8-1.66-0.8c-1.64,0-2.6,0.79-2.88,2.37
			L87.53,466.54z"/>
		<path class="st1" d="M116.42,468.07c0,0.55,0.28,0.83,0.85,0.83c0.56,0,1.04-0.11,1.42-0.32l-0.16,3.62
			c-1.02,0.83-2.18,1.25-3.46,1.25c-2.35,0-3.65-0.85-3.9-2.56c-1.07,1.71-2.63,2.56-4.7,2.56c-3.5,0-5.25-1.5-5.25-4.51
			c0-0.51,0.05-1.08,0.16-1.7l0.67-3.74c0.34-1.92,1.12-3.45,2.35-4.59s2.93-1.71,5.1-1.71c1.34,0,2.41,0.29,3.2,0.86l1.63-9.34
			h5.47l-3.36,18.98C116.43,467.82,116.42,467.94,116.42,468.07z M106.95,466.54c-0.04,0.19-0.06,0.46-0.06,0.8
			c0,0.34,0.16,0.68,0.48,1.01c0.32,0.33,0.86,0.5,1.62,0.5c0.76,0,1.41-0.3,1.97-0.9l0.96-5.38c-0.24-0.53-0.79-0.8-1.66-0.8
			c-1.64,0-2.6,0.79-2.88,2.37L106.95,466.54z"/>
		<path class="st1" d="M128.2,468.9c0.49,0,0.93-0.11,1.31-0.32l-0.16,3.62c-1,0.83-2.14,1.25-3.42,1.25c-1.94,0-3.2-0.45-3.78-1.34
			c-0.38-0.6-0.58-1.23-0.58-1.9s0.04-1.26,0.13-1.78l1.92-10.82h5.44l-1.79,10.08c-0.02,0.13-0.03,0.25-0.03,0.35
			C127.24,468.62,127.56,468.9,128.2,468.9z M124.26,452.39c0-1.36,0.3-2.36,0.91-2.99s1.55-0.94,2.83-0.94
			c1.79,0,2.69,0.79,2.69,2.37c0,1.34-0.3,2.33-0.91,2.94c-0.61,0.62-1.56,0.93-2.87,0.93C125.15,454.7,124.26,453.93,124.26,452.39
			z"/>
		<path class="st1" d="M141.93,463.18c0-0.92-0.44-1.38-1.33-1.38s-1.62,0.33-2.19,0.99L136.61,473h-5.44l2.72-15.39h5.06
			l-0.35,1.89c1.26-1.56,2.85-2.34,4.77-2.34c1.92,0,3.17,0.47,3.74,1.41c0.36,0.6,0.54,1.28,0.54,2.05c0,0.77-0.05,1.48-0.16,2.14
			l-0.86,4.93c-0.02,0.13-0.03,0.25-0.03,0.35c0,0.58,0.32,0.86,0.96,0.86c0.49,0,0.93-0.11,1.31-0.32l-0.16,3.62
			c-1,0.83-2.14,1.25-3.42,1.25c-2.9,0-4.35-1.22-4.35-3.65c0-0.43,0.04-0.88,0.13-1.38l0.77-4.26
			C141.89,463.78,141.93,463.45,141.93,463.18z"/>
		<path class="st1" d="M161.78,479.94c-1.67,1.58-3.59,2.37-5.74,2.37c-2.16,0-3.71-0.39-4.66-1.18c-0.95-0.79-1.42-1.82-1.42-3.1
			c0-1.88,1.19-3.51,3.58-4.9c-1.81-0.58-2.72-1.95-2.72-4.13c0-0.53,0.05-1.12,0.16-1.76l0.64-3.74c0.34-1.92,1.13-3.45,2.37-4.59
			c1.24-1.14,2.84-1.71,4.82-1.71s3.32,0.48,4.05,1.44l0.19-1.02h4.77l-2.82,15.9C164.53,476.22,163.46,478.37,161.78,479.94z
			 M156.77,477.74c1.39,0,2.29-1.26,2.72-3.78l0.32-1.86c-2.97,1.39-4.45,2.78-4.45,4.19c0,0.43,0.12,0.77,0.37,1.04
			C155.98,477.6,156.33,477.74,156.77,477.74z M156.55,466.54c-0.04,0.19-0.06,0.46-0.06,0.8c0,0.34,0.16,0.68,0.48,1.01
			c0.32,0.33,0.86,0.5,1.62,0.5c0.76,0,1.41-0.3,1.97-0.9l0.96-5.38c-0.3-0.53-0.86-0.8-1.7-0.8s-1.48,0.21-1.95,0.64
			c-0.47,0.43-0.77,1-0.9,1.73L156.55,466.54z"/>
		<path class="st1" d="M188.33,473h-5.79l2.72-15.36c-0.51,0.83-1.45,1.63-2.82,2.4s-2.79,1.15-4.29,1.15l-0.42-5.38
			c2.01,0,3.88-0.61,5.63-1.84c1.75-1.23,2.83-2.56,3.23-4.02h5.76L188.33,473z"/>
	</g>
	<g class="st0">
		<path class="st1" d="M45.2,511.9c0,0.92,0.66,1.38,1.99,1.38s1.99-0.41,1.99-1.24c0-0.44-0.23-0.8-0.68-1.08
			c-0.45-0.28-1-0.51-1.65-0.7c-0.65-0.19-1.29-0.4-1.94-0.65c-0.65-0.25-1.2-0.63-1.65-1.16s-0.68-1.18-0.68-1.97
			c0-3.35,2.15-5.02,6.46-5.02c1.57,0,2.76,0.3,3.57,0.89c0.81,0.59,1.21,1.42,1.21,2.47c0,0.39-0.05,0.76-0.15,1.11
			c-0.1,0.35-0.2,0.6-0.31,0.75l-0.16,0.24h-3.54c0.29-0.31,0.44-0.69,0.44-1.16c0-0.87-0.57-1.3-1.7-1.3
			c-1.43,0-2.14,0.45-2.14,1.36c0,0.45,0.23,0.81,0.68,1.08c0.45,0.27,1,0.48,1.65,0.63s1.3,0.34,1.95,0.57
			c0.65,0.23,1.21,0.6,1.66,1.13c0.45,0.53,0.68,1.21,0.68,2.05c0,1.69-0.51,2.95-1.52,3.77c-1.01,0.82-2.57,1.23-4.68,1.23
			c-2.11,0-3.55-0.37-4.32-1.12c-0.57-0.56-0.86-1.33-0.86-2.32c0-0.37,0.04-0.78,0.12-1.22l0.06-0.32h3.6l-0.04,0.24
			C45.21,511.67,45.2,511.79,45.2,511.9z"/>
		<path class="st1" d="M58.52,516.28c-2.77,0-4.16-0.96-4.16-2.88c0-0.27,0.03-0.55,0.08-0.86l0.42-2.48
			c0.21-1.28,0.8-2.26,1.75-2.94s2.16-1.03,3.63-1.04c2.84,0,4.26,0.99,4.26,2.96c0,0.43-0.05,0.81-0.15,1.15
			c-0.1,0.34-0.2,0.57-0.31,0.69l-0.16,0.2h-3.4c0.33-0.29,0.5-0.64,0.5-1.04c0-0.72-0.36-1.08-1.08-1.08
			c-0.43,0-0.79,0.13-1.1,0.38c-0.31,0.25-0.51,0.64-0.6,1.16l-0.26,1.46c-0.03,0.13-0.04,0.26-0.04,0.38
			c0,0.71,0.44,1.06,1.32,1.06c0.29,0,0.56-0.09,0.79-0.28c0.23-0.19,0.37-0.39,0.41-0.62l3.32,0.04
			C63.3,515.03,61.56,516.28,58.52,516.28z"/>
		<path class="st1" d="M75.26,508.42c0,0.45-0.08,0.89-0.23,1.32c-0.15,0.43-0.3,0.74-0.45,0.94l-0.22,0.28h-3.02
			c0.33-0.31,0.5-0.69,0.5-1.14c0-0.24-0.08-0.44-0.23-0.59c-0.15-0.15-0.36-0.23-0.63-0.23c-0.45,0-0.85,0.23-1.18,0.68L68.68,516
			h-3.4l1.7-9.62h3.16l-0.24,1.34c0.76-1.08,1.68-1.62,2.76-1.62c0.87,0,1.52,0.21,1.95,0.62C75.04,507.13,75.26,507.7,75.26,508.42
			z"/>
		<path class="st1" d="M79.96,516.28c-2.77,0-4.16-0.96-4.16-2.88c0-0.27,0.03-0.55,0.08-0.86l0.42-2.48
			c0.23-1.28,0.82-2.26,1.77-2.95s2.22-1.03,3.79-1.03c2.68,0,4.02,1.01,4.02,3.04c0,0.29-0.03,0.61-0.08,0.96l-0.24,1.42h-6.1
			l-0.08,0.46c-0.03,0.16-0.04,0.31-0.04,0.44c0,0.73,0.43,1.1,1.3,1.1c0.32,0,0.59-0.1,0.82-0.3c0.23-0.2,0.36-0.43,0.4-0.7
			l3.32,0.04C84.74,515.03,83,516.28,79.96,516.28z M82.36,510.28c0.05-0.23,0.08-0.44,0.08-0.63s-0.09-0.39-0.26-0.59
			c-0.17-0.2-0.45-0.3-0.83-0.3s-0.73,0.13-1.04,0.38c-0.31,0.25-0.53,0.63-0.65,1.14H82.36z"/>
		<path class="st1" d="M91.08,516.28c-2.77,0-4.16-0.96-4.16-2.88c0-0.27,0.03-0.55,0.08-0.86l0.42-2.48
			c0.23-1.28,0.82-2.26,1.77-2.95s2.22-1.03,3.79-1.03c2.68,0,4.02,1.01,4.02,3.04c0,0.29-0.03,0.61-0.08,0.96l-0.24,1.42h-6.1
			l-0.08,0.46c-0.03,0.16-0.04,0.31-0.04,0.44c0,0.73,0.43,1.1,1.3,1.1c0.32,0,0.59-0.1,0.82-0.3c0.23-0.2,0.36-0.43,0.4-0.7
			l3.32,0.04C95.86,515.03,94.12,516.28,91.08,516.28z M93.48,510.28c0.05-0.23,0.08-0.44,0.08-0.63s-0.09-0.39-0.26-0.59
			c-0.17-0.2-0.45-0.3-0.83-0.3s-0.73,0.13-1.04,0.38c-0.31,0.25-0.53,0.63-0.65,1.14H93.48z"/>
		<path class="st1" d="M104.6,509.86c0-0.57-0.28-0.86-0.83-0.86s-1.01,0.21-1.37,0.62l-1.12,6.38h-3.4l1.7-9.62h3.16l-0.22,1.18
			c0.79-0.97,1.78-1.46,2.98-1.46c1.2,0,1.98,0.29,2.34,0.88c0.23,0.37,0.34,0.8,0.34,1.28c0,0.48-0.03,0.93-0.1,1.34l-0.54,3.08
			c-0.01,0.08-0.02,0.15-0.02,0.22c0,0.36,0.2,0.54,0.6,0.54c0.31,0,0.58-0.07,0.82-0.2l-0.1,2.26c-0.63,0.52-1.34,0.78-2.14,0.78
			c-1.81,0-2.72-0.76-2.72-2.28c0-0.27,0.03-0.55,0.08-0.86l0.48-2.66C104.58,510.24,104.6,510.03,104.6,509.86z"/>
		<path class="st1" d="M119.36,516.28c-1.55,0-2.66-0.35-3.34-1.04c-0.51-0.51-0.76-1.19-0.76-2.04c0-0.28,0.03-0.58,0.08-0.9
			l1.36-7.74l3.66-1.52l-0.58,3.34h5.52l-0.5,2.82h-5.52l-0.4,2.26c-0.05,0.25-0.08,0.48-0.08,0.68c0,0.84,0.4,1.26,1.2,1.26
			c0.43,0,0.78-0.18,1.07-0.54c0.29-0.36,0.48-0.84,0.59-1.44h3.32C124.42,514.66,122.54,516.28,119.36,516.28z"/>
		<path class="st1" d="M130.36,513.44c0.31,0,0.58-0.07,0.82-0.2l-0.1,2.26c-0.63,0.52-1.34,0.78-2.14,0.78
			c-1.21,0-2-0.28-2.36-0.84c-0.24-0.37-0.36-0.77-0.36-1.19s0.03-0.79,0.08-1.11l1.2-6.76h3.4l-1.12,6.3
			c-0.01,0.08-0.02,0.15-0.02,0.22C129.76,513.26,129.96,513.44,130.36,513.44z M127.9,503.12c0-0.85,0.19-1.48,0.57-1.87
			s0.97-0.59,1.77-0.59c1.12,0,1.68,0.49,1.68,1.48c0,0.84-0.19,1.45-0.57,1.84s-0.98,0.58-1.79,0.58
			C128.45,504.56,127.9,504.08,127.9,503.12z"/>
		<path class="st1" d="M136.76,516.28c-1.55,0-2.66-0.35-3.34-1.04c-0.51-0.51-0.76-1.19-0.76-2.04c0-0.28,0.03-0.58,0.08-0.9
			l1.36-7.74l3.66-1.52l-0.58,3.34h5.52l-0.5,2.82h-5.52l-0.4,2.26c-0.05,0.25-0.08,0.48-0.08,0.68c0,0.84,0.4,1.26,1.2,1.26
			c0.43,0,0.78-0.18,1.07-0.54c0.29-0.36,0.48-0.84,0.59-1.44h3.32C141.82,514.66,139.95,516.28,136.76,516.28z"/>
		<path class="st1" d="M147.26,512.92c0,0.35,0.18,0.52,0.53,0.52c0.35,0,0.65-0.07,0.89-0.2l-0.1,2.26
			c-0.64,0.52-1.36,0.78-2.16,0.78c-1.21,0-2-0.28-2.36-0.84c-0.23-0.36-0.34-0.75-0.34-1.18s0.03-0.8,0.08-1.12l2.18-12.32h3.4
			l-2.1,11.86C147.26,512.76,147.26,512.84,147.26,512.92z"/>
		<path class="st1" d="M154.04,516.28c-2.77,0-4.16-0.96-4.16-2.88c0-0.27,0.03-0.55,0.08-0.86l0.42-2.48
			c0.23-1.28,0.82-2.26,1.77-2.95s2.22-1.03,3.79-1.03c2.68,0,4.02,1.01,4.02,3.04c0,0.29-0.03,0.61-0.08,0.96l-0.24,1.42h-6.1
			l-0.08,0.46c-0.03,0.16-0.04,0.31-0.04,0.44c0,0.73,0.43,1.1,1.3,1.1c0.32,0,0.59-0.1,0.82-0.3c0.23-0.2,0.36-0.43,0.4-0.7
			l3.32,0.04C158.82,515.03,157.08,516.28,154.04,516.28z M156.44,510.28c0.05-0.23,0.08-0.44,0.08-0.63s-0.09-0.39-0.26-0.59
			c-0.17-0.2-0.45-0.3-0.83-0.3c-0.38,0-0.73,0.13-1.04,0.38c-0.31,0.25-0.53,0.63-0.65,1.14H156.44z"/>
	</g>
	<g class="st0">
		<path class="st1" d="M46.91,547.83v7.59h7.92v-7.59h3.3V566h-3.3v-7.7h-7.92v7.7h-3.3v-18.17H46.91z"/>
		<path class="st1" d="M73.91,556.09c0.23,0.78,0.35,1.5,0.35,2.16s-0.04,1.24-0.11,1.76h-8.79c0.04,1.1,0.31,2,0.81,2.69
			c0.5,0.69,1.27,1.04,2.3,1.04c1.36,0,2.17-0.6,2.44-1.79h3.33c-0.22,1.36-0.85,2.44-1.88,3.22c-1.06,0.82-2.36,1.23-3.89,1.23
			c-1.79,0-3.29-0.65-4.51-1.96c-1.25-1.36-1.88-3.11-1.88-5.24c0-2.18,0.63-3.94,1.88-5.26c1.19-1.27,2.7-1.9,4.51-1.9
			c1.88,0,3.35,0.66,4.4,1.99C73.33,554.61,73.68,555.3,73.91,556.09z M68.5,554.66c-0.93,0-1.66,0.3-2.18,0.91
			c-0.52,0.61-0.83,1.39-0.92,2.34h5.8c0-1.47-0.47-2.46-1.4-2.97C69.43,554.75,69,554.66,68.5,554.66z"/>
		<path class="st1" d="M82.69,558.05c1.08,0,2.33,0.18,3.75,0.53v-1.34c0-0.95-0.19-1.66-0.57-2.11c-0.38-0.46-1.01-0.69-1.88-0.69
			c-0.87,0-1.54,0.17-2,0.52s-0.7,0.84-0.7,1.47h-3.61c0-1.55,0.55-2.67,1.64-3.36s2.62-1.04,4.58-1.04c2.8,0,4.61,0.98,5.43,2.94
			c0.28,0.67,0.42,1.47,0.42,2.38V566h-2.88l-0.25-1.82c-0.88,1.48-2.22,2.21-4.03,2.21c-1.75,0-3.12-0.43-4.09-1.29
			c-0.9-0.82-1.34-1.86-1.34-3.12c0-1.26,0.49-2.23,1.48-2.91C79.62,558.39,80.97,558.05,82.69,558.05z M86.44,560.68
			c-1.1-0.3-2.13-0.45-3.08-0.45c-1.79,0-2.69,0.6-2.69,1.79c0,0.5,0.21,0.94,0.62,1.3c0.41,0.36,1.07,0.55,1.97,0.55
			c0.9,0,1.65-0.3,2.24-0.91S86.41,561.59,86.44,560.68z"/>
		<path class="st1" d="M103.44,563.9c-0.84,1.66-2.13,2.49-3.86,2.49c-1.74,0-3.19-0.66-4.37-1.99c-1.21-1.38-1.82-3.14-1.82-5.26
			s0.58-3.85,1.74-5.18c1.14-1.29,2.56-1.93,4.26-1.93c1.7,0,2.98,0.68,3.84,2.04v-7.28h3.33V566h-2.72L103.44,563.9z M100,555
			c-0.93,0-1.71,0.38-2.34,1.13c-0.63,0.76-0.94,1.77-0.94,3.04s0.32,2.29,0.95,3.07c0.63,0.77,1.44,1.16,2.41,1.16
			c0.8,0,1.52-0.32,2.16-0.95c0.65-0.65,0.98-1.47,0.98-2.46v-1.76c-0.04-0.97-0.36-1.76-0.98-2.38
			C101.68,555.28,100.93,555,100,555z"/>
		<path class="st1" d="M111.64,548c0-0.6,0.18-1.07,0.53-1.41c0.35-0.35,0.86-0.52,1.51-0.52c0.63,0,1.13,0.17,1.5,0.52
			c0.36,0.35,0.55,0.82,0.55,1.41s-0.18,1.07-0.55,1.41c-0.36,0.35-0.86,0.52-1.5,0.52c-0.65,0-1.16-0.17-1.51-0.52
			C111.82,549.06,111.64,548.59,111.64,548z M112.04,552.36h3.3V566h-3.3V552.36z"/>
		<path class="st1" d="M124.19,554.74c0.9-1.81,2.33-2.72,4.31-2.72c1.68,0,2.94,0.55,3.79,1.65c0.85,1.1,1.27,2.56,1.27,4.37V566
			h-3.3v-7.95c0-1.01-0.24-1.77-0.73-2.28c-0.49-0.51-1.17-0.77-2.04-0.77s-1.63,0.39-2.25,1.18s-0.96,1.96-0.99,3.53v6.3h-3.3
			v-13.61h2.88L124.19,554.74z"/>
		<path class="st1" d="M139.56,560.43c-1.1-0.93-1.65-2.1-1.65-3.5c0-1.47,0.58-2.67,1.74-3.58c1.12-0.88,2.4-1.32,3.85-1.32
			c1.45,0,2.66,0.27,3.63,0.81c0.11-1.06,0.57-1.92,1.37-2.58c0.79-0.65,1.71-0.98,2.77-0.98l-0.17,3.16c-1.61,0-2.44,0.53-2.49,1.6
			c0.69,0.86,1.04,1.74,1.04,2.63c0,0.9-0.16,1.65-0.48,2.25c-0.32,0.61-0.75,1.12-1.29,1.53c-1.12,0.9-2.48,1.34-4.09,1.34
			c-0.92,0-1.75-0.14-2.49-0.42c-0.75,0.22-1.12,0.67-1.12,1.34c0,0.84,0.71,1.26,2.13,1.26h4.56c3.1,0,4.65,1.08,4.65,3.25
			c0,0.73-0.18,1.44-0.55,2.14c-0.36,0.7-0.89,1.32-1.58,1.86c-1.53,1.19-3.45,1.79-5.77,1.79c-2.24,0-4.06-0.46-5.46-1.37
			c-1.31-0.88-1.96-1.95-1.96-3.22c0-0.84,0.26-1.51,0.77-2c0.51-0.49,1.19-0.81,2.03-0.94c-1.1-0.67-1.65-1.5-1.65-2.49
			c0-0.65,0.21-1.2,0.62-1.64C138.37,560.93,138.91,560.62,139.56,560.43z M142.08,566.31c-1.75,0.08-2.63,0.74-2.63,1.99
			c0,0.63,0.37,1.14,1.11,1.53c0.74,0.38,1.61,0.57,2.62,0.57c1.01,0,1.8-0.08,2.37-0.25c0.57-0.17,1.05-0.39,1.44-0.67
			c0.84-0.56,1.26-1.23,1.26-2.02c0-0.34-0.12-0.61-0.35-0.83s-0.57-0.32-1.02-0.32H142.08z M146.36,556.89
			c0-0.76-0.21-1.37-0.63-1.85c-0.42-0.48-1.06-0.71-1.92-0.71c-0.86,0-1.51,0.24-1.96,0.71c-0.45,0.48-0.67,1.09-0.67,1.85
			s0.22,1.38,0.67,1.86c0.45,0.49,1.1,0.73,1.96,0.73c0.86,0,1.5-0.24,1.92-0.73S146.36,557.64,146.36,556.89z"/>
		<path class="st1" d="M164.14,562.98h10.39V566h-13.69v-3.11c0-2.18,0.78-3.77,2.32-4.76c0.52-0.34,1.13-0.63,1.82-0.9l3.72-1.43
			c0.82-0.32,1.42-0.71,1.81-1.19c0.38-0.48,0.57-1.07,0.57-1.78c0-0.71-0.25-1.3-0.76-1.78c-0.5-0.48-1.22-0.71-2.16-0.71
			s-1.7,0.22-2.31,0.67c-0.61,0.45-0.96,1.11-1.05,1.99h-3.67c0.04-1.77,0.72-3.16,2.04-4.17c1.21-0.91,2.85-1.37,4.9-1.37
			c1.89,0,3.44,0.5,4.68,1.51c1.25,1.05,1.88,2.32,1.88,3.84c0,1.51-0.38,2.72-1.13,3.63s-1.93,1.67-3.51,2.28l-3.78,1.46
			c-0.73,0.28-1.26,0.59-1.58,0.94c-0.33,0.35-0.49,0.79-0.49,1.33V562.98z"/>
	</g>
	<g class="st0">
		<path class="st1" d="M46.06,595.42v6.5h6.79v-6.5h2.83V611h-2.83v-6.6h-6.79v6.6h-2.83v-15.58H46.06z"/>
		<path class="st1" d="M69.21,602.5c0.2,0.67,0.3,1.29,0.3,1.85c0,0.56-0.03,1.06-0.1,1.51h-7.54c0.03,0.94,0.26,1.71,0.7,2.3
			c0.43,0.59,1.09,0.89,1.97,0.89c1.17,0,1.86-0.51,2.09-1.54h2.86c-0.19,1.17-0.73,2.09-1.61,2.76c-0.91,0.7-2.02,1.06-3.34,1.06
			c-1.54,0-2.82-0.56-3.86-1.68c-1.07-1.17-1.61-2.66-1.61-4.49c0-1.87,0.54-3.38,1.61-4.51c1.02-1.09,2.31-1.63,3.86-1.63
			c1.62,0,2.87,0.57,3.77,1.7C68.71,601.24,69.01,601.83,69.21,602.5z M64.57,601.28c-0.8,0-1.42,0.26-1.87,0.78
			c-0.45,0.52-0.71,1.19-0.79,2h4.97c0-1.26-0.4-2.11-1.2-2.54C65.37,601.36,65,601.28,64.57,601.28z"/>
		<path class="st1" d="M76.74,604.18c0.93,0,2,0.15,3.22,0.46v-1.15c0-0.82-0.16-1.42-0.49-1.81c-0.33-0.39-0.86-0.59-1.61-0.59
			s-1.32,0.15-1.72,0.44c-0.4,0.3-0.6,0.72-0.6,1.26h-3.1c0-1.33,0.47-2.29,1.4-2.88s2.24-0.89,3.92-0.89c2.4,0,3.95,0.84,4.66,2.52
			c0.24,0.58,0.36,1.26,0.36,2.04V611h-2.47l-0.22-1.56c-0.75,1.26-1.9,1.9-3.46,1.9c-1.5,0-2.67-0.37-3.5-1.1
			c-0.77-0.7-1.15-1.6-1.15-2.68s0.42-1.91,1.27-2.5C74.1,604.48,75.26,604.18,76.74,604.18z M79.95,606.44
			c-0.94-0.26-1.82-0.38-2.64-0.38c-1.54,0-2.3,0.51-2.3,1.54c0,0.43,0.18,0.8,0.53,1.12c0.35,0.31,0.92,0.47,1.69,0.47
			c0.78,0,1.42-0.26,1.92-0.78C79.65,607.88,79.92,607.22,79.95,606.44z"/>
		<path class="st1" d="M94.52,609.2c-0.72,1.42-1.82,2.14-3.31,2.14c-1.49,0-2.74-0.57-3.74-1.7c-1.04-1.18-1.56-2.69-1.56-4.51
			s0.5-3.3,1.49-4.44c0.98-1.1,2.19-1.66,3.65-1.66s2.55,0.58,3.29,1.75v-6.24h2.86V611h-2.33L94.52,609.2z M91.57,601.57
			c-0.8,0-1.47,0.32-2,0.97s-0.8,1.52-0.8,2.6c0,1.09,0.27,1.96,0.82,2.63s1.23,1,2.06,1c0.69,0,1.3-0.27,1.85-0.82
			c0.56-0.56,0.84-1.26,0.84-2.11v-1.51c-0.03-0.83-0.31-1.51-0.84-2.04C93.01,601.81,92.37,601.57,91.57,601.57z"/>
		<path class="st1" d="M101.55,595.57c0-0.51,0.15-0.92,0.46-1.21s0.74-0.44,1.3-0.44c0.54,0,0.97,0.15,1.28,0.44
			s0.47,0.7,0.47,1.21c0,0.51-0.16,0.92-0.47,1.21s-0.74,0.44-1.28,0.44c-0.56,0-0.99-0.15-1.3-0.44S101.55,596.08,101.55,595.57z
			 M101.89,599.31h2.83V611h-2.83V599.31z"/>
		<path class="st1" d="M112.3,601.35c0.77-1.55,2-2.33,3.7-2.33c1.44,0,2.52,0.47,3.25,1.42c0.73,0.94,1.09,2.19,1.09,3.74V611
			h-2.83v-6.82c0-0.86-0.21-1.52-0.62-1.96c-0.42-0.44-1-0.66-1.75-0.66c-0.75,0-1.4,0.34-1.93,1.01c-0.54,0.67-0.82,1.68-0.85,3.02
			v5.4h-2.83v-11.66h2.47L112.3,601.35z"/>
		<path class="st1" d="M125.48,606.22c-0.94-0.8-1.42-1.8-1.42-3c0-1.26,0.5-2.29,1.49-3.07c0.96-0.75,2.06-1.13,3.3-1.13
			c1.24,0,2.28,0.23,3.11,0.7c0.1-0.91,0.49-1.65,1.18-2.21c0.67-0.56,1.46-0.84,2.38-0.84l-0.14,2.71c-1.38,0-2.09,0.46-2.14,1.37
			c0.59,0.74,0.89,1.49,0.89,2.26c0,0.77-0.14,1.41-0.41,1.93c-0.27,0.52-0.64,0.96-1.1,1.31c-0.96,0.77-2.13,1.15-3.5,1.15
			c-0.78,0-1.5-0.12-2.14-0.36c-0.64,0.19-0.96,0.58-0.96,1.15c0,0.72,0.61,1.08,1.82,1.08h3.91c2.66,0,3.98,0.93,3.98,2.78
			c0,0.62-0.16,1.24-0.47,1.84c-0.31,0.6-0.76,1.13-1.36,1.6c-1.31,1.02-2.96,1.54-4.94,1.54c-1.92,0-3.48-0.39-4.68-1.18
			c-1.12-0.75-1.68-1.67-1.68-2.76c0-0.72,0.22-1.29,0.66-1.72c0.44-0.42,1.02-0.69,1.74-0.8c-0.94-0.58-1.42-1.29-1.42-2.14
			c0-0.56,0.18-1.03,0.53-1.4S124.92,606.38,125.48,606.22z M127.64,611.26c-1.5,0.06-2.26,0.63-2.26,1.7
			c0,0.54,0.32,0.98,0.95,1.31c0.63,0.33,1.38,0.49,2.24,0.49s1.54-0.07,2.03-0.22c0.49-0.14,0.9-0.34,1.24-0.58
			c0.72-0.48,1.08-1.06,1.08-1.73c0-0.29-0.1-0.52-0.3-0.71c-0.2-0.18-0.49-0.28-0.88-0.28H127.64z M131.31,603.19
			c0-0.65-0.18-1.18-0.54-1.58c-0.36-0.41-0.91-0.61-1.64-0.61s-1.3,0.2-1.68,0.61c-0.38,0.41-0.58,0.94-0.58,1.58
			c0,0.65,0.19,1.18,0.58,1.6s0.94,0.62,1.68,0.62s1.28-0.21,1.64-0.62C131.13,604.37,131.31,603.84,131.31,603.19z"/>
		<path class="st1" d="M149.69,597.68c-1.74,0-2.76,0.66-3.05,1.99h-2.98c0.16-1.54,0.78-2.7,1.87-3.48
			c1.02-0.72,2.37-1.08,4.03-1.08c1.71,0,3.1,0.4,4.18,1.2c1.12,0.82,1.68,1.86,1.68,3.14c0,0.8-0.21,1.49-0.65,2.08
			s-1.07,1.02-1.92,1.31c0.94,0.32,1.7,0.8,2.27,1.43c0.57,0.63,0.85,1.36,0.85,2.17c0,0.82-0.15,1.51-0.44,2.09
			c-0.3,0.58-0.72,1.07-1.26,1.49c-1.15,0.88-2.65,1.32-4.49,1.32c-1.76,0-3.24-0.45-4.44-1.34c-1.34-0.98-2.02-2.27-2.02-3.89h3.02
			c0.05,0.82,0.38,1.46,1,1.92s1.42,0.7,2.41,0.7s1.76-0.22,2.32-0.66c0.55-0.44,0.83-1,0.83-1.68c0-0.68-0.25-1.21-0.76-1.6
			s-1.3-0.58-2.39-0.58h-2.06v-2.23h1.78c0.91,0,1.62-0.2,2.14-0.59c0.51-0.39,0.77-0.91,0.77-1.55c0-0.64-0.22-1.16-0.66-1.56
			C151.28,597.88,150.61,597.68,149.69,597.68z"/>
	</g>
	<g class="st0">
		<path class="st1" d="M45.22,638.02v5.42h5.66v-5.42h2.36V651h-2.36v-5.5h-5.66v5.5h-2.36v-12.98H45.22z"/>
		<path class="st1" d="M64.51,643.92c0.17,0.56,0.25,1.07,0.25,1.54s-0.03,0.89-0.08,1.26H58.4c0.03,0.79,0.22,1.43,0.58,1.92
			c0.36,0.49,0.91,0.74,1.64,0.74c0.97,0,1.55-0.43,1.74-1.28h2.38c-0.16,0.97-0.61,1.74-1.34,2.3c-0.76,0.59-1.69,0.88-2.78,0.88
			c-1.28,0-2.35-0.47-3.22-1.4c-0.89-0.97-1.34-2.22-1.34-3.74c0-1.56,0.45-2.81,1.34-3.76c0.85-0.91,1.93-1.36,3.22-1.36
			c1.35,0,2.39,0.47,3.14,1.42C64.09,642.87,64.34,643.36,64.51,643.92z M60.64,642.9c-0.67,0-1.19,0.22-1.56,0.65
			c-0.37,0.43-0.59,0.99-0.66,1.67h4.14c0-1.05-0.33-1.76-1-2.12C61.31,642.97,61,642.9,60.64,642.9z"/>
		<path class="st1" d="M70.78,645.32c0.77,0,1.67,0.13,2.68,0.38v-0.96c0-0.68-0.14-1.18-0.41-1.51c-0.27-0.33-0.72-0.49-1.34-0.49
			c-0.62,0-1.1,0.12-1.43,0.37c-0.33,0.25-0.5,0.6-0.5,1.05H67.2c0-1.11,0.39-1.91,1.17-2.4c0.78-0.49,1.87-0.74,3.27-0.74
			c2,0,3.29,0.7,3.88,2.1c0.2,0.48,0.3,1.05,0.3,1.7V651h-2.06l-0.18-1.3c-0.63,1.05-1.59,1.58-2.88,1.58
			c-1.25,0-2.23-0.31-2.92-0.92c-0.64-0.59-0.96-1.33-0.96-2.23c0-0.9,0.35-1.59,1.06-2.08C68.59,645.56,69.55,645.32,70.78,645.32z
			 M73.46,647.2c-0.79-0.21-1.52-0.32-2.2-0.32c-1.28,0-1.92,0.43-1.92,1.28c0,0.36,0.15,0.67,0.44,0.93
			c0.29,0.26,0.76,0.39,1.41,0.39c0.65,0,1.18-0.22,1.6-0.65C73.21,648.4,73.43,647.85,73.46,647.2z"/>
		<path class="st1" d="M85.6,649.5c-0.6,1.19-1.52,1.78-2.76,1.78c-1.24,0-2.28-0.47-3.12-1.42c-0.87-0.99-1.3-2.24-1.3-3.76
			c0-1.52,0.41-2.75,1.24-3.7c0.81-0.92,1.83-1.38,3.04-1.38s2.13,0.49,2.74,1.46v-5.2h2.38V651h-1.94L85.6,649.5z M83.14,643.14
			c-0.67,0-1.22,0.27-1.67,0.81s-0.67,1.26-0.67,2.17c0,0.91,0.23,1.64,0.68,2.19c0.45,0.55,1.03,0.83,1.72,0.83
			c0.57,0,1.09-0.23,1.54-0.68c0.47-0.47,0.7-1.05,0.7-1.76v-1.26c-0.03-0.69-0.26-1.26-0.7-1.7
			C84.34,643.34,83.81,643.14,83.14,643.14z"/>
		<path class="st1" d="M91.46,638.14c0-0.43,0.13-0.76,0.38-1.01c0.25-0.25,0.61-0.37,1.08-0.37c0.45,0,0.81,0.12,1.07,0.37
			c0.26,0.25,0.39,0.58,0.39,1.01c0,0.43-0.13,0.76-0.39,1.01c-0.26,0.25-0.62,0.37-1.07,0.37c-0.47,0-0.83-0.12-1.08-0.37
			C91.59,638.9,91.46,638.57,91.46,638.14z M91.74,641.26h2.36V651h-2.36V641.26z"/>
		<path class="st1" d="M100.42,642.96c0.64-1.29,1.67-1.94,3.08-1.94c1.2,0,2.1,0.39,2.71,1.18c0.61,0.79,0.91,1.83,0.91,3.12V651
			h-2.36v-5.68c0-0.72-0.17-1.26-0.52-1.63c-0.35-0.37-0.83-0.55-1.46-0.55c-0.63,0-1.16,0.28-1.61,0.84
			c-0.45,0.56-0.68,1.4-0.71,2.52v4.5H98.1v-9.72h2.06L100.42,642.96z"/>
		<path class="st1" d="M111.4,647.02c-0.79-0.67-1.18-1.5-1.18-2.5c0-1.05,0.41-1.91,1.24-2.56c0.8-0.63,1.72-0.94,2.75-0.94
			s1.9,0.19,2.59,0.58c0.08-0.76,0.41-1.37,0.98-1.84c0.56-0.47,1.22-0.7,1.98-0.7l-0.12,2.26c-1.15,0-1.74,0.38-1.78,1.14
			c0.49,0.61,0.74,1.24,0.74,1.88c0,0.64-0.11,1.18-0.34,1.61c-0.23,0.43-0.53,0.8-0.92,1.09c-0.8,0.64-1.77,0.96-2.92,0.96
			c-0.65,0-1.25-0.1-1.78-0.3c-0.53,0.16-0.8,0.48-0.8,0.96c0,0.6,0.51,0.9,1.52,0.9h3.26c2.21,0,3.32,0.77,3.32,2.32
			c0,0.52-0.13,1.03-0.39,1.53s-0.64,0.94-1.13,1.33c-1.09,0.85-2.47,1.28-4.12,1.28c-1.6,0-2.9-0.33-3.9-0.98
			c-0.93-0.63-1.4-1.39-1.4-2.3c0-0.6,0.18-1.08,0.55-1.43c0.37-0.35,0.85-0.58,1.45-0.67c-0.79-0.48-1.18-1.07-1.18-1.78
			c0-0.47,0.15-0.86,0.44-1.17C110.55,647.38,110.93,647.15,111.4,647.02z M113.2,651.22c-1.25,0.05-1.88,0.53-1.88,1.42
			c0,0.45,0.26,0.82,0.79,1.09c0.53,0.27,1.15,0.41,1.87,0.41c0.72,0,1.28-0.06,1.69-0.18c0.41-0.12,0.75-0.28,1.03-0.48
			c0.6-0.4,0.9-0.88,0.9-1.44c0-0.24-0.08-0.44-0.25-0.59c-0.17-0.15-0.41-0.23-0.73-0.23H113.2z M116.26,644.49
			c0-0.54-0.15-0.98-0.45-1.32c-0.3-0.34-0.76-0.51-1.37-0.51c-0.61,0-1.08,0.17-1.4,0.51c-0.32,0.34-0.48,0.78-0.48,1.32
			s0.16,0.98,0.48,1.33c0.32,0.35,0.79,0.52,1.4,0.52c0.61,0,1.07-0.17,1.37-0.52C116.11,645.47,116.26,645.03,116.26,644.49z"/>
		<path class="st1" d="M134.76,637.88v8.22h2.26v2.02h-2.26V651h-2.34v-2.88h-6.58v-1.78l6.64-8.46H134.76z M128.64,646.34h3.9
			v-4.96L128.64,646.34z"/>
	</g>
	<g class="st0">
		<path class="st1" d="M44.8,674.32v4.88h5.09v-4.88h2.12V686h-2.12v-4.95H44.8V686h-2.12v-11.68H44.8z"/>
		<path class="st1" d="M62.16,679.63c0.15,0.5,0.22,0.97,0.22,1.39c0,0.42-0.02,0.8-0.07,1.13h-5.65c0.02,0.71,0.2,1.28,0.52,1.73
			c0.32,0.44,0.82,0.67,1.48,0.67c0.88,0,1.4-0.38,1.57-1.15h2.14c-0.14,0.88-0.55,1.57-1.21,2.07c-0.68,0.53-1.52,0.79-2.5,0.79
			c-1.15,0-2.12-0.42-2.9-1.26c-0.8-0.88-1.21-2-1.21-3.37c0-1.4,0.4-2.53,1.21-3.38c0.77-0.82,1.73-1.22,2.9-1.22
			c1.21,0,2.15,0.43,2.83,1.28C61.78,678.68,62.01,679.12,62.16,679.63z M58.68,678.71c-0.6,0-1.07,0.2-1.4,0.58
			c-0.34,0.39-0.53,0.89-0.59,1.5h3.73c0-0.95-0.3-1.58-0.9-1.91C59.28,678.77,59,678.71,58.68,678.71z"/>
		<path class="st1" d="M67.8,680.89c0.7,0,1.5,0.11,2.41,0.34v-0.86c0-0.61-0.12-1.07-0.37-1.36c-0.25-0.29-0.65-0.44-1.21-0.44
			s-0.99,0.11-1.29,0.33c-0.3,0.22-0.45,0.54-0.45,0.94h-2.32c0-1,0.35-1.72,1.05-2.16c0.7-0.44,1.68-0.67,2.94-0.67
			c1.8,0,2.96,0.63,3.49,1.89c0.18,0.43,0.27,0.94,0.27,1.53V686h-1.85l-0.16-1.17c-0.56,0.95-1.43,1.42-2.59,1.42
			c-1.13,0-2-0.28-2.63-0.83c-0.58-0.53-0.86-1.2-0.86-2.01s0.32-1.43,0.95-1.87C65.83,681.11,66.7,680.89,67.8,680.89z
			 M70.21,682.58c-0.71-0.19-1.37-0.29-1.98-0.29c-1.15,0-1.73,0.38-1.73,1.15c0,0.32,0.13,0.6,0.4,0.84
			c0.26,0.23,0.69,0.35,1.27,0.35s1.06-0.19,1.44-0.58C69.99,683.66,70.19,683.17,70.21,682.58z"/>
		<path class="st1" d="M81.14,684.65c-0.54,1.07-1.37,1.6-2.48,1.6s-2.05-0.43-2.81-1.28c-0.78-0.89-1.17-2.02-1.17-3.38
			s0.37-2.48,1.12-3.33c0.73-0.83,1.64-1.24,2.74-1.24c1.09,0,1.91,0.44,2.47,1.31v-4.68h2.14V686h-1.75L81.14,684.65z
			 M78.93,678.93c-0.6,0-1.1,0.24-1.5,0.73c-0.4,0.49-0.6,1.14-0.6,1.95c0,0.82,0.2,1.47,0.61,1.97c0.41,0.5,0.92,0.75,1.55,0.75
			c0.52,0,0.98-0.2,1.39-0.61c0.42-0.42,0.63-0.95,0.63-1.58V681c-0.02-0.62-0.23-1.13-0.63-1.53
			C80.01,679.11,79.53,678.93,78.93,678.93z"/>
		<path class="st1" d="M86.41,674.43c0-0.38,0.11-0.69,0.34-0.91c0.23-0.22,0.55-0.33,0.97-0.33c0.41,0,0.73,0.11,0.96,0.33
			c0.23,0.22,0.35,0.53,0.35,0.91c0,0.38-0.12,0.69-0.35,0.91c-0.23,0.22-0.56,0.33-0.96,0.33c-0.42,0-0.74-0.11-0.97-0.33
			C86.53,675.11,86.41,674.81,86.41,674.43z M86.67,677.23h2.12V686h-2.12V677.23z"/>
		<path class="st1" d="M94.48,678.76c0.58-1.16,1.5-1.75,2.77-1.75c1.08,0,1.89,0.35,2.44,1.06c0.55,0.71,0.82,1.64,0.82,2.81V686
			h-2.12v-5.11c0-0.65-0.16-1.14-0.47-1.47c-0.31-0.33-0.75-0.5-1.31-0.5c-0.56,0-1.05,0.25-1.45,0.76c-0.4,0.5-0.62,1.26-0.64,2.27
			V686h-2.12v-8.75h1.85L94.48,678.76z"/>
		<path class="st1" d="M104.36,682.42c-0.71-0.6-1.06-1.35-1.06-2.25c0-0.95,0.37-1.72,1.12-2.3c0.72-0.56,1.54-0.85,2.48-0.85
			c0.93,0,1.71,0.17,2.33,0.52c0.07-0.68,0.37-1.24,0.88-1.66c0.5-0.42,1.1-0.63,1.78-0.63l-0.11,2.03c-1.03,0-1.57,0.34-1.6,1.03
			c0.44,0.55,0.67,1.12,0.67,1.69s-0.1,1.06-0.31,1.45s-0.48,0.72-0.83,0.98c-0.72,0.58-1.6,0.86-2.63,0.86
			c-0.59,0-1.12-0.09-1.6-0.27c-0.48,0.14-0.72,0.43-0.72,0.86c0,0.54,0.46,0.81,1.37,0.81h2.93c1.99,0,2.99,0.7,2.99,2.09
			c0,0.47-0.12,0.93-0.35,1.38c-0.23,0.45-0.57,0.85-1.02,1.2c-0.98,0.77-2.22,1.15-3.71,1.15c-1.44,0-2.61-0.29-3.51-0.88
			c-0.84-0.56-1.26-1.25-1.26-2.07c0-0.54,0.16-0.97,0.5-1.29c0.33-0.32,0.76-0.52,1.3-0.6c-0.71-0.43-1.06-0.97-1.06-1.6
			c0-0.42,0.13-0.77,0.4-1.05C103.6,682.74,103.94,682.54,104.36,682.42z M105.98,686.2c-1.13,0.05-1.69,0.47-1.69,1.28
			c0,0.41,0.24,0.74,0.71,0.98s1.04,0.37,1.68,0.37s1.15-0.05,1.52-0.16c0.37-0.11,0.68-0.25,0.93-0.43
			c0.54-0.36,0.81-0.79,0.81-1.3c0-0.22-0.07-0.39-0.22-0.53c-0.15-0.14-0.37-0.21-0.66-0.21H105.98z M108.73,680.14
			c0-0.49-0.14-0.88-0.41-1.19s-0.68-0.46-1.23-0.46c-0.55,0-0.97,0.15-1.26,0.46c-0.29,0.31-0.43,0.7-0.43,1.19
			c0,0.49,0.14,0.89,0.43,1.2c0.29,0.31,0.71,0.47,1.26,0.47c0.55,0,0.96-0.16,1.23-0.47C108.6,681.03,108.73,680.63,108.73,680.14z
			"/>
		<path class="st1" d="M120.9,678.89c0.65-0.11,1.27-0.16,1.85-0.16c1.21,0,2.18,0.29,2.9,0.87c0.72,0.58,1.08,1.42,1.08,2.51
			c0,1.19-0.4,2.17-1.21,2.93c-0.85,0.8-1.93,1.21-3.22,1.21c-1.28,0-2.31-0.32-3.08-0.97c-0.8-0.67-1.22-1.6-1.24-2.77h2.18
			c0,0.61,0.2,1.06,0.61,1.35c0.41,0.29,0.93,0.43,1.57,0.43s1.16-0.21,1.58-0.62s0.62-0.93,0.62-1.56c0-1.19-0.8-1.78-2.41-1.78
			h-3.56l0.54-6.01h7v1.94h-4.95L120.9,678.89z"/>
	</g>
	<g class="st0">
		<path class="st1" d="M42.62,709.94h3.76c1.06,0,1.87,0.25,2.44,0.75c0.57,0.5,0.86,1.13,0.86,1.89c0,0.58-0.16,1.08-0.47,1.5
			c-0.31,0.43-0.79,0.71-1.43,0.86c0.63,0.11,1.13,0.38,1.51,0.82c0.38,0.44,0.57,0.93,0.57,1.49c0,1.24-0.6,2.07-1.81,2.51
			c-0.45,0.16-1,0.24-1.65,0.24h-3.78V709.94z M43.88,714.43h2.46c0.62,0,1.11-0.15,1.48-0.46c0.37-0.3,0.55-0.72,0.55-1.26
			c0-0.53-0.18-0.95-0.54-1.25c-0.36-0.3-0.86-0.45-1.5-0.45h-2.46V714.43z M46.36,718.9c0.77,0,1.32-0.16,1.65-0.46
			c0.33-0.31,0.5-0.72,0.5-1.23s-0.18-0.92-0.54-1.22c-0.36-0.3-0.9-0.46-1.6-0.46h-2.48v3.38H46.36z"/>
		<path class="st1" d="M55.32,712.16c1.07,0,1.93,0.35,2.58,1.04c0.66,0.69,0.98,1.69,0.98,2.98c0,1.28-0.33,2.27-0.98,2.96
			c-0.66,0.69-1.52,1.04-2.58,1.04c-1.07,0-1.93-0.35-2.58-1.04c-0.66-0.69-0.98-1.68-0.98-2.96c0-1.29,0.33-2.28,0.98-2.98
			C53.39,712.51,54.25,712.16,55.32,712.16z M57.61,716.17c0-0.91-0.19-1.63-0.58-2.14c-0.38-0.52-0.95-0.78-1.69-0.78
			c-0.74,0-1.31,0.26-1.7,0.78c-0.39,0.52-0.59,1.23-0.59,2.14s0.19,1.63,0.56,2.14c0.37,0.52,0.93,0.78,1.67,0.78
			c0.74,0,1.31-0.26,1.72-0.78C57.41,717.79,57.61,717.08,57.61,716.17z"/>
		<path class="st1" d="M66.31,713.49v-4.38h1.25V720h-1.02l-0.16-1.28c-0.25,0.48-0.57,0.84-0.98,1.09
			c-0.41,0.25-0.85,0.37-1.33,0.37c-0.97,0-1.78-0.37-2.44-1.12c-0.66-0.75-0.98-1.72-0.98-2.92s0.32-2.16,0.97-2.89
			c0.65-0.73,1.46-1.09,2.45-1.09C65.05,712.16,65.8,712.6,66.31,713.49z M64.14,713.28c-0.62,0-1.14,0.26-1.56,0.78
			c-0.42,0.52-0.63,1.22-0.63,2.1s0.21,1.58,0.64,2.1c0.43,0.53,0.94,0.79,1.54,0.79c0.6,0,1.11-0.2,1.53-0.6s0.64-0.94,0.66-1.61
			v-1.25c0-0.71-0.21-1.28-0.62-1.7S64.75,713.28,64.14,713.28z"/>
		<path class="st1" d="M69.27,722.22c0.52,0.41,1.07,0.61,1.65,0.61c0.43,0,0.79-0.21,1.1-0.64c0.22-0.31,0.43-0.78,0.61-1.41
			l0.22-0.78l-3.14-7.65h1.41l2.32,6.1l1.81-6.1h1.28l-2.86,9.17c-0.25,0.78-0.57,1.38-0.97,1.79c-0.4,0.42-0.91,0.62-1.52,0.62
			c-0.61,0-1.25-0.19-1.91-0.56V722.22z"/>
	</g>
	<g class="st0">
		<path class="st1" d="M47.1,744.34c-0.16-0.86-0.79-1.29-1.89-1.29c-0.59,0-1.04,0.13-1.36,0.38c-0.32,0.26-0.48,0.57-0.48,0.92
			s0.1,0.63,0.29,0.82c0.2,0.19,0.51,0.35,0.95,0.49l1.83,0.63c0.62,0.21,1.12,0.51,1.49,0.88c0.37,0.37,0.55,0.9,0.55,1.58
			s-0.29,1.25-0.87,1.71c-0.58,0.46-1.35,0.69-2.32,0.69s-1.77-0.25-2.39-0.74s-0.94-1.18-0.96-2.07h1.08c0,0.58,0.2,1.02,0.61,1.33
			c0.41,0.31,0.93,0.46,1.57,0.46c0.64,0,1.15-0.14,1.52-0.43c0.37-0.28,0.56-0.62,0.56-1.01c0-0.39-0.11-0.69-0.34-0.92
			c-0.23-0.22-0.57-0.41-1.02-0.56l-1.55-0.57c-0.73-0.24-1.28-0.53-1.65-0.87c-0.37-0.34-0.56-0.83-0.56-1.48
			c0-0.65,0.26-1.19,0.78-1.62c0.52-0.43,1.26-0.65,2.2-0.65c0.94,0,1.66,0.21,2.16,0.62c0.5,0.42,0.79,0.97,0.86,1.67H47.1z"/>
		<path class="st1" d="M51.95,745.6c0.44-0.97,1.19-1.46,2.25-1.46c0.58,0,1.06,0.14,1.46,0.43c0.39,0.28,0.68,0.68,0.85,1.18
			c0.42-1.07,1.2-1.61,2.34-1.61c0.8,0,1.42,0.26,1.86,0.78c0.44,0.52,0.66,1.24,0.66,2.14V751h-1.09v-3.93
			c0-0.64-0.15-1.13-0.46-1.46c-0.3-0.33-0.74-0.49-1.31-0.49s-1.01,0.23-1.32,0.7c-0.31,0.47-0.47,1.11-0.47,1.93V751h-1.09v-3.93
			c0-0.64-0.15-1.13-0.46-1.46c-0.3-0.33-0.73-0.49-1.29-0.49s-1.01,0.23-1.36,0.69c-0.35,0.46-0.53,1.09-0.55,1.9V751h-1.11v-6.69
			h0.95L51.95,745.6z"/>
		<path class="st1" d="M68.12,746.66c0-0.61-0.13-1.04-0.38-1.3c-0.25-0.26-0.62-0.39-1.1-0.39c-0.48,0-0.87,0.1-1.16,0.29
			s-0.44,0.49-0.44,0.9h-1.22c0-1.03,0.55-1.66,1.65-1.9c0.34-0.07,0.7-0.11,1.09-0.11c0.83,0,1.48,0.21,1.95,0.63
			c0.47,0.42,0.7,1.06,0.7,1.92V751h-0.95l-0.11-1.12c-0.41,0.85-1.15,1.27-2.23,1.27c-0.72,0-1.29-0.2-1.73-0.6s-0.65-0.9-0.65-1.5
			c0-0.6,0.24-1.06,0.72-1.4c0.48-0.34,1.08-0.5,1.8-0.5s1.4,0.12,2.06,0.36V746.66z M68.12,748.21c-0.66-0.19-1.24-0.28-1.74-0.28
			s-0.9,0.09-1.2,0.27c-0.31,0.18-0.46,0.46-0.46,0.84c0,0.84,0.48,1.26,1.43,1.26c0.54,0,1.01-0.19,1.39-0.58
			C67.92,749.33,68.12,748.83,68.12,748.21z"/>
		<path class="st1" d="M71.81,741.47h1.11V751h-1.11V741.47z"/>
		<path class="st1" d="M75.73,741.47h1.11V751h-1.11V741.47z"/>
		<path class="st1" d="M84.09,745.3c0.45-0.77,1.1-1.16,1.96-1.16c0.86,0,1.57,0.32,2.14,0.96c0.57,0.64,0.85,1.48,0.85,2.53
			s-0.29,1.9-0.87,2.55c-0.58,0.65-1.28,0.97-2.11,0.97c-0.45,0-0.85-0.11-1.21-0.34c-0.36-0.22-0.64-0.56-0.85-0.99L83.76,751
			h-0.77v-9.53h1.11V745.3z M85.98,745.12c-0.53,0-0.98,0.17-1.33,0.51c-0.35,0.34-0.54,0.81-0.56,1.42v1.09
			c0,0.62,0.18,1.11,0.55,1.48c0.37,0.37,0.81,0.55,1.34,0.55c0.52,0,0.98-0.23,1.36-0.69c0.38-0.46,0.57-1.08,0.57-1.84
			c0-0.76-0.19-1.38-0.57-1.83C86.97,745.35,86.51,745.12,85.98,745.12z"/>
		<path class="st1" d="M93.57,744.14c0.93,0,1.69,0.3,2.26,0.91c0.57,0.61,0.86,1.47,0.86,2.6c0,1.12-0.29,1.98-0.86,2.59
			s-1.33,0.91-2.26,0.91c-0.93,0-1.69-0.3-2.26-0.91c-0.57-0.61-0.86-1.47-0.86-2.59c0-1.13,0.29-2,0.86-2.6
			C91.88,744.44,92.64,744.14,93.57,744.14z M95.57,747.65c0-0.8-0.17-1.42-0.5-1.88c-0.34-0.45-0.83-0.68-1.48-0.68
			c-0.65,0-1.15,0.23-1.49,0.68c-0.35,0.45-0.52,1.08-0.52,1.88c0,0.8,0.16,1.42,0.49,1.88c0.33,0.45,0.81,0.68,1.46,0.68
			c0.65,0,1.15-0.23,1.5-0.68C95.39,749.07,95.57,748.45,95.57,747.65z"/>
		<path class="st1" d="M103.19,745.3v-3.84h1.09V751h-0.9l-0.14-1.12c-0.21,0.42-0.5,0.74-0.85,0.95c-0.35,0.21-0.74,0.32-1.16,0.32
			c-0.85,0-1.56-0.33-2.13-0.98c-0.57-0.65-0.86-1.5-0.86-2.55s0.28-1.89,0.85-2.53c0.56-0.63,1.28-0.95,2.14-0.95
			S102.74,744.53,103.19,745.3z M101.28,745.12c-0.54,0-1,0.23-1.37,0.69c-0.37,0.46-0.55,1.07-0.55,1.83
			c0,0.77,0.19,1.38,0.56,1.84c0.37,0.46,0.82,0.69,1.34,0.69c0.52,0,0.97-0.17,1.34-0.52c0.37-0.35,0.56-0.82,0.58-1.41v-1.09
			c0-0.63-0.18-1.12-0.55-1.48S101.82,745.12,101.28,745.12z"/>
		<path class="st1" d="M105.78,752.95c0.46,0.35,0.94,0.53,1.44,0.53c0.37,0,0.69-0.19,0.97-0.56c0.2-0.27,0.37-0.68,0.53-1.23
			l0.2-0.69l-2.74-6.69h1.23l2.03,5.33l1.58-5.33h1.12l-2.51,8.02c-0.21,0.68-0.5,1.2-0.85,1.57c-0.35,0.36-0.79,0.55-1.33,0.55
			c-0.54,0-1.09-0.16-1.67-0.49V752.95z"/>
	</g>
</g>
</svg>
