<?xml version="1.0" encoding="utf-8"?>
<!-- Generator: Adobe Illustrator 23.0.4, SVG Export Plug-In . SVG Version: 6.00 Build 0)  -->
<svg version="1.1" xmlns="http://www.w3.org/2000/svg" xmlns:xlink="http://www.w3.org/1999/xlink" x="0px" y="0px"
	 viewBox="0 0 365 203.32" style="enable-background:new 0 0 365 203.32;" xml:space="preserve">
<style type="text/css">
	.st0{display:none;}
	.st1{display:inline;}
	.st2{fill:url(#SVGID_1_);}
	.st3{fill:#3F3B43;}
	.st4{fill:none;stroke:#BBEFEA;stroke-width:1.5;stroke-miterlimit:10;}
	.st5{fill:none;stroke:#F48E9D;stroke-miterlimit:10;}
	.st6{fill:none;stroke:#BBEFEA;stroke-miterlimit:10;}
	.st7{fill:none;stroke:#FFFFFF;stroke-miterlimit:10;}
	.st8{fill:none;stroke:#FFFFFF;stroke-width:1.5;stroke-miterlimit:10;}
	.st9{fill:#F48E9D;}
	.st10{fill:#FAF3F0;}
	.st11{fill:#FAD9DB;}
	.st12{fill:url(#SVGID_2_);}
	.st13{fill:url(#SVGID_3_);stroke:#FAD9DB;stroke-width:1.5;stroke-miterlimit:10;}
	.st14{fill:#FFFFFF;stroke:#FAD9DB;stroke-width:1.5;stroke-miterlimit:10;}
	.st15{clip-path:url(#SVGID_5_);}
	.st16{fill:none;stroke:#3F3B43;stroke-width:1.5;stroke-miterlimit:10;}
	.st17{fill:none;stroke:#3F3B43;stroke-miterlimit:10;}
	.st18{fill:none;stroke:#3F3B43;stroke-width:3;stroke-miterlimit:10;}
	.st19{fill:none;stroke:#F48E9D;stroke-width:1.5;stroke-miterlimit:10;}
	.st20{fill:none;stroke:#FAD9DB;stroke-width:1.5;stroke-miterlimit:10;}
	.st21{fill:#3F3B43;stroke:#3F3B43;stroke-width:1.5;stroke-miterlimit:10;}
	.st22{fill:none;stroke:#D0CAD7;stroke-width:0.75;stroke-miterlimit:10;}
	.st23{fill:none;stroke:#FAF3F0;stroke-width:0.75;stroke-miterlimit:10;}
	.st24{fill:none;stroke:#FAD9DB;stroke-miterlimit:10;}
	.st25{fill:none;stroke:#FAD9DB;stroke-width:0.75;stroke-miterlimit:10;}
	.st26{fill:url(#SVGID_6_);stroke:#BBEFEA;stroke-width:2;stroke-miterlimit:10;}
	.st27{fill:none;stroke:#FFFFFF;stroke-width:0.75;stroke-miterlimit:10;}
	.st28{fill:none;stroke:#BBEFEA;stroke-width:2;stroke-miterlimit:10;}
	.st29{fill:#FFFFFF;}
	.st30{opacity:0.5;fill:#FFFFFF;}
	.st31{fill:url(#SVGID_7_);}
	.st32{fill:#BBEFEA;}
	.st33{fill:url(#SVGID_8_);}
	.st34{fill:url(#SVGID_9_);}
	.st35{clip-path:url(#SVGID_11_);}
	.st36{fill:#D0CAD7;}
	.st37{fill:url(#SVGID_12_);}
	.st38{fill:url(#SVGID_13_);}
	.st39{fill:url(#SVGID_14_);}
	.st40{fill:url(#SVGID_15_);}
	.st41{clip-path:url(#SVGID_17_);}
	.st42{fill:url(#SVGID_18_);}
</style>
<g id="Layer_1" class="st0">
</g>
<g id="Layer_11">
</g>
<g id="Layer_10">
</g>
<g id="Layer_9">
</g>
<g id="Layer_4">
</g>
<g id="Layer_7">
</g>
<g id="Layer_2">
</g>
<g id="Layer_3">
</g>
<g id="Layer_6">
</g>
<g id="Layer_5">
</g>
<g id="Layer_8">
	<g>
		
			<linearGradient id="SVGID_1_" gradientUnits="userSpaceOnUse" x1="229.04" y1="339.1152" x2="313.2886" y2="154.6747" gradientTransform="matrix(0.8765 0.2901 0.3142 -0.9494 -125.8826 342.9179)">
			<stop  offset="0" style="stop-color:#F2D2D6"/>
			<stop  offset="0.3112" style="stop-color:#B5DEDA"/>
			<stop  offset="0.4375" style="stop-color:#6D4D96"/>
			<stop  offset="0.7526" style="stop-color:#FDF7F7"/>
			<stop  offset="0.9531" style="stop-color:#326FB3"/>
		</linearGradient>
		<path class="st2" d="M167.6,61.61c9.07-13.15-113.26,39.69-148.09,54.26c-8.25,3.45-15.87,6.82-17.3,11.53
			c-3.58,11.82,59.26-7.95,74.52-8.11c15.25-0.17-32.49,31.97-11.23,37.06c21.26,5.09,110.18-49.12,115.74-42.38
			c5.56,6.74-36.69,30.34-35.74,37.53c2.19,16.53,158.8-29.67,201.19-54.68c42.39-25-0.54-29.43-71.17-19.5
			c-70.63,9.93-29.27-1.78-31.24-15.06C242.3,48.98,119.42,131.5,167.6,61.61z"/>
		<g>
			<rect x="89.22" y="77.58" class="st32" width="1.5" height="6.9"/>
			<rect x="86.52" y="80.28" class="st32" width="6.9" height="1.5"/>
		</g>
		<g>
			
				<rect x="95.24" y="100.97" transform="matrix(0.7071 -0.7071 0.7071 0.7071 -42.8466 99.507)" class="st9" width="6.9" height="1"/>
			
				<rect x="98.19" y="98.02" transform="matrix(0.7071 -0.7071 0.7071 0.7071 -42.8465 99.4999)" class="st9" width="1" height="6.9"/>
		</g>
		<g>
			<rect x="264.73" y="69.34" class="st32" width="1" height="6.9"/>
			<rect x="261.78" y="72.29" class="st32" width="6.9" height="1"/>
		</g>
		<g>
			
				<rect x="249.65" y="111.5" transform="matrix(0.7071 -0.7071 0.7071 0.7071 -5.0626 211.7765)" class="st29" width="6.9" height="1"/>
			
				<rect x="252.61" y="108.55" transform="matrix(0.7071 -0.7071 0.7071 0.7071 -5.0626 211.7765)" class="st29" width="1" height="6.9"/>
		</g>
		<g>
			<rect x="131.62" y="16.07" class="st9" width="1" height="6.9"/>
			<rect x="128.67" y="19.02" class="st9" width="6.9" height="1"/>
		</g>
		<g>
			
				<rect x="147.41" y="4.22" transform="matrix(0.7071 -0.7071 0.7071 0.7071 40.6724 108.1329)" class="st32" width="6.9" height="1.5"/>
			
				<rect x="150.11" y="1.52" transform="matrix(0.7071 -0.7071 0.7071 0.7071 40.6775 108.1384)" class="st32" width="1.5" height="6.9"/>
		</g>
		<path class="st32" d="M233.19,19.14c-2.78,0-5.05-2.26-5.05-5.05s2.26-5.05,5.05-5.05s5.05,2.26,5.05,5.05
			S235.98,19.14,233.19,19.14z M233.19,10.05c-2.23,0-4.05,1.82-4.05,4.05s1.82,4.05,4.05,4.05s4.05-1.82,4.05-4.05
			S235.42,10.05,233.19,10.05z"/>
		<path class="st29" d="M273.72,105.72c-2.22,0-4.02-1.8-4.02-4.02s1.8-4.02,4.02-4.02s4.02,1.8,4.02,4.02
			S275.93,105.72,273.72,105.72z M273.72,99.18c-1.39,0-2.52,1.13-2.52,2.52s1.13,2.52,2.52,2.52s2.52-1.13,2.52-2.52
			S275.11,99.18,273.72,99.18z"/>
		<g>
			<g>
				<linearGradient id="SVGID_2_" gradientUnits="userSpaceOnUse" x1="233.5165" y1="31.6502" x2="282.8418" y2="31.6502">
					<stop  offset="0" style="stop-color:#FFFFFF"/>
					<stop  offset="0.646" style="stop-color:#D0CAD7"/>
				</linearGradient>
				<circle class="st12" cx="258.18" cy="31.65" r="24.66"/>
			</g>
			<path class="st29" d="M261.94,21.73c-1.51,0-2.29-0.58-2.98-1.1c-0.65-0.48-1.21-0.9-2.38-0.9c-1.17,0-1.73,0.42-2.38,0.9
				c-0.69,0.52-1.47,1.1-2.98,1.1c-1.51,0-2.29-0.58-2.98-1.1c-0.65-0.48-1.21-0.9-2.38-0.9c-1.17,0-1.73,0.42-2.38,0.9
				c-0.69,0.52-1.47,1.1-2.98,1.1c-1.51,0-2.29-0.58-2.98-1.1c-0.65-0.48-1.21-0.9-2.38-0.9v-1c1.51,0,2.29,0.58,2.98,1.1
				c0.65,0.48,1.21,0.9,2.38,0.9s1.73-0.42,2.38-0.9c0.69-0.52,1.47-1.1,2.98-1.1c1.5,0,2.29,0.58,2.98,1.1
				c0.65,0.48,1.21,0.9,2.38,0.9c1.17,0,1.73-0.42,2.38-0.9c0.69-0.52,1.47-1.1,2.98-1.1c1.51,0,2.29,0.58,2.98,1.1
				c0.65,0.48,1.21,0.9,2.38,0.9c1.17,0,1.73-0.42,2.38-0.9c0.69-0.52,1.47-1.1,2.98-1.1v1c-1.18,0-1.73,0.42-2.38,0.9
				C264.23,21.15,263.45,21.73,261.94,21.73z"/>
			<path class="st29" d="M261.94,26.34c-1.51,0-2.29-0.58-2.98-1.1c-0.65-0.48-1.21-0.9-2.38-0.9c-1.17,0-1.73,0.42-2.38,0.9
				c-0.69,0.52-1.47,1.1-2.98,1.1c-1.51,0-2.29-0.58-2.98-1.1c-0.65-0.48-1.21-0.9-2.38-0.9c-1.17,0-1.73,0.42-2.38,0.9
				c-0.69,0.52-1.47,1.1-2.98,1.1c-1.51,0-2.29-0.58-2.98-1.1c-0.65-0.48-1.21-0.9-2.38-0.9v-1c1.51,0,2.29,0.58,2.98,1.1
				c0.65,0.48,1.21,0.9,2.38,0.9s1.73-0.42,2.38-0.9c0.69-0.52,1.47-1.1,2.98-1.1c1.5,0,2.29,0.58,2.98,1.1
				c0.65,0.48,1.21,0.9,2.38,0.9c1.17,0,1.73-0.42,2.38-0.9c0.69-0.52,1.47-1.1,2.98-1.1c1.51,0,2.29,0.58,2.98,1.1
				c0.65,0.48,1.21,0.9,2.38,0.9c1.17,0,1.73-0.42,2.38-0.9c0.69-0.52,1.47-1.1,2.98-1.1v1c-1.18,0-1.73,0.42-2.38,0.9
				C264.23,25.76,263.45,26.34,261.94,26.34z"/>
			<path class="st29" d="M271.55,41.68c-1.51,0-2.29-0.58-2.98-1.1c-0.65-0.48-1.21-0.9-2.38-0.9c-1.17,0-1.73,0.42-2.38,0.9
				c-0.69,0.52-1.47,1.1-2.98,1.1c-1.5,0-2.29-0.58-2.98-1.1c-0.65-0.48-1.21-0.9-2.38-0.9c-1.17,0-1.73,0.42-2.38,0.9
				c-0.69,0.52-1.47,1.1-2.98,1.1s-2.29-0.58-2.98-1.1c-0.65-0.48-1.21-0.9-2.38-0.9v-1c1.51,0,2.29,0.58,2.98,1.1
				c0.65,0.48,1.21,0.9,2.38,0.9c1.17,0,1.73-0.42,2.38-0.9c0.69-0.52,1.47-1.1,2.98-1.1c1.5,0,2.29,0.58,2.98,1.1
				c0.65,0.48,1.21,0.9,2.38,0.9c1.17,0,1.73-0.42,2.38-0.9c0.69-0.52,1.47-1.1,2.98-1.1c1.51,0,2.29,0.58,2.98,1.1
				c0.65,0.48,1.21,0.9,2.38,0.9s1.73-0.42,2.38-0.9c0.69-0.51,1.47-1.1,2.98-1.1v1c-1.17,0-1.73,0.42-2.38,0.9
				C273.84,41.1,273.06,41.68,271.55,41.68z"/>
			<path class="st29" d="M271.82,46.31c-1.51,0-2.29-0.58-2.98-1.1c-0.65-0.48-1.21-0.9-2.38-0.9c-1.17,0-1.73,0.42-2.38,0.9
				c-0.69,0.52-1.47,1.1-2.98,1.1c-1.5,0-2.29-0.58-2.98-1.1c-0.65-0.48-1.21-0.9-2.38-0.9c-1.17,0-1.73,0.42-2.38,0.9
				c-0.69,0.52-1.47,1.1-2.98,1.1c-1.51,0-2.29-0.58-2.98-1.1c-0.65-0.48-1.21-0.9-2.38-0.9v-1c1.51,0,2.29,0.58,2.98,1.1
				c0.65,0.48,1.21,0.9,2.38,0.9c1.17,0,1.73-0.42,2.38-0.9c0.69-0.52,1.47-1.1,2.98-1.1c1.51,0,2.29,0.58,2.98,1.1
				c0.65,0.48,1.21,0.9,2.38,0.9c1.17,0,1.73-0.42,2.38-0.9c0.69-0.52,1.47-1.1,2.98-1.1c1.51,0,2.29,0.58,2.98,1.1
				c0.65,0.48,1.21,0.9,2.38,0.9c1.17,0,1.73-0.42,2.38-0.9c0.69-0.52,1.47-1.1,2.98-1.1v1c-1.18,0-1.73,0.42-2.38,0.9
				C274.11,45.72,273.32,46.31,271.82,46.31z"/>
		</g>
		<g>
			<linearGradient id="SVGID_3_" gradientUnits="userSpaceOnUse" x1="182.7796" y1="147.7822" x2="182.7796" y2="304.9301">
				<stop  offset="0" style="stop-color:#FFFFFF"/>
				<stop  offset="0.646" style="stop-color:#FAD9DB"/>
			</linearGradient>
			<path style="fill:url(#SVGID_3_);" d="M188.8,123.5h-12.05c-70.96,0-69.37,52.26-69.37,60.51c0,0,11.37,3.45,75.04,3.45
				s75.75-3.45,75.75-3.45C258.18,175.76,259.76,123.5,188.8,123.5z"/>
			<path class="st11" d="M182.42,188.21c-63.06,0-74.79-3.34-75.26-3.48l-0.53-0.16l0-1.08c-0.06-17.89,5.16-32.23,15.53-42.63
				c11.97-12.01,30.34-18.1,54.6-18.1h12.05c24.26,0,42.63,6.09,54.6,18.1c10.36,10.4,15.59,24.74,15.53,42.63l0,1.09l-0.54,0.16
				C257.88,184.87,245.48,188.21,182.42,188.21z M108.13,183.41c2.88,0.62,18.63,3.29,74.29,3.29c55.78,0,72.03-2.69,75.01-3.3
				c0.05-17.44-5.03-31.4-15.09-41.5c-11.68-11.72-29.69-17.66-53.53-17.66h-12.05c-23.84,0-41.86,5.94-53.53,17.66
				C113.16,152.01,108.08,165.97,108.13,183.41z"/>
		</g>
		<g>
			<path class="st29" d="M135.69,178.93c-3.1-17.67-11.75-30.09-15.03-34.29c-0.71-0.91-1.98-1.16-2.99-0.58l-5.04,2.91l-4.88,2.82
				c-1.27,0.73-1.54,2.45-0.57,3.54l24.49,27.54C133.23,182.61,136.09,181.23,135.69,178.93z"/>
			<path class="st11" d="M133.38,182.41c-0.84,0-1.65-0.36-2.26-1.04l-24.49-27.54c-0.61-0.69-0.88-1.61-0.73-2.52
				c0.15-0.91,0.69-1.7,1.49-2.17l9.92-5.74c1.31-0.76,3.01-0.43,3.95,0.77c3.53,4.52,12.08,16.94,15.18,34.62l0,0
				c0.24,1.38-0.42,2.67-1.69,3.29C134.3,182.31,133.83,182.41,133.38,182.41z M118.83,144.5c-0.27,0-0.53,0.07-0.78,0.21
				l-9.92,5.74c-0.41,0.24-0.69,0.64-0.76,1.1c-0.07,0.47,0.06,0.93,0.38,1.29l24.49,27.54c0.58,0.65,1.34,0.62,1.85,0.37
				c0.52-0.25,1.01-0.82,0.86-1.68c-3.04-17.35-11.42-29.53-14.88-33.96C119.76,144.71,119.3,144.5,118.83,144.5z"/>
		</g>
		<g>
			<path class="st29" d="M229.09,178.93c3.1-17.67,11.75-30.09,15.03-34.29c0.71-0.91,1.98-1.16,2.99-0.58l9.92,5.74
				c1.27,0.73,1.54,2.45,0.57,3.54l-24.49,27.54C231.56,182.61,228.69,181.23,229.09,178.93z"/>
			<path class="st11" d="M231.4,182.41c-0.46,0-0.92-0.1-1.37-0.32c-1.27-0.61-1.93-1.9-1.69-3.29l0,0
				c3.1-17.68,11.65-30.1,15.18-34.62c0.94-1.2,2.64-1.53,3.95-0.77l9.92,5.74c0.8,0.46,1.34,1.25,1.49,2.17
				c0.15,0.91-0.12,1.83-0.73,2.52l-24.49,27.54C233.06,182.05,232.25,182.41,231.4,182.41z M229.83,179.06
				c-0.15,0.86,0.35,1.43,0.86,1.68c0.52,0.25,1.27,0.28,1.85-0.37l24.49-27.54c0.31-0.35,0.45-0.82,0.38-1.29
				c-0.08-0.47-0.35-0.87-0.76-1.1l-9.92-5.74c-0.67-0.39-1.54-0.22-2.02,0.4C241.25,149.54,232.87,161.72,229.83,179.06
				L229.83,179.06z"/>
		</g>
		<ellipse class="st3" cx="182.42" cy="81.03" rx="41.66" ry="42.71"/>
		<path class="st3" d="M178.91,32.01c4.44-2.57,6.51,9.55,6.51,9.55S172.96,35.45,178.91,32.01z"/>
		<path class="st3" d="M189.1,32.29c-4.73-2.01-5.29,10.27-5.29,10.27S195.42,34.98,189.1,32.29z"/>
		<path class="st3" d="M173.69,123.73c-16.46-3.65-42.91,4.21-52.02-19.92s19.03-40.93,33.87-55.1l53.63-0.46
			c14.84,14.17,42.32,31.42,33.21,55.55s-35.56,16.27-52.02,19.92"/>
		<ellipse class="st3" cx="182.04" cy="128.21" rx="18.75" ry="9.22"/>
		<path class="st11" d="M170.24,112v13.52h0.01c0.14,3.4,5.53,6.13,12.17,6.13c6.64,0,12.03-2.73,12.17-6.13h0.01V112H170.24z"/>
		<path class="st10" d="M213.64,77.43c0-17-14.06-30.77-31.4-30.77s-31.4,13.78-31.4,30.77c0,0.55,0.02,1.11,0.05,1.65
			c0.97,33.8,31.35,38.24,31.35,38.24s30.38-4.44,31.35-38.24C213.62,78.53,213.64,77.98,213.64,77.43z"/>
		<path class="st11" d="M204.18,57.24c0,8.59-9.96,15.56-22.24,15.56s-22.24-6.96-22.24-15.56"/>
		<g>
			<defs>
				<path id="SVGID_10_" d="M213.66,77.43c0-17-14.06-30.77-31.4-30.77s-31.4,13.78-31.4,30.77c0,0.55,0.02,1.11,0.05,1.65
					c0.97,33.8,31.35,38.24,31.35,38.24s30.38-4.44,31.35-38.24C213.65,78.53,213.66,77.98,213.66,77.43z"/>
			</defs>
			<clipPath id="SVGID_5_">
				<use xlink:href="#SVGID_10_"  style="overflow:visible;"/>
			</clipPath>
			<g class="st15">
				<circle class="st11" cx="196.95" cy="101.74" r="8.01"/>
			</g>
			<g class="st15">
				<circle class="st11" cx="167.53" cy="101.74" r="8.01"/>
			</g>
		</g>
		<g>
			<path class="st3" d="M168.53,95.12c-3.07,0-5.56-2.49-5.56-5.56h1.5c0,2.24,1.82,4.06,4.06,4.06c1.64,0,3.1-0.97,3.74-2.48
				l1.38,0.58C172.78,93.79,170.77,95.12,168.53,95.12z"/>
			
				<rect x="163.14" y="93.33" transform="matrix(0.7071 -0.7071 0.7071 0.7071 -18.2054 143.6994)" class="st3" width="2.43" height="1"/>
		</g>
		<g>
			<path class="st3" d="M196.17,95.12c-2.24,0-4.25-1.33-5.12-3.4l1.38-0.58c0.64,1.51,2.11,2.48,3.74,2.48
				c2.24,0,4.06-1.82,4.06-4.06h1.5C201.73,92.63,199.23,95.12,196.17,95.12z"/>
			
				<rect x="190.77" y="93.33" transform="matrix(0.7071 -0.7071 0.7071 0.7071 -10.1125 163.2373)" class="st3" width="2.43" height="1"/>
		</g>
		<path class="st3" d="M160.67,83.77l-2.12-2.12c3.64-3.64,11.67-4.03,14.95-4.03v3C168.82,80.61,163,81.44,160.67,83.77z"/>
		<path class="st3" d="M202.2,83.77c-2.33-2.33-8.15-3.15-12.83-3.15v-3c3.28,0,11.31,0.39,14.95,4.03L202.2,83.77z"/>
		<g>
			<path class="st9" d="M182.24,105.92c-3.12,0-5.95-0.98-7.56-2.63l1.07-1.05c1.31,1.34,3.8,2.18,6.48,2.18s5.17-0.84,6.48-2.18
				l1.07,1.05C188.18,104.94,185.36,105.92,182.24,105.92z"/>
		</g>
		<rect x="179.57" y="108.2" class="st11" width="5.39" height="1.5"/>
		<g>
			<path class="st10" d="M217.06,82.07c-0.91-0.17-1.82-0.17-2.69-0.05c1.24,2.43,1.72,5.27,1.19,8.15
				c-0.54,2.89-2.01,5.36-4.03,7.19c0.77,0.43,1.62,0.75,2.53,0.92c4.48,0.83,8.78-2.13,9.61-6.6
				C224.5,87.21,221.54,82.9,217.06,82.07z"/>
		</g>
		<path class="st11" d="M215.21,92.67l-1.34-0.68c0.11-0.21,2.69-5.17,7.22-5.17v1.5C217.49,88.32,215.23,92.63,215.21,92.67z"/>
		<circle class="st3" cx="216.01" cy="95.21" r="1.03"/>
		<circle class="st3" cx="219.29" cy="94.4" r="0.77"/>
		<rect x="181.67" y="91.97" class="st9" width="1.5" height="4.06"/>
		
			<rect x="165.14" y="94.33" transform="matrix(0.7071 -0.7071 0.7071 0.7071 -18.3267 145.4065)" class="st3" width="2.43" height="1"/>
		
			<rect x="192.69" y="94.33" transform="matrix(0.7071 -0.7071 0.7071 0.7071 -10.2578 164.8864)" class="st3" width="2.43" height="1"/>
		<g>
			<g>
				<g>
					<path class="st3" d="M181.94,46.65c-17.19,0.18-31.07,14.16-31.07,31.39c0,0.57,0.02,1.13,0.05,1.69
						c0.11,4.03,0.64,7.64,1.46,10.9C159.45,73.49,178.73,69.07,181.94,46.65z"/>
					<path class="st3" d="M152.2,93.01l-0.56-2.2c-0.88-3.47-1.38-7.19-1.49-11.06c-0.03-0.55-0.05-1.13-0.05-1.71
						c0-17.54,14.27-31.96,31.82-32.14l0.87-0.01l-0.12,0.87c-1.89,13.2-9.28,20.31-16.42,27.18c-5.28,5.08-10.27,9.88-13.19,16.97
						L152.2,93.01z M181.06,47.43c-16.32,0.64-29.45,14.19-29.45,30.62c0,0.55,0.02,1.1,0.05,1.65c0.08,2.98,0.4,5.86,0.95,8.6
						c3.13-6.31,7.94-10.94,12.61-15.43C172.02,66.32,179.04,59.56,181.06,47.43z"/>
				</g>
			</g>
			<g>
				<g>
					<path class="st3" d="M213.66,78.05c0-17.34-14.06-31.4-31.4-31.4c-2.81,0-5.53,0.37-8.11,1.06c0,19.77,33.79,20.55,36.77,46.94
						c1.53-4.22,2.54-9.14,2.7-14.92C213.65,79.18,213.66,78.62,213.66,78.05z"/>
					<path class="st3" d="M210.53,97.92l-0.36-3.17c-1.53-13.54-11.2-20.05-20.56-26.35c-8.34-5.61-16.21-10.91-16.22-20.68v-0.58
						l0.56-0.15c2.71-0.72,5.51-1.09,8.31-1.09c17.73,0,32.15,14.42,32.15,32.15c0,0.58-0.02,1.15-0.05,1.73
						c-0.15,5.46-1.08,10.55-2.74,15.14L210.53,97.92z M174.91,48.3c0.31,8.6,7.38,13.36,15.54,18.85
						c8.5,5.72,18.04,12.14,20.7,24.32c1.02-3.64,1.6-7.58,1.71-11.75c0.03-0.56,0.05-1.11,0.05-1.67
						c0-16.9-13.75-30.65-30.65-30.65C179.79,47.4,177.32,47.7,174.91,48.3z"/>
				</g>
			</g>
		</g>
		<path class="st36" d="M203.81,69.69c-3.26-2.42-7.08-4.09-10.77-5.7c-1.87-0.81-3.8-1.65-5.64-2.58
			c-4.02-2.03-7.17-4.41-9.36-7.07l0.58-0.48c2.12,2.58,5.19,4.89,9.12,6.88c1.83,0.92,3.75,1.76,5.6,2.57
			c3.73,1.63,7.59,3.31,10.92,5.78L203.81,69.69z"/>
		<path class="st36" d="M194.91,60.43c-2.99-0.52-5.84-1.79-8.26-3.69l0.46-0.59c2.32,1.82,5.06,3.04,7.93,3.54L194.91,60.43z"/>
		<path class="st10" d="M166.02,104.29c-0.21,0-0.41-0.07-0.59-0.21c-0.29-0.22-0.47-0.58-0.48-0.94c-0.01-0.6,0.36-1.09,0.63-1.4
			c0.17-0.19,0.34-0.36,0.53-0.52c-0.15-0.12-0.33-0.22-0.51-0.28c-0.29-0.08-0.62-0.1-1.06-0.03c-1,0.15-1.8,0.6-2.18,1.25
			l-0.65-0.38c0.5-0.84,1.48-1.43,2.71-1.61c0.55-0.08,0.99-0.06,1.38,0.06c0.34,0.1,0.65,0.29,0.91,0.53
			c0.53-0.35,1.11-0.58,1.7-0.69c1.19-0.21,2.41,0.14,3.2,0.92l-0.53,0.54c-0.62-0.61-1.59-0.88-2.54-0.71
			c-0.47,0.08-0.94,0.27-1.38,0.55c0.06,0.12,0.12,0.26,0.16,0.39c0.21,0.73,0.03,1.53-0.47,2.1c-0.19,0.22-0.39,0.35-0.61,0.41
			C166.17,104.28,166.1,104.29,166.02,104.29z M166.56,101.82c-0.14,0.13-0.28,0.27-0.41,0.42c-0.31,0.35-0.45,0.63-0.44,0.89
			c0,0.13,0.08,0.27,0.19,0.36c0.04,0.03,0.11,0.07,0.18,0.05c0.07-0.02,0.14-0.08,0.23-0.17c0.33-0.37,0.45-0.92,0.31-1.4
			C166.59,101.91,166.57,101.87,166.56,101.82z"/>
		<path class="st10" d="M198.45,104.04c-0.07,0-0.15-0.01-0.22-0.03c-0.22-0.05-0.42-0.19-0.61-0.41c-0.5-0.57-0.68-1.38-0.47-2.1
			c0.04-0.14,0.09-0.27,0.16-0.39c-0.44-0.28-0.91-0.47-1.38-0.55c-0.95-0.17-1.92,0.1-2.54,0.71l-0.53-0.54
			c0.79-0.78,2.02-1.13,3.2-0.92c0.59,0.11,1.16,0.34,1.7,0.69c0.25-0.24,0.57-0.43,0.91-0.53c0.4-0.12,0.83-0.13,1.38-0.06
			c1.23,0.18,2.22,0.77,2.71,1.61l-0.65,0.38c-0.38-0.65-1.17-1.1-2.18-1.25c-0.43-0.06-0.77-0.05-1.06,0.03
			c-0.19,0.06-0.36,0.15-0.51,0.28c0.18,0.16,0.36,0.34,0.53,0.52c0.28,0.31,0.65,0.8,0.63,1.4c-0.01,0.36-0.19,0.72-0.48,0.94
			C198.87,103.97,198.66,104.04,198.45,104.04z M197.92,101.58c-0.02,0.04-0.03,0.09-0.05,0.14c-0.14,0.48-0.02,1.03,0.31,1.4
			c0.09,0.1,0.16,0.16,0.23,0.17c0.07,0.02,0.13-0.02,0.18-0.05c0.11-0.08,0.18-0.23,0.19-0.36c0.01-0.26-0.14-0.54-0.44-0.89
			C198.2,101.84,198.06,101.7,197.92,101.58z"/>
		<path class="st11" d="M137.67,171.52c-1.96-7.89-5.13-15.38-9.43-22.28l0.85-0.53c4.35,6.98,7.57,14.58,9.55,22.57L137.67,171.52z
			"/>
		<path class="st11" d="M226.96,174.37l-0.74-0.13c0.33-1.93,0.77-3.87,1.3-5.77l0.72,0.2
			C227.72,170.55,227.29,172.47,226.96,174.37z"/>
		<path class="st11" d="M229.52,165.06l-0.94-0.33c1.99-5.62,4.8-10.87,8.36-15.6l0.8,0.6
			C234.24,154.38,231.48,159.53,229.52,165.06z"/>
		<path class="st36" d="M144.95,121.9c-1.11,0-2.22-0.06-3.33-0.22c-4.26-0.61-7.73-2.66-9.52-5.62c-0.62-1.01-1.01-2.21-1.16-3.46
			c-0.65-0.01-1.3-0.11-1.94-0.29c-2.99-0.84-5.59-3.33-6.97-6.67c-1.09-2.64-1.48-5.7-1.24-9.65l0.75,0.05
			c-0.24,3.83,0.14,6.79,1.18,9.32c1.29,3.13,3.71,5.46,6.47,6.23c0.55,0.16,1.12,0.24,1.68,0.26c-0.08-2.39,0.79-4.81,2.84-6.26
			c1.21-0.85,3.01-1.15,3.99-0.03c0.83,0.96,0.57,2.37,0.04,3.36c-1.12,2.11-3.52,3.48-6.07,3.65c0.14,1.11,0.5,2.18,1.05,3.08
			c1.68,2.77,4.96,4.68,8.99,5.26c3.34,0.48,6.79,0.06,10.13-0.34l0.82-0.1c3.65-0.43,7.52-0.78,11.17,0.11l-0.18,0.73
			c-3.52-0.87-7.17-0.54-10.9-0.1l-0.82,0.1C149.65,121.62,147.3,121.9,144.95,121.9z M135.97,105.59c-0.6,0-1.28,0.24-1.82,0.62
			c-1.84,1.29-2.61,3.48-2.53,5.63c2.31-0.15,4.47-1.37,5.47-3.26c0.39-0.74,0.64-1.85,0.05-2.52
			C136.86,105.73,136.44,105.59,135.97,105.59z"/>
		<path class="st36" d="M200.46,122.01l-0.38-0.64c2.39-1.42,5.38-1.32,7.42-1.12c0.59,0.06,1.18,0.13,1.77,0.2
			c1.82,0.22,3.7,0.45,5.52,0.21c1.95-0.25,4.31-1.24,5.34-3.25c-1.64-0.5-3.21-1.26-4.61-2.27c-0.77-0.55-1.81-1.43-2.02-2.68
			c-0.16-0.92,0.21-1.84,1.02-2.53c0.97-0.83,2.33-1.12,3.44-0.75c2.18,0.73,3.2,3.11,3.4,4.91c0.12,1.03,0.04,1.98-0.22,2.82
			c4.41,1.1,9.31,0.31,13.02-2.37c7.19-5.19,8.27-15.07,8.28-20.5h0.75c-0.01,5.57-1.13,15.72-8.59,21.11
			c-3.92,2.83-9.09,3.65-13.73,2.47c-1.12,2.37-3.78,3.51-5.98,3.79c-1.91,0.25-3.84,0.01-5.71-0.21c-0.58-0.07-1.17-0.14-1.75-0.2
			C205.32,120.79,202.63,120.72,200.46,122.01z M216.94,109.77c-0.68,0-1.4,0.26-1.95,0.73c-0.6,0.51-0.88,1.18-0.77,1.83
			c0.17,0.98,1.06,1.72,1.72,2.2c1.36,0.98,2.87,1.71,4.46,2.19c0.24-0.75,0.31-1.6,0.2-2.54c-0.18-1.59-1.04-3.66-2.89-4.29
			C217.47,109.81,217.21,109.77,216.94,109.77z"/>
		<path class="st36" d="M153.39,78.03l-0.61-0.43c1.81-2.58,4.04-4.79,6.65-6.56l0.42,0.62C157.32,73.38,155.14,75.52,153.39,78.03z
			"/>
		<path class="st36" d="M152.92,73.87l-0.58-0.47c2-2.44,4.39-4.47,7.12-6.04l0.37,0.65C157.19,69.53,154.86,71.51,152.92,73.87z"/>
		<path class="st11" d="M183.64,180.67c-0.4-13.4-0.47-27-0.21-40.42l1,0.02c-0.27,13.4-0.19,26.98,0.21,40.37L183.64,180.67z"/>
		<g>
			<linearGradient id="SVGID_6_" gradientUnits="userSpaceOnUse" x1="181.7796" y1="29.8964" x2="181.7796" y2="165.667">
				<stop  offset="0.5992" style="stop-color:#FFFFFF;stop-opacity:0"/>
				<stop  offset="0.9155" style="stop-color:#BBEFEA;stop-opacity:0.75"/>
			</linearGradient>
			<circle style="fill:url(#SVGID_6_);" cx="181.78" cy="81.11" r="67.89"/>
			<path class="st32" d="M181.78,150c-37.98,0-68.89-30.9-68.89-68.88s30.9-68.89,68.89-68.89s68.89,30.9,68.89,68.89
				S219.76,150,181.78,150z M181.78,14.23c-36.88,0-66.89,30-66.89,66.89s30,66.88,66.89,66.88s66.89-30,66.89-66.88
				S218.66,14.23,181.78,14.23z"/>
		</g>
		<g>
			<path class="st32" d="M248.21,184.87c-5.63,0-8.47-1.59-11.22-3.13c-2.64-1.48-5.14-2.87-10.25-2.87c-5.11,0-7.6,1.4-10.25,2.87
				c-2.75,1.54-5.59,3.13-11.22,3.13c-5.63,0-8.47-1.59-11.22-3.13c-2.64-1.48-5.14-2.87-10.25-2.87c-5.11,0-7.6,1.4-10.25,2.87
				c-2.75,1.54-5.59,3.13-11.22,3.13s-8.47-1.59-11.22-3.13c-2.64-1.48-5.14-2.87-10.25-2.87c-5.11,0-7.6,1.4-10.24,2.87
				c-2.75,1.54-5.59,3.13-11.22,3.13c-5.63,0-8.47-1.59-11.22-3.13c-2.64-1.48-5.14-2.87-10.24-2.87v-2c5.63,0,8.47,1.59,11.22,3.13
				c2.64,1.48,5.14,2.87,10.24,2.87s7.6-1.4,10.24-2.87c2.75-1.54,5.59-3.13,11.22-3.13s8.47,1.59,11.22,3.13
				c2.64,1.48,5.14,2.87,10.25,2.87s7.6-1.4,10.25-2.87c2.75-1.54,5.59-3.13,11.22-3.13c5.63,0,8.47,1.59,11.22,3.13
				c2.64,1.48,5.14,2.87,10.25,2.87c5.11,0,7.6-1.4,10.25-2.87c2.75-1.54,5.59-3.13,11.22-3.13c5.63,0,8.47,1.59,11.22,3.13
				c2.64,1.48,5.14,2.87,10.25,2.87c5.11,0,7.6-1.4,10.25-2.87c2.75-1.54,5.6-3.13,11.22-3.13v2c-5.11,0-7.6,1.4-10.25,2.87
				C256.68,183.28,253.84,184.87,248.21,184.87z"/>
			<path class="st29" d="M269.68,178.37c-10.74,0-10.74,6-21.47,6c-10.74,0-10.74-6-21.47-6c-10.73,0-10.73,6-21.47,6
				c-10.73,0-10.73-6-21.47-6c-10.73,0-10.73,6-21.47,6c-10.73,0-10.73-6-21.47-6c-10.73,0-10.73,6-21.46,6
				c-10.73,0-10.73-6-21.46-6v26.94h171.74V178.37z"/>
		</g>
		
			<ellipse transform="matrix(0.7071 -0.7071 0.7071 0.7071 27.4986 166.141)" class="st30" cx="214.3" cy="49.88" rx="14.99" ry="23.84"/>
		
			<ellipse transform="matrix(0.7071 -0.7071 0.7071 0.7071 27.6641 135.9681)" class="st30" cx="177.96" cy="34.59" rx="5.84" ry="9.29"/>
		<g>
			
				<ellipse transform="matrix(0.7071 -0.7071 0.7071 0.7071 19.4317 146.7093)" class="st30" cx="186.81" cy="49.9" rx="3.85" ry="6.12"/>
		</g>
	</g>
</g>
</svg>
