<?xml version="1.0" encoding="utf-8"?>
<!-- Generator: Adobe Illustrator 23.0.4, SVG Export Plug-In . SVG Version: 6.00 Build 0)  -->
<svg version="1.1" xmlns="http://www.w3.org/2000/svg" xmlns:xlink="http://www.w3.org/1999/xlink" x="0px" y="0px"
	 viewBox="0 0 200 203.32" style="enable-background:new 0 0 200 203.32;" xml:space="preserve">
<style type="text/css">
	.st0{display:none;}
	.st1{display:inline;}
	.st2{fill:url(#SVGID_1_);}
	.st3{fill:#3F3B43;}
	.st4{fill:none;stroke:#BBEFEA;stroke-width:1.5;stroke-miterlimit:10;}
	.st5{fill:none;stroke:#F48E9D;stroke-miterlimit:10;}
	.st6{fill:none;stroke:#BBEFEA;stroke-miterlimit:10;}
	.st7{fill:none;stroke:#FFFFFF;stroke-miterlimit:10;}
	.st8{fill:none;stroke:#FFFFFF;stroke-width:1.5;stroke-miterlimit:10;}
	.st9{fill:#F48E9D;}
	.st10{fill:#FAF3F0;}
	.st11{fill:#FAD9DB;}
	.st12{fill:url(#SVGID_2_);}
	.st13{fill:url(#SVGID_3_);stroke:#FAD9DB;stroke-width:1.5;stroke-miterlimit:10;}
	.st14{fill:#FFFFFF;stroke:#FAD9DB;stroke-width:1.5;stroke-miterlimit:10;}
	.st15{clip-path:url(#SVGID_5_);}
	.st16{fill:none;stroke:#3F3B43;stroke-width:1.5;stroke-miterlimit:10;}
	.st17{fill:none;stroke:#3F3B43;stroke-miterlimit:10;}
	.st18{fill:none;stroke:#3F3B43;stroke-width:3;stroke-miterlimit:10;}
	.st19{fill:none;stroke:#F48E9D;stroke-width:1.5;stroke-miterlimit:10;}
	.st20{fill:none;stroke:#FAD9DB;stroke-width:1.5;stroke-miterlimit:10;}
	.st21{fill:#3F3B43;stroke:#3F3B43;stroke-width:1.5;stroke-miterlimit:10;}
	.st22{fill:none;stroke:#D0CAD7;stroke-width:0.75;stroke-miterlimit:10;}
	.st23{fill:none;stroke:#FAF3F0;stroke-width:0.75;stroke-miterlimit:10;}
	.st24{fill:none;stroke:#FAD9DB;stroke-miterlimit:10;}
	.st25{fill:none;stroke:#FAD9DB;stroke-width:0.75;stroke-miterlimit:10;}
	.st26{fill:url(#SVGID_6_);stroke:#BBEFEA;stroke-width:2;stroke-miterlimit:10;}
	.st27{fill:none;stroke:#FFFFFF;stroke-width:0.75;stroke-miterlimit:10;}
	.st28{fill:none;stroke:#BBEFEA;stroke-width:2;stroke-miterlimit:10;}
	.st29{fill:#FFFFFF;}
	.st30{opacity:0.5;fill:#FFFFFF;}
	.st31{fill:url(#SVGID_7_);}
	.st32{fill:#BBEFEA;}
	.st33{fill:url(#SVGID_8_);}
	.st34{fill:url(#SVGID_9_);}
	.st35{clip-path:url(#SVGID_11_);}
	.st36{fill:#D0CAD7;}
	.st37{fill:url(#SVGID_12_);}
	.st38{fill:url(#SVGID_13_);}
	.st39{fill:url(#SVGID_14_);}
	.st40{clip-path:url(#SVGID_16_);}
	.st41{fill:url(#SVGID_17_);}
</style>
<g id="Layer_1" class="st0">
</g>
<g id="Layer_11">
</g>
<g id="Layer_10">
</g>
<g id="Layer_9">
</g>
<g id="Layer_4">
</g>
<g id="Layer_7">
</g>
<g id="Layer_2">
</g>
<g id="Layer_3">
</g>
<g id="Layer_6">
</g>
<g id="Layer_5">
</g>
<g id="Layer_8">
	<g>
		<g>
			<rect x="4.83" y="76.58" class="st32" width="1.5" height="6.9"/>
			<rect x="2.13" y="79.28" class="st32" width="6.9" height="1.5"/>
		</g>
		<g>
			
				<rect x="10.85" y="99.97" transform="matrix(0.7071 -0.7071 0.7071 0.7071 -66.8559 39.5434)" class="st9" width="6.9" height="1"/>
			
				<rect x="13.81" y="97.02" transform="matrix(0.7071 -0.7071 0.7071 0.7071 -66.8529 39.5393)" class="st9" width="1" height="6.9"/>
		</g>
		<g>
			<rect x="180.34" y="68.34" class="st32" width="1" height="6.9"/>
			<rect x="177.39" y="71.29" class="st32" width="6.9" height="1"/>
		</g>
		<g>
			
				<rect x="165.27" y="110.5" transform="matrix(0.7071 -0.7071 0.7071 0.7071 -29.0719 151.8129)" class="st29" width="6.9" height="1"/>
			
				<rect x="168.22" y="107.55" transform="matrix(0.7071 -0.7071 0.7071 0.7071 -29.0719 151.8129)" class="st29" width="1" height="6.9"/>
		</g>
		<g>
			<rect x="47.23" y="15.07" class="st9" width="1" height="6.9"/>
			<rect x="44.28" y="18.02" class="st9" width="6.9" height="1"/>
		</g>
		<g>
			
				<rect x="63.03" y="3.22" transform="matrix(0.7071 -0.7071 0.7071 0.7071 16.6631 48.1693)" class="st32" width="6.9" height="1.5"/>
			
				<rect x="65.73" y="0.52" transform="matrix(0.7071 -0.7071 0.7071 0.7071 16.6653 48.1718)" class="st32" width="1.5" height="6.9"/>
		</g>
		<path class="st32" d="M148.81,18.14c-2.78,0-5.05-2.26-5.05-5.05s2.26-5.05,5.05-5.05s5.05,2.26,5.05,5.05
			S151.59,18.14,148.81,18.14z M148.81,9.05c-2.23,0-4.05,1.82-4.05,4.05s1.82,4.05,4.05,4.05s4.05-1.82,4.05-4.05
			S151.04,9.05,148.81,9.05z"/>
		<path class="st29" d="M189.33,104.72c-2.22,0-4.02-1.8-4.02-4.02s1.8-4.02,4.02-4.02s4.02,1.8,4.02,4.02
			S191.55,104.72,189.33,104.72z M189.33,98.18c-1.39,0-2.52,1.13-2.52,2.52s1.13,2.52,2.52,2.52s2.52-1.13,2.52-2.52
			S190.72,98.18,189.33,98.18z"/>
		<g>
			<g>
				<linearGradient id="SVGID_1_" gradientUnits="userSpaceOnUse" x1="149.1294" y1="30.6502" x2="198.4547" y2="30.6502">
					<stop  offset="0" style="stop-color:#FFFFFF"/>
					<stop  offset="0.646" style="stop-color:#D0CAD7"/>
				</linearGradient>
				<circle class="st2" cx="173.79" cy="30.65" r="24.66"/>
			</g>
			<path class="st29" d="M177.55,20.73c-1.51,0-2.29-0.58-2.98-1.1c-0.65-0.48-1.21-0.9-2.38-0.9c-1.17,0-1.73,0.42-2.38,0.9
				c-0.69,0.52-1.47,1.1-2.98,1.1c-1.51,0-2.29-0.58-2.98-1.1c-0.65-0.48-1.21-0.9-2.38-0.9c-1.17,0-1.73,0.42-2.38,0.9
				c-0.69,0.52-1.47,1.1-2.98,1.1c-1.51,0-2.29-0.58-2.98-1.1c-0.65-0.48-1.21-0.9-2.38-0.9v-1c1.51,0,2.29,0.58,2.98,1.1
				c0.65,0.48,1.21,0.9,2.38,0.9s1.73-0.42,2.38-0.9c0.69-0.52,1.47-1.1,2.98-1.1c1.5,0,2.29,0.58,2.98,1.1
				c0.65,0.48,1.21,0.9,2.38,0.9c1.17,0,1.73-0.42,2.38-0.9c0.69-0.52,1.47-1.1,2.98-1.1c1.51,0,2.29,0.58,2.98,1.1
				c0.65,0.48,1.21,0.9,2.38,0.9c1.17,0,1.73-0.42,2.38-0.9c0.69-0.52,1.47-1.1,2.98-1.1v1c-1.18,0-1.73,0.42-2.38,0.9
				C179.84,20.15,179.06,20.73,177.55,20.73z"/>
			<path class="st29" d="M177.55,25.34c-1.51,0-2.29-0.58-2.98-1.1c-0.65-0.48-1.21-0.9-2.38-0.9c-1.17,0-1.73,0.42-2.38,0.9
				c-0.69,0.52-1.47,1.1-2.98,1.1c-1.51,0-2.29-0.58-2.98-1.1c-0.65-0.48-1.21-0.9-2.38-0.9c-1.17,0-1.73,0.42-2.38,0.9
				c-0.69,0.52-1.47,1.1-2.98,1.1c-1.51,0-2.29-0.58-2.98-1.1c-0.65-0.48-1.21-0.9-2.38-0.9v-1c1.51,0,2.29,0.58,2.98,1.1
				c0.65,0.48,1.21,0.9,2.38,0.9s1.73-0.42,2.38-0.9c0.69-0.52,1.47-1.1,2.98-1.1c1.5,0,2.29,0.58,2.98,1.1
				c0.65,0.48,1.21,0.9,2.38,0.9c1.17,0,1.73-0.42,2.38-0.9c0.69-0.52,1.47-1.1,2.98-1.1c1.51,0,2.29,0.58,2.98,1.1
				c0.65,0.48,1.21,0.9,2.38,0.9c1.17,0,1.73-0.42,2.38-0.9c0.69-0.52,1.47-1.1,2.98-1.1v1c-1.18,0-1.73,0.42-2.38,0.9
				C179.84,24.76,179.06,25.34,177.55,25.34z"/>
			<path class="st29" d="M187.17,40.68c-1.51,0-2.29-0.58-2.98-1.1c-0.65-0.48-1.21-0.9-2.38-0.9c-1.17,0-1.73,0.42-2.38,0.9
				c-0.69,0.52-1.47,1.1-2.98,1.1c-1.5,0-2.29-0.58-2.98-1.1c-0.65-0.48-1.21-0.9-2.38-0.9c-1.17,0-1.73,0.42-2.38,0.9
				c-0.69,0.52-1.47,1.1-2.98,1.1s-2.29-0.58-2.98-1.1c-0.65-0.48-1.21-0.9-2.38-0.9v-1c1.51,0,2.29,0.58,2.98,1.1
				c0.65,0.48,1.21,0.9,2.38,0.9c1.17,0,1.73-0.42,2.38-0.9c0.69-0.52,1.47-1.1,2.98-1.1c1.5,0,2.29,0.58,2.98,1.1
				c0.65,0.48,1.21,0.9,2.38,0.9c1.17,0,1.73-0.42,2.38-0.9c0.69-0.52,1.47-1.1,2.98-1.1c1.51,0,2.29,0.58,2.98,1.1
				c0.65,0.48,1.21,0.9,2.38,0.9s1.73-0.42,2.38-0.9c0.69-0.51,1.47-1.1,2.98-1.1v1c-1.17,0-1.73,0.42-2.38,0.9
				C189.46,40.1,188.67,40.68,187.17,40.68z"/>
			<path class="st29" d="M187.43,45.31c-1.51,0-2.29-0.58-2.98-1.1c-0.65-0.48-1.21-0.9-2.38-0.9c-1.17,0-1.73,0.42-2.38,0.9
				c-0.69,0.52-1.47,1.1-2.98,1.1c-1.5,0-2.29-0.58-2.98-1.1c-0.65-0.48-1.21-0.9-2.38-0.9c-1.17,0-1.73,0.42-2.38,0.9
				c-0.69,0.52-1.47,1.1-2.98,1.1c-1.51,0-2.29-0.58-2.98-1.1c-0.65-0.48-1.21-0.9-2.38-0.9v-1c1.51,0,2.29,0.58,2.98,1.1
				c0.65,0.48,1.21,0.9,2.38,0.9c1.17,0,1.73-0.42,2.38-0.9c0.69-0.52,1.47-1.1,2.98-1.1c1.51,0,2.29,0.58,2.98,1.1
				c0.65,0.48,1.21,0.9,2.38,0.9c1.17,0,1.73-0.42,2.38-0.9c0.69-0.52,1.47-1.1,2.98-1.1c1.51,0,2.29,0.58,2.98,1.1
				c0.65,0.48,1.21,0.9,2.38,0.9c1.17,0,1.73-0.42,2.38-0.9c0.69-0.52,1.47-1.1,2.98-1.1v1c-1.18,0-1.73,0.42-2.38,0.9
				C189.72,44.72,188.94,45.31,187.43,45.31z"/>
		</g>
		<g>
			<linearGradient id="SVGID_2_" gradientUnits="userSpaceOnUse" x1="98.3925" y1="146.7822" x2="98.3925" y2="303.9301">
				<stop  offset="0" style="stop-color:#FFFFFF"/>
				<stop  offset="0.646" style="stop-color:#FAD9DB"/>
			</linearGradient>
			<path class="st12" d="M104.42,122.5H92.37C21.41,122.5,23,174.76,23,183.01c0,0,11.37,3.45,75.04,3.45s75.75-3.45,75.75-3.45
				C173.79,174.76,175.38,122.5,104.42,122.5z"/>
			<path class="st11" d="M98.04,187.21c-63.06,0-74.79-3.34-75.26-3.48l-0.53-0.16l0-1.08c-0.06-17.89,5.16-32.23,15.53-42.63
				c11.97-12.01,30.34-18.1,54.6-18.1h12.05c24.26,0,42.63,6.09,54.6,18.1c10.36,10.4,15.59,24.74,15.53,42.63l0,1.09l-0.54,0.16
				C173.5,183.87,161.09,187.21,98.04,187.21z M23.74,182.41c2.88,0.62,18.63,3.29,74.29,3.29c55.78,0,72.03-2.69,75.01-3.3
				c0.05-17.44-5.03-31.4-15.09-41.5c-11.68-11.72-29.69-17.66-53.53-17.66H92.37c-23.84,0-41.86,5.94-53.53,17.66
				C28.77,151.01,23.7,164.97,23.74,182.41z"/>
		</g>
		<g>
			<path class="st29" d="M51.3,177.93c-3.1-17.67-11.75-30.09-15.03-34.29c-0.71-0.91-1.98-1.16-2.99-0.58l-5.04,2.91l-4.88,2.82
				c-1.27,0.73-1.54,2.45-0.57,3.54l24.49,27.54C48.84,181.61,51.71,180.23,51.3,177.93z"/>
			<path class="st11" d="M48.99,181.41c-0.84,0-1.65-0.36-2.26-1.04l-24.49-27.54c-0.61-0.69-0.88-1.61-0.73-2.52
				c0.15-0.91,0.69-1.7,1.49-2.17l9.92-5.74c1.31-0.76,3.01-0.43,3.95,0.77c3.53,4.52,12.08,16.94,15.18,34.62l0,0
				c0.24,1.38-0.42,2.67-1.69,3.29C49.91,181.31,49.45,181.41,48.99,181.41z M34.44,143.5c-0.27,0-0.53,0.07-0.78,0.21l-9.92,5.74
				c-0.41,0.24-0.69,0.64-0.76,1.1c-0.07,0.47,0.06,0.93,0.38,1.29l24.49,27.54c0.58,0.65,1.34,0.62,1.85,0.37
				c0.52-0.25,1.01-0.82,0.86-1.68c-3.04-17.35-11.42-29.53-14.88-33.96C35.38,143.71,34.91,143.5,34.44,143.5z"/>
		</g>
		<g>
			<path class="st29" d="M144.7,177.93c3.1-17.67,11.75-30.09,15.03-34.29c0.71-0.91,1.98-1.16,2.99-0.58l9.92,5.74
				c1.27,0.73,1.54,2.45,0.57,3.54l-24.49,27.54C147.17,181.61,144.3,180.23,144.7,177.93z"/>
			<path class="st11" d="M147.02,181.41c-0.46,0-0.92-0.1-1.37-0.32c-1.27-0.61-1.93-1.9-1.69-3.29l0,0
				c3.1-17.68,11.65-30.1,15.18-34.62c0.94-1.2,2.64-1.53,3.95-0.77l9.92,5.74c0.8,0.46,1.34,1.25,1.49,2.17
				c0.15,0.91-0.12,1.83-0.73,2.52l-24.49,27.54C148.67,181.05,147.86,181.41,147.02,181.41z M145.44,178.06
				c-0.15,0.86,0.35,1.43,0.86,1.68c0.52,0.25,1.27,0.28,1.85-0.37l24.49-27.54c0.31-0.35,0.45-0.82,0.38-1.29
				c-0.08-0.47-0.35-0.87-0.76-1.1l-9.92-5.74c-0.67-0.39-1.54-0.22-2.02,0.4C156.86,148.54,148.48,160.72,145.44,178.06
				L145.44,178.06z"/>
		</g>
		<ellipse class="st3" cx="98.04" cy="80.03" rx="41.66" ry="42.71"/>
		<path class="st3" d="M94.52,31.01c4.44-2.57,6.51,9.55,6.51,9.55S88.57,34.45,94.52,31.01z"/>
		<path class="st3" d="M104.71,31.29c-4.73-2.01-5.29,10.27-5.29,10.27S111.03,33.98,104.71,31.29z"/>
		<path class="st3" d="M89.31,122.73c-16.46-3.65-42.91,4.21-52.02-19.92s19.03-40.93,33.87-55.1l53.63-0.46
			c14.84,14.17,42.32,31.42,33.21,55.55s-35.56,16.27-52.02,19.92"/>
		<ellipse class="st3" cx="97.66" cy="127.21" rx="18.75" ry="9.22"/>
		<path class="st11" d="M85.85,111v13.52h0.01c0.14,3.4,5.53,6.13,12.17,6.13c6.64,0,12.03-2.73,12.17-6.13h0.01V111H85.85z"/>
		<path class="st10" d="M129.25,76.43c0-17-14.06-30.77-31.4-30.77s-31.4,13.78-31.4,30.77c0,0.55,0.02,1.11,0.05,1.65
			c0.97,33.8,31.35,38.24,31.35,38.24s30.38-4.44,31.35-38.24C129.23,77.53,129.25,76.98,129.25,76.43z"/>
		<path class="st11" d="M119.79,56.24c0,8.59-9.96,15.56-22.24,15.56s-22.24-6.96-22.24-15.56"/>
		<g>
			<defs>
				<path id="SVGID_15_" d="M129.28,76.43c0-17-14.06-30.77-31.4-30.77s-31.4,13.78-31.4,30.77c0,0.55,0.02,1.11,0.05,1.65
					c0.97,33.8,31.35,38.24,31.35,38.24s30.38-4.44,31.35-38.24C129.26,77.53,129.28,76.98,129.28,76.43z"/>
			</defs>
			<clipPath id="SVGID_3_">
				<use xlink:href="#SVGID_15_"  style="overflow:visible;"/>
			</clipPath>
			<g style="clip-path:url(#SVGID_3_);">
				<circle class="st11" cx="112.56" cy="100.74" r="8.01"/>
			</g>
			<g style="clip-path:url(#SVGID_3_);">
				<circle class="st11" cx="83.14" cy="100.74" r="8.01"/>
			</g>
		</g>
		<g>
			<path class="st3" d="M84.15,94.12c-3.07,0-5.56-2.49-5.56-5.56h1.5c0,2.24,1.82,4.06,4.06,4.06c1.64,0,3.1-0.97,3.74-2.48
				l1.38,0.58C88.4,92.79,86.39,94.12,84.15,94.12z"/>
			
				<rect x="78.76" y="92.33" transform="matrix(0.7071 -0.7071 0.7071 0.7071 -42.2147 83.7358)" class="st3" width="2.43" height="1"/>
		</g>
		<g>
			<path class="st3" d="M111.78,94.12c-2.24,0-4.25-1.33-5.12-3.4l1.38-0.58c0.64,1.51,2.11,2.48,3.74,2.48
				c2.24,0,4.06-1.82,4.06-4.06h1.5C117.34,91.63,114.84,94.12,111.78,94.12z"/>
			
				<rect x="106.39" y="92.33" transform="matrix(0.7071 -0.7071 0.7071 0.7071 -34.1218 103.2737)" class="st3" width="2.43" height="1"/>
		</g>
		<path class="st3" d="M76.29,82.77l-2.12-2.12c3.64-3.64,11.67-4.03,14.95-4.03v3C84.44,79.61,78.61,80.44,76.29,82.77z"/>
		<path class="st3" d="M117.81,82.77c-2.33-2.33-8.15-3.15-12.83-3.15v-3c3.28,0,11.31,0.39,14.95,4.03L117.81,82.77z"/>
		<g>
			<path class="st9" d="M97.85,104.92c-3.12,0-5.95-0.98-7.56-2.63l1.07-1.05c1.31,1.34,3.8,2.18,6.48,2.18s5.17-0.84,6.48-2.18
				l1.07,1.05C103.8,103.94,100.97,104.92,97.85,104.92z"/>
		</g>
		<rect x="95.18" y="107.2" class="st11" width="5.39" height="1.5"/>
		<g>
			<path class="st10" d="M132.67,81.07c-0.91-0.17-1.82-0.17-2.69-0.05c1.24,2.43,1.72,5.27,1.19,8.15
				c-0.54,2.89-2.01,5.36-4.03,7.19c0.77,0.43,1.62,0.75,2.53,0.92c4.48,0.83,8.78-2.13,9.61-6.6
				C140.11,86.21,137.15,81.9,132.67,81.07z"/>
		</g>
		<path class="st11" d="M130.82,91.67l-1.34-0.68c0.11-0.21,2.69-5.17,7.22-5.17v1.5C133.1,87.32,130.84,91.63,130.82,91.67z"/>
		<circle class="st3" cx="131.62" cy="94.21" r="1.03"/>
		<circle class="st3" cx="134.91" cy="93.4" r="0.77"/>
		<rect x="97.29" y="90.97" class="st9" width="1.5" height="4.06"/>
		
			<rect x="80.76" y="93.33" transform="matrix(0.7071 -0.7071 0.7071 0.7071 -42.336 85.4429)" class="st3" width="2.43" height="1"/>
		
			<rect x="108.3" y="93.33" transform="matrix(0.7071 -0.7071 0.7071 0.7071 -34.2671 104.9228)" class="st3" width="2.43" height="1"/>
		<g>
			<g>
				<g>
					<path class="st3" d="M97.55,45.65c-17.19,0.18-31.07,14.16-31.07,31.39c0,0.57,0.02,1.13,0.05,1.69
						c0.11,4.03,0.64,7.64,1.46,10.9C75.06,72.49,94.34,68.07,97.55,45.65z"/>
					<path class="st3" d="M67.82,92.01l-0.56-2.2c-0.88-3.47-1.38-7.19-1.49-11.06c-0.03-0.55-0.05-1.13-0.05-1.71
						C65.73,59.5,80,45.08,97.54,44.9l0.87-0.01l-0.12,0.87c-1.89,13.2-9.28,20.31-16.42,27.18c-5.28,5.08-10.27,9.88-13.19,16.97
						L67.82,92.01z M96.67,46.43c-16.32,0.64-29.45,14.19-29.45,30.62c0,0.55,0.02,1.1,0.05,1.65c0.08,2.98,0.4,5.86,0.95,8.6
						c3.13-6.31,7.94-10.94,12.61-15.43C87.63,65.32,94.66,58.56,96.67,46.43z"/>
				</g>
			</g>
			<g>
				<g>
					<path class="st3" d="M129.28,77.05c0-17.34-14.06-31.4-31.4-31.4c-2.81,0-5.53,0.37-8.11,1.06c0,19.77,33.79,20.55,36.77,46.94
						c1.53-4.22,2.54-9.14,2.7-14.92C129.26,78.18,129.28,77.62,129.28,77.05z"/>
					<path class="st3" d="M126.14,96.92l-0.36-3.17c-1.53-13.54-11.2-20.05-20.56-26.35c-8.34-5.61-16.21-10.91-16.22-20.68v-0.58
						l0.56-0.15c2.71-0.72,5.51-1.09,8.31-1.09c17.73,0,32.15,14.42,32.15,32.15c0,0.58-0.02,1.15-0.05,1.73
						c-0.15,5.46-1.08,10.55-2.74,15.14L126.14,96.92z M90.52,47.3c0.31,8.6,7.38,13.36,15.54,18.85
						c8.5,5.72,18.04,12.14,20.7,24.32c1.02-3.64,1.6-7.58,1.71-11.75c0.03-0.56,0.05-1.11,0.05-1.67
						c0-16.9-13.75-30.65-30.65-30.65C95.4,46.4,92.93,46.7,90.52,47.3z"/>
				</g>
			</g>
		</g>
		<path class="st36" d="M119.42,68.69c-3.26-2.42-7.08-4.09-10.77-5.7c-1.87-0.81-3.8-1.65-5.64-2.58
			c-4.02-2.03-7.17-4.41-9.36-7.07l0.58-0.48c2.12,2.58,5.19,4.89,9.12,6.88c1.83,0.92,3.75,1.76,5.6,2.57
			c3.73,1.63,7.59,3.31,10.92,5.78L119.42,68.69z"/>
		<path class="st36" d="M110.52,59.43c-2.99-0.52-5.84-1.79-8.26-3.69l0.46-0.59c2.32,1.82,5.06,3.04,7.93,3.54L110.52,59.43z"/>
		<path class="st10" d="M81.64,103.29c-0.21,0-0.41-0.07-0.59-0.21c-0.29-0.22-0.47-0.58-0.48-0.94c-0.01-0.6,0.36-1.09,0.63-1.4
			c0.17-0.19,0.34-0.36,0.53-0.52c-0.15-0.12-0.33-0.22-0.51-0.28c-0.29-0.08-0.62-0.1-1.06-0.03c-1,0.15-1.8,0.6-2.18,1.25
			l-0.65-0.38c0.5-0.84,1.48-1.43,2.71-1.61c0.55-0.08,0.99-0.06,1.38,0.06c0.34,0.1,0.65,0.29,0.91,0.53
			c0.53-0.35,1.11-0.58,1.7-0.69c1.19-0.21,2.41,0.14,3.2,0.92l-0.53,0.54c-0.62-0.61-1.59-0.88-2.54-0.71
			c-0.47,0.08-0.94,0.27-1.38,0.55c0.06,0.12,0.12,0.26,0.16,0.39c0.21,0.73,0.03,1.53-0.47,2.1c-0.19,0.22-0.39,0.35-0.61,0.41
			C81.78,103.28,81.71,103.29,81.64,103.29z M82.17,100.82c-0.14,0.13-0.28,0.27-0.41,0.42c-0.31,0.35-0.45,0.63-0.44,0.89
			c0,0.13,0.08,0.27,0.19,0.36c0.04,0.03,0.11,0.07,0.18,0.05c0.07-0.02,0.14-0.08,0.23-0.17c0.33-0.37,0.45-0.92,0.31-1.4
			C82.2,100.91,82.19,100.87,82.17,100.82z"/>
		<path class="st10" d="M114.07,103.04c-0.07,0-0.15-0.01-0.22-0.03c-0.22-0.05-0.42-0.19-0.61-0.41c-0.5-0.57-0.68-1.38-0.47-2.1
			c0.04-0.14,0.09-0.27,0.16-0.39c-0.44-0.28-0.91-0.47-1.38-0.55c-0.95-0.17-1.92,0.1-2.54,0.71l-0.53-0.54
			c0.79-0.78,2.02-1.13,3.2-0.92c0.59,0.11,1.16,0.34,1.7,0.69c0.25-0.24,0.57-0.43,0.91-0.53c0.4-0.12,0.83-0.13,1.38-0.06
			c1.23,0.18,2.22,0.77,2.71,1.61l-0.65,0.38c-0.38-0.65-1.17-1.1-2.18-1.25c-0.43-0.06-0.77-0.05-1.06,0.03
			c-0.19,0.06-0.36,0.15-0.51,0.28c0.18,0.16,0.36,0.34,0.53,0.52c0.28,0.31,0.65,0.8,0.63,1.4c-0.01,0.36-0.19,0.72-0.48,0.94
			C114.48,102.97,114.27,103.04,114.07,103.04z M113.53,100.58c-0.02,0.04-0.03,0.09-0.05,0.14c-0.14,0.48-0.02,1.03,0.31,1.4
			c0.09,0.1,0.16,0.16,0.23,0.17c0.07,0.02,0.13-0.02,0.18-0.05c0.11-0.08,0.18-0.23,0.19-0.36c0.01-0.26-0.14-0.54-0.44-0.89
			C113.82,100.84,113.68,100.7,113.53,100.58z"/>
		<path class="st11" d="M53.29,170.52c-1.96-7.89-5.13-15.38-9.43-22.28l0.85-0.53c4.35,6.98,7.57,14.58,9.55,22.57L53.29,170.52z"
			/>
		<path class="st11" d="M142.58,173.37l-0.74-0.13c0.33-1.93,0.77-3.87,1.3-5.77l0.72,0.2C143.34,169.55,142.9,171.47,142.58,173.37
			z"/>
		<path class="st11" d="M145.13,164.06l-0.94-0.33c1.99-5.62,4.8-10.87,8.36-15.6l0.8,0.6
			C149.85,153.38,147.09,158.53,145.13,164.06z"/>
		<path class="st36" d="M60.56,120.9c-1.11,0-2.22-0.06-3.33-0.22c-4.26-0.61-7.73-2.66-9.52-5.62c-0.62-1.01-1.01-2.21-1.16-3.46
			c-0.65-0.01-1.3-0.11-1.94-0.29c-2.99-0.84-5.59-3.33-6.97-6.67c-1.09-2.64-1.48-5.7-1.24-9.65l0.75,0.05
			c-0.24,3.83,0.14,6.79,1.18,9.32c1.29,3.13,3.71,5.46,6.47,6.23c0.55,0.16,1.12,0.24,1.68,0.26c-0.08-2.39,0.79-4.81,2.84-6.26
			c1.21-0.85,3.01-1.15,3.99-0.03c0.83,0.96,0.57,2.37,0.04,3.36c-1.12,2.11-3.52,3.48-6.07,3.65c0.14,1.11,0.5,2.18,1.05,3.08
			c1.68,2.77,4.96,4.68,8.99,5.26c3.34,0.48,6.79,0.06,10.13-0.34l0.82-0.1c3.65-0.43,7.52-0.78,11.17,0.11l-0.18,0.73
			c-3.52-0.87-7.17-0.54-10.9-0.1l-0.82,0.1C65.26,120.62,62.91,120.9,60.56,120.9z M51.59,104.59c-0.6,0-1.28,0.24-1.82,0.62
			c-1.84,1.29-2.61,3.48-2.53,5.63c2.31-0.15,4.47-1.37,5.47-3.26c0.39-0.74,0.64-1.85,0.05-2.52
			C52.47,104.73,52.05,104.59,51.59,104.59z"/>
		<path class="st36" d="M116.07,121.01l-0.38-0.64c2.39-1.42,5.38-1.32,7.42-1.12c0.59,0.06,1.18,0.13,1.77,0.2
			c1.82,0.22,3.7,0.45,5.52,0.21c1.95-0.25,4.31-1.24,5.34-3.25c-1.64-0.5-3.21-1.26-4.61-2.27c-0.77-0.55-1.81-1.43-2.02-2.68
			c-0.16-0.92,0.21-1.84,1.02-2.53c0.97-0.83,2.33-1.12,3.44-0.75c2.18,0.73,3.2,3.11,3.4,4.91c0.12,1.03,0.04,1.98-0.22,2.82
			c4.41,1.1,9.31,0.31,13.02-2.37c7.19-5.19,8.27-15.07,8.28-20.5h0.75c-0.01,5.57-1.13,15.72-8.59,21.11
			c-3.92,2.83-9.09,3.65-13.73,2.47c-1.12,2.37-3.78,3.51-5.98,3.79c-1.91,0.25-3.84,0.01-5.71-0.21c-0.58-0.07-1.17-0.14-1.75-0.2
			C120.94,119.79,118.25,119.72,116.07,121.01z M132.56,108.77c-0.68,0-1.4,0.26-1.95,0.73c-0.6,0.51-0.88,1.18-0.77,1.83
			c0.17,0.98,1.06,1.72,1.72,2.2c1.36,0.98,2.87,1.71,4.46,2.19c0.24-0.75,0.31-1.6,0.2-2.54c-0.18-1.59-1.04-3.66-2.89-4.29
			C133.08,108.81,132.82,108.77,132.56,108.77z"/>
		<path class="st36" d="M69,77.03l-0.61-0.43c1.81-2.58,4.04-4.79,6.65-6.56l0.42,0.62C72.93,72.38,70.76,74.52,69,77.03z"/>
		<path class="st36" d="M68.53,72.87l-0.58-0.47c2-2.44,4.39-4.47,7.12-6.04l0.37,0.65C72.8,68.53,70.47,70.51,68.53,72.87z"/>
		<path class="st11" d="M99.26,179.67c-0.4-13.4-0.47-27-0.21-40.42l1,0.02c-0.27,13.4-0.19,26.98,0.21,40.37L99.26,179.67z"/>
		<g>
			<linearGradient id="SVGID_5_" gradientUnits="userSpaceOnUse" x1="97.3925" y1="28.8964" x2="97.3925" y2="164.667">
				<stop  offset="0.5992" style="stop-color:#FFFFFF;stop-opacity:0"/>
				<stop  offset="0.9155" style="stop-color:#BBEFEA;stop-opacity:0.75"/>
			</linearGradient>
			<circle style="fill:url(#SVGID_5_);" cx="97.39" cy="80.11" r="67.89"/>
			<path class="st32" d="M97.39,149c-37.98,0-68.89-30.9-68.89-68.88s30.9-68.89,68.89-68.89s68.89,30.9,68.89,68.89
				S135.38,149,97.39,149z M97.39,13.23c-36.88,0-66.89,30-66.89,66.89S60.51,147,97.39,147s66.89-30,66.89-66.88
				S134.27,13.23,97.39,13.23z"/>
		</g>
		<g>
			<path class="st32" d="M163.82,183.87c-5.63,0-8.47-1.59-11.22-3.13c-2.64-1.48-5.14-2.87-10.25-2.87c-5.11,0-7.6,1.4-10.25,2.87
				c-2.75,1.54-5.59,3.13-11.22,3.13c-5.63,0-8.47-1.59-11.22-3.13c-2.64-1.48-5.14-2.87-10.25-2.87c-5.11,0-7.6,1.4-10.25,2.87
				c-2.75,1.54-5.59,3.13-11.22,3.13s-8.47-1.59-11.22-3.13c-2.64-1.48-5.14-2.87-10.25-2.87c-5.11,0-7.6,1.4-10.24,2.87
				c-2.75,1.54-5.59,3.13-11.22,3.13c-5.63,0-8.47-1.59-11.22-3.13c-2.64-1.48-5.14-2.87-10.24-2.87v-2c5.63,0,8.47,1.59,11.22,3.13
				c2.64,1.48,5.14,2.87,10.24,2.87s7.6-1.4,10.24-2.87c2.75-1.54,5.59-3.13,11.22-3.13s8.47,1.59,11.22,3.13
				c2.64,1.48,5.14,2.87,10.25,2.87s7.6-1.4,10.25-2.87c2.75-1.54,5.59-3.13,11.22-3.13c5.63,0,8.47,1.59,11.22,3.13
				c2.64,1.48,5.14,2.87,10.25,2.87c5.11,0,7.6-1.4,10.25-2.87c2.75-1.54,5.59-3.13,11.22-3.13c5.63,0,8.47,1.59,11.22,3.13
				c2.64,1.48,5.14,2.87,10.25,2.87c5.11,0,7.6-1.4,10.25-2.87c2.75-1.54,5.6-3.13,11.22-3.13v2c-5.11,0-7.6,1.4-10.25,2.87
				C172.3,182.28,169.45,183.87,163.82,183.87z"/>
			<path class="st29" d="M185.29,177.37c-10.74,0-10.74,6-21.47,6c-10.74,0-10.74-6-21.47-6c-10.73,0-10.73,6-21.47,6
				c-10.73,0-10.73-6-21.47-6c-10.73,0-10.73,6-21.47,6c-10.73,0-10.73-6-21.47-6c-10.73,0-10.73,6-21.46,6
				c-10.73,0-10.73-6-21.46-6v26.94h171.74V177.37z"/>
		</g>
		
			<ellipse transform="matrix(0.7071 -0.7071 0.7071 0.7071 3.4893 106.1774)" class="st30" cx="129.91" cy="48.88" rx="14.99" ry="23.84"/>
		
			<ellipse transform="matrix(0.7071 -0.7071 0.7071 0.7071 3.6548 76.0045)" class="st30" cx="93.57" cy="33.59" rx="5.84" ry="9.29"/>
		<g>
			
				<ellipse transform="matrix(0.7071 -0.7071 0.7071 0.7071 -4.5776 86.7457)" class="st30" cx="102.42" cy="48.9" rx="3.85" ry="6.12"/>
		</g>
	</g>
</g>
</svg>
