<svg width="1310" height="1093" viewBox="0 0 1310 1093" fill="none" xmlns="http://www.w3.org/2000/svg">
<g clip-path="url(#clip0)">
<path d="M565.724 135.067C595.763 7.76396 115.332 583.941 53.0408 719.114C38.2876 751.128 24.9586 782.361 29.3061 824.492C40.2199 930.257 334.282 765.892 372 762C409.719 758.108 298.385 1021.45 359.892 1063.38C421.399 1105.31 644.226 927.461 693.601 886.385C768 824.492 694.56 908.616 709.003 972.461C742.206 1119.24 1085.14 597.146 1194.66 375.828C1297.96 167.059 1392.16 -232.845 960.488 133.376C658 390 777.362 217.859 819.352 107.799C916.925 -147.954 509.763 372.229 565.724 135.067Z" fill="#29232F"/>
<path d="M493.711 913V940.421" stroke="#FAF3F0" stroke-width="4" stroke-linecap="round" stroke-linejoin="bevel"/>
<path d="M507.421 926.71L480 926.71" stroke="#FAF3F0" stroke-width="4" stroke-linecap="round" stroke-linejoin="bevel"/>
<path d="M503.405 936.405L484.016 917.016" stroke="#FAF3F0" stroke-width="4" stroke-linecap="round" stroke-linejoin="bevel"/>
<path d="M484.016 936.405L503.405 917.016" stroke="#FAF3F0" stroke-width="4" stroke-linecap="round" stroke-linejoin="bevel"/>
<path d="M548.521 875V894.042" stroke="#FAF3F0" stroke-width="2" stroke-linecap="round" stroke-linejoin="bevel"/>
<path d="M558.042 884.521L539 884.521" stroke="#FAF3F0" stroke-width="2" stroke-linecap="round" stroke-linejoin="bevel"/>
<path d="M555.253 891.253L541.788 877.789" stroke="#FAF3F0" stroke-width="2" stroke-linecap="round" stroke-linejoin="bevel"/>
<path d="M541.788 891.253L555.253 877.789" stroke="#FAF3F0" stroke-width="2" stroke-linecap="round" stroke-linejoin="bevel"/>
<path d="M144.236 684V698.472" stroke="#FAF3F0" stroke-width="2" stroke-linecap="round" stroke-linejoin="bevel"/>
<path d="M151.472 691.236L137 691.236" stroke="#FAF3F0" stroke-width="2" stroke-linecap="round" stroke-linejoin="bevel"/>
<path d="M149.353 696.353L139.119 686.119" stroke="#FAF3F0" stroke-width="2" stroke-linecap="round" stroke-linejoin="bevel"/>
<path d="M139.119 696.353L149.352 686.119" stroke="#FAF3F0" stroke-width="2" stroke-linecap="round" stroke-linejoin="bevel"/>
</g>
<defs>
<clipPath id="clip0">
<rect width="1310" height="1093" fill="white"/>
</clipPath>
</defs>
</svg>
