<svg width="1476" height="900" viewBox="0 0 1476 900" fill="none" xmlns="http://www.w3.org/2000/svg">
<g clip-path="url(#clip0)">
<path d="M636.047 32.7876C660.354 -106.981 210.929 364.782 81.2684 501.776C50.5594 534.222 22.3126 566.076 20.1423 613.257C14.694 731.698 308.756 608.188 370.305 611.019C431.855 613.85 248.04 806.47 337.903 864.213C427.767 921.956 667.553 631.282 695.184 701.054C709.318 736.747 662.576 774.271 671.928 847.25C693.428 1015.02 1263.11 606.531 1415.37 366.336C1567.63 126.14 1361.31 136.43 1083.34 215.972C805.374 295.514 954.048 181.438 935.904 46.5798C917.759 -88.2781 588.61 305.552 636.047 32.7876Z" fill="#29232F"/>
<path d="M1300.52 347V366.042" stroke="#FAF3F0" stroke-width="2" stroke-linecap="round" stroke-linejoin="bevel"/>
<path d="M1310.04 356.521L1291 356.521" stroke="#FAF3F0" stroke-width="2" stroke-linecap="round" stroke-linejoin="bevel"/>
<path d="M1307.25 363.253L1293.79 349.789" stroke="#FAF3F0" stroke-width="2" stroke-linecap="round" stroke-linejoin="bevel"/>
<path d="M1293.79 363.253L1307.25 349.789" stroke="#FAF3F0" stroke-width="2" stroke-linecap="round" stroke-linejoin="bevel"/>
<circle cx="1179.75" cy="366.333" r="55.3331" stroke="#FAF3F0" stroke-width="2"/>
<path d="M1252.53 350.958C1252.72 351.644 1252.59 352.51 1251.95 353.61C1251.3 354.712 1250.2 355.955 1248.61 357.312C1245.45 360.022 1240.57 363.037 1234.29 366.163C1221.74 372.406 1203.82 378.998 1183.5 384.443C1163.18 389.888 1144.36 393.14 1130.38 394.005C1123.37 394.439 1117.64 394.27 1113.54 393.504C1111.49 393.12 1109.92 392.597 1108.81 391.964C1107.7 391.332 1107.16 390.647 1106.97 389.962C1106.79 389.276 1106.92 388.41 1107.56 387.311C1108.2 386.208 1109.31 384.965 1110.89 383.608C1114.05 380.898 1118.94 377.883 1125.22 374.758C1137.76 368.514 1155.69 361.922 1176.01 356.477C1196.33 351.032 1215.14 347.781 1229.13 346.915C1236.13 346.482 1241.87 346.65 1245.96 347.417C1248.01 347.8 1249.59 348.324 1250.7 348.957C1251.8 349.588 1252.35 350.273 1252.53 350.958Z" stroke="#FAF3F0" stroke-width="2"/>
<path d="M412.236 736V750.472" stroke="#FAF3F0" stroke-width="2" stroke-linecap="round" stroke-linejoin="bevel"/>
<path d="M419.473 743.236L405.001 743.236" stroke="#FAF3F0" stroke-width="2" stroke-linecap="round" stroke-linejoin="bevel"/>
<path d="M417.354 748.353L407.12 738.119" stroke="#FAF3F0" stroke-width="2" stroke-linecap="round" stroke-linejoin="bevel"/>
<path d="M407.119 748.353L417.352 738.119" stroke="#FAF3F0" stroke-width="2" stroke-linecap="round" stroke-linejoin="bevel"/>
<path d="M841.711 635V662.421" stroke="#FAF3F0" stroke-width="4" stroke-linecap="round" stroke-linejoin="bevel"/>
<path d="M855.42 648.71L827.999 648.71" stroke="#FAF3F0" stroke-width="4" stroke-linecap="round" stroke-linejoin="bevel"/>
<path d="M851.404 658.405L832.015 639.016" stroke="#FAF3F0" stroke-width="4" stroke-linecap="round" stroke-linejoin="bevel"/>
<path d="M832.016 658.405L851.405 639.016" stroke="#FAF3F0" stroke-width="4" stroke-linecap="round" stroke-linejoin="bevel"/>
<path d="M896.521 597V616.042" stroke="#FAF3F0" stroke-width="2" stroke-linecap="round" stroke-linejoin="bevel"/>
<path d="M906.043 606.521L887.001 606.521" stroke="#FAF3F0" stroke-width="2" stroke-linecap="round" stroke-linejoin="bevel"/>
<path d="M903.254 613.253L889.789 599.789" stroke="#FAF3F0" stroke-width="2" stroke-linecap="round" stroke-linejoin="bevel"/>
<path d="M889.789 613.253L903.254 599.789" stroke="#FAF3F0" stroke-width="2" stroke-linecap="round" stroke-linejoin="bevel"/>
</g>
<defs>
<clipPath id="clip0">
<rect width="1476" height="900" fill="white"/>
</clipPath>
</defs>
</svg>
