<svg width="1440" height="900" viewBox="0 0 1440 900" fill="none" xmlns="http://www.w3.org/2000/svg">
<path d="M612.712 115.522C635.255 3.86812 201.614 377.804 76.5148 486.397C46.886 512.116 19.6488 537.382 17.9129 575.12C13.5549 669.857 298.765 573.365 358.691 576.122C418.616 578.878 241.255 731.553 329.174 778.477C417.094 825.401 648.148 594.707 675.596 650.761C689.637 679.437 644.444 709.092 654.128 767.567C676.391 901.996 1227.58 579.65 1373.85 388.652C1520.12 197.655 1319.4 204.244 1049.5 265.679C779.605 327.114 923.391 237.012 904.657 128.95C885.923 20.8875 568.719 333.418 612.712 115.522Z" fill="#29232F"/>
</svg>
