<svg width="1310" height="1093" viewBox="0 0 1310 1093" fill="none" xmlns="http://www.w3.org/2000/svg">
<g clip-path="url(#clip0)">
<path d="M609.67 126.735C653.136 3.36921 113.905 524.928 37.5303 652.674C19.4416 682.929 2.85254 712.559 2.6746 754.913C2.2279 861.239 312.165 729.227 350.084 729.387C388.002 729.546 249.175 979.487 305.851 1027.75C362.526 1076.01 603.077 922.98 656.557 887.415C737.142 833.823 655.136 909.62 662.676 974.643C680.01 1124.13 1076.76 641.656 1209.28 433.303C1334.3 236.764 1470.68 -150.789 1002.36 167.223C674.185 390.066 811.252 231.661 864.759 126.716C989.094 -117.15 528.694 356.562 609.67 126.735Z" fill="#29232F"/>
<path d="M395.711 859V886.421" stroke="#FAF3F0" stroke-width="4" stroke-linecap="round" stroke-linejoin="bevel"/>
<path d="M409.421 872.71L382 872.71" stroke="#FAF3F0" stroke-width="4" stroke-linecap="round" stroke-linejoin="bevel"/>
<path d="M405.405 882.405L386.016 863.016" stroke="#FAF3F0" stroke-width="4" stroke-linecap="round" stroke-linejoin="bevel"/>
<path d="M386.016 882.405L405.405 863.016" stroke="#FAF3F0" stroke-width="4" stroke-linecap="round" stroke-linejoin="bevel"/>
<path d="M450.521 821V840.042" stroke="#FAF3F0" stroke-width="2" stroke-linecap="round" stroke-linejoin="bevel"/>
<path d="M460.042 830.521L441 830.521" stroke="#FAF3F0" stroke-width="2" stroke-linecap="round" stroke-linejoin="bevel"/>
<path d="M457.253 837.253L443.788 823.789" stroke="#FAF3F0" stroke-width="2" stroke-linecap="round" stroke-linejoin="bevel"/>
<path d="M443.788 837.253L457.253 823.789" stroke="#FAF3F0" stroke-width="2" stroke-linecap="round" stroke-linejoin="bevel"/>
<path d="M144.236 684V698.472" stroke="#FAF3F0" stroke-width="2" stroke-linecap="round" stroke-linejoin="bevel"/>
<path d="M151.472 691.236L137 691.236" stroke="#FAF3F0" stroke-width="2" stroke-linecap="round" stroke-linejoin="bevel"/>
<path d="M149.353 696.353L139.119 686.119" stroke="#FAF3F0" stroke-width="2" stroke-linecap="round" stroke-linejoin="bevel"/>
<path d="M139.119 696.353L149.352 686.119" stroke="#FAF3F0" stroke-width="2" stroke-linecap="round" stroke-linejoin="bevel"/>
</g>
<defs>
<clipPath id="clip0">
<rect width="1310" height="1093" fill="white"/>
</clipPath>
</defs>
</svg>
