<svg width="1310" height="1093" viewBox="0 0 1310 1093" fill="none" xmlns="http://www.w3.org/2000/svg">
<g clip-path="url(#clip0)">
<path d="M565.724 135.067C595.763 7.76396 115.332 583.941 53.0408 719.114C38.2876 751.128 24.9586 782.361 29.3061 824.492C40.2199 930.257 334.282 765.892 372 762C409.719 758.108 298.385 1021.45 359.892 1063.38C421.399 1105.31 644.226 927.461 693.601 886.385C768 824.492 694.56 908.616 709.003 972.461C742.206 1119.24 1085.14 597.146 1194.66 375.828C1297.96 167.059 1392.16 -232.845 960.488 133.376C658 390 777.362 217.859 819.352 107.799C916.925 -147.954 509.763 372.229 565.724 135.067Z" fill="#29232F"/>
</g>
<defs>
<clipPath id="clip0">
<rect width="1310" height="1093" fill="white"/>
</clipPath>
</defs>
</svg>
