<svg width="1509" height="900" viewBox="0 0 1509 900" fill="none" xmlns="http://www.w3.org/2000/svg">
<g clip-path="url(#clip0)">
<path d="M672.901 32.047C709.393 -105.046 220.26 325.41 79.0658 450.484C45.6251 480.106 14.689 509.356 8.38215 556.163C-7.45038 673.668 296.325 576.469 357.388 584.697C418.451 592.924 218.424 768.651 302.867 834.065C387.311 899.479 651.706 630.995 673.1 702.925C684.045 739.722 634.186 772.994 637.091 846.513C643.768 1015.53 1247.14 658.661 1419.91 432.771C1592.68 206.881 1386.26 199.005 1102.38 253.819C818.492 308.633 976.613 208.059 970.387 72.1289C964.16 -63.8016 601.684 299.59 672.901 32.047Z" fill="#29232F"/>
<circle cx="1179.58" cy="373.333" r="55.3331" stroke="#FAF3F0" stroke-width="2"/>
<path d="M1252.36 357.958C1252.55 358.644 1252.42 359.51 1251.77 360.61C1251.13 361.712 1250.02 362.955 1248.44 364.312C1245.28 367.022 1240.4 370.037 1234.12 373.163C1221.57 379.406 1203.65 385.998 1183.33 391.443C1163.01 396.888 1144.19 400.14 1130.2 401.005C1123.2 401.439 1117.47 401.27 1113.37 400.504C1111.32 400.12 1109.74 399.597 1108.64 398.964C1107.53 398.332 1106.98 397.647 1106.8 396.962C1106.62 396.276 1106.75 395.41 1107.39 394.311C1108.03 393.208 1109.14 391.965 1110.72 390.608C1113.88 387.898 1118.77 384.883 1125.05 381.758C1137.59 375.514 1155.51 368.922 1175.83 363.477C1196.15 358.032 1214.97 354.781 1228.96 353.915C1235.96 353.482 1241.7 353.65 1245.79 354.417C1247.84 354.8 1249.42 355.324 1250.53 355.957C1251.63 356.588 1252.18 357.273 1252.36 357.958Z" stroke="#FAF3F0" stroke-width="2"/>
<path d="M406.236 725V739.472" stroke="#FAF3F0" stroke-width="2" stroke-linecap="round" stroke-linejoin="bevel"/>
<path d="M413.473 732.236L399.001 732.236" stroke="#FAF3F0" stroke-width="2" stroke-linecap="round" stroke-linejoin="bevel"/>
<path d="M411.354 737.353L401.12 727.119" stroke="#FAF3F0" stroke-width="2" stroke-linecap="round" stroke-linejoin="bevel"/>
<path d="M401.119 737.353L411.352 727.119" stroke="#FAF3F0" stroke-width="2" stroke-linecap="round" stroke-linejoin="bevel"/>
<path d="M1165.71 468V495.421" stroke="#FAF3F0" stroke-width="4" stroke-linecap="round" stroke-linejoin="bevel"/>
<path d="M1179.42 482.71L1152 481.71" stroke="#FAF3F0" stroke-width="4" stroke-linecap="round" stroke-linejoin="bevel"/>
<path d="M1175.4 491.405L1156.02 472.016" stroke="#FAF3F0" stroke-width="4" stroke-linecap="round" stroke-linejoin="bevel"/>
<path d="M1156.02 491.405L1175.4 472.016" stroke="#FAF3F0" stroke-width="4" stroke-linecap="round" stroke-linejoin="bevel"/>
<path d="M1221.52 444V463.042" stroke="#FAF3F0" stroke-width="2" stroke-linecap="round" stroke-linejoin="bevel"/>
<path d="M1231.04 453.521L1212 453.521" stroke="#FAF3F0" stroke-width="2" stroke-linecap="round" stroke-linejoin="bevel"/>
<path d="M1228.25 460.253L1214.79 446.789" stroke="#FAF3F0" stroke-width="2" stroke-linecap="round" stroke-linejoin="bevel"/>
<path d="M1214.79 460.253L1228.25 446.789" stroke="#FAF3F0" stroke-width="2" stroke-linecap="round" stroke-linejoin="bevel"/>
<path d="M698.521 790V809.042" stroke="#FAF3F0" stroke-width="2" stroke-linecap="round" stroke-linejoin="bevel"/>
<path d="M708.043 799.521L689.001 799.521" stroke="#FAF3F0" stroke-width="2" stroke-linecap="round" stroke-linejoin="bevel"/>
<path d="M705.254 806.253L691.789 792.789" stroke="#FAF3F0" stroke-width="2" stroke-linecap="round" stroke-linejoin="bevel"/>
<path d="M691.789 806.253L705.254 792.789" stroke="#FAF3F0" stroke-width="2" stroke-linecap="round" stroke-linejoin="bevel"/>
</g>
<defs>
<clipPath id="clip0">
<rect width="1509" height="900" fill="white"/>
</clipPath>
</defs>
</svg>
