<svg width="48" height="48" viewBox="0 0 48 48" fill="none" xmlns="http://www.w3.org/2000/svg">
<path d="M13.3333 35.3333C14.8061 35.3333 16 34.1394 16 32.6667C16 31.1939 14.8061 30 13.3333 30C11.8605 30 10.6666 31.1939 10.6666 32.6667C10.6666 34.1394 11.8605 35.3333 13.3333 35.3333Z" fill="#FAD9DB"/>
<path d="M34.3787 35.3333C35.8515 35.3333 37.0454 34.1394 37.0454 32.6667C37.0454 31.1939 35.8515 30 34.3787 30C32.9059 30 31.712 31.1939 31.712 32.6667C31.712 34.1394 32.9059 35.3333 34.3787 35.3333Z" fill="#FAD9DB"/>
<path d="M17.6345 23.9664C17.1228 23.9664 16.7189 24.3704 16.7189 24.882C16.7189 25.7707 15.9918 26.4708 15.1301 26.4708C14.2414 26.4708 13.5413 25.7437 13.5413 24.882C13.5413 24.3704 13.1374 23.9664 12.6257 23.9664C12.1141 23.9664 11.7101 24.3704 11.7101 24.882C11.7101 25.1513 11.7371 25.4206 11.7909 25.663L10.9292 26.5247C10.5791 26.8748 10.5791 27.4672 10.9292 27.8173C11.1177 28.0058 11.3331 28.0866 11.5755 28.0866C11.8178 28.0866 12.0602 28.0058 12.2218 27.8173L12.7065 27.3325C13.3259 27.9519 14.1876 28.3289 15.1032 28.3289C16.9882 28.3289 18.5501 26.794 18.5501 24.882C18.5501 24.3704 18.1461 23.9664 17.6345 23.9664Z" fill="#29232F"/>
<path d="M36.8888 23.9664C36.3771 23.9664 35.9732 24.3704 35.9732 24.882C35.9732 25.7707 35.2461 26.4708 34.3844 26.4708C33.4957 26.4708 32.7956 25.7437 32.7956 24.882C32.7956 24.3704 32.3916 23.9664 31.88 23.9664C31.3683 23.9664 30.9644 24.3704 30.9644 24.882C30.9644 25.1513 30.9913 25.4206 31.0452 25.663L30.1835 26.5247C29.8334 26.8748 29.8334 27.4672 30.1835 27.8173C30.372 28.0058 30.5874 28.0866 30.8297 28.0866C31.0721 28.0866 31.3145 28.0058 31.476 27.8173L31.9608 27.3325C32.5801 27.9519 33.4419 28.3289 34.3574 28.3289C36.2425 28.3289 37.8043 26.794 37.8043 24.882C37.8313 24.3704 37.4004 23.9664 36.8888 23.9664Z" fill="#29232F"/>
<path d="M24 44C12.9819 44 4 35.046 4 24C4 12.9819 12.954 4 24 4C35.0181 4 44 12.954 44 24C44 35.046 35.0181 44 24 44ZM24 5.70153C13.9024 5.70153 5.67364 13.9303 5.67364 24.0279C5.67364 34.1255 13.9024 42.3543 24 42.3543C34.0976 42.3543 42.3264 34.1255 42.3264 24.0279C42.3264 13.9303 34.0976 5.70153 24 5.70153Z" fill="#29232F"/>
<path d="M24.1666 37C19.9749 37 18.7579 34.0818 18.7309 33.9737C18.5416 33.4874 18.785 32.947 19.2718 32.7578C19.7585 32.5687 20.2994 32.8119 20.4887 33.2712C20.5428 33.3793 21.3271 35.1086 24.1666 35.1086C27.0873 35.1086 27.8445 33.2982 27.8445 33.2712C28.0338 32.7849 28.5747 32.5417 29.0615 32.7308C29.5483 32.92 29.7917 33.4604 29.6024 33.9467C29.5753 34.0818 28.3584 37 24.1666 37Z" fill="#29232F"/>
<ellipse cx="36.2999" cy="12.9002" rx="2.1" ry="2.1" fill="white"/>
<path fill-rule="evenodd" clip-rule="evenodd" d="M35.2783 5.46989C35.4828 5.28116 35.7809 5.06677 36.1278 5.06677C36.1347 5.06677 36.1417 5.06692 36.1486 5.06721C36.4926 5.08154 36.7911 5.28975 37.0081 5.49021C37.2424 5.7066 37.4678 5.99442 37.6686 6.31389C37.9491 6.76003 38.2026 7.30179 38.3704 7.86348C38.8901 7.58388 39.4547 7.38553 39.9654 7.27316C40.3305 7.19283 40.6879 7.15201 40.9981 7.16425C41.2787 7.17533 41.6362 7.23319 41.8825 7.46403C41.8903 7.47139 41.8979 7.47899 41.9053 7.48683C42.1374 7.73449 42.1926 8.09211 42.2014 8.37096C42.2111 8.67903 42.1673 9.03293 42.0853 9.39378C41.9704 9.89917 41.7717 10.4569 41.4982 10.9716C42.0616 11.1421 42.6014 11.4008 43.0419 11.6825C43.3558 11.8833 43.6371 12.107 43.8466 12.336C44.0356 12.5425 44.2487 12.842 44.2487 13.1877C44.2487 13.1923 44.2486 13.197 44.2485 13.2016C44.2484 13.2042 44.2483 13.2068 44.2482 13.2094C44.2334 13.5486 44.0244 13.8425 43.8285 14.0535C43.6152 14.2831 43.3314 14.5056 43.0155 14.7047C42.5712 14.9846 42.0297 15.2391 41.4659 15.4068C41.7397 15.9318 41.9354 16.4983 42.046 17.0103C42.1244 17.3731 42.1643 17.7277 42.1516 18.0358C42.14 18.3153 42.0815 18.67 41.8514 18.9154L41.8448 18.9223L41.8402 18.927C41.5927 19.1745 41.2299 19.2353 40.947 19.2456C40.6362 19.257 40.2804 19.2117 39.9193 19.1278C39.4136 19.0103 38.8568 18.8074 38.3434 18.5324C38.173 19.0954 37.9144 19.6347 37.6329 20.0748C37.4321 20.3888 37.2084 20.6701 36.9794 20.8796C36.7729 21.0685 36.4734 21.2816 36.1278 21.2816C35.7766 21.2816 35.4744 21.0686 35.2633 20.874C35.032 20.6608 34.8089 20.3749 34.6101 20.0574C34.3301 19.6105 34.0757 19.0649 33.9082 18.4991C33.3833 18.7727 32.817 18.9684 32.3051 19.079C31.9424 19.1574 31.5877 19.1973 31.2796 19.1845C31.0001 19.1729 30.6454 19.1144 30.4 18.8844C30.3961 18.8807 30.3922 18.8769 30.3884 18.8731C30.1447 18.6295 30.0899 18.2689 30.0811 17.9972C30.0713 17.6938 30.1155 17.3443 30.1974 16.9872C30.3131 16.4834 30.5134 15.9247 30.7882 15.4049C30.2234 15.2345 29.6821 14.9751 29.2406 14.6928C28.9267 14.492 28.6453 14.2683 28.4359 14.0393C28.2469 13.8328 28.0338 13.5333 28.0338 13.1877C28.0338 12.8324 28.2454 12.526 28.4447 12.3086C28.661 12.0728 28.9509 11.8468 29.2719 11.6461C29.7207 11.3656 30.2666 11.1123 30.8303 10.9446C30.5508 10.4251 30.3525 9.86065 30.2402 9.35C30.1599 8.98488 30.119 8.62757 30.1313 8.31737C30.1424 8.03674 30.2002 7.67921 30.4311 7.43297C30.4347 7.42905 30.4385 7.42519 30.4423 7.42139C30.6844 7.17931 31.0446 7.12152 31.3171 7.11003C31.6218 7.09718 31.9736 7.1373 32.3331 7.21576C32.8401 7.32644 33.4026 7.52239 33.9215 7.79705C34.0961 7.24302 34.3533 6.70862 34.6324 6.27082C34.8308 5.95946 35.0516 5.67907 35.2783 5.46989ZM37.8782 13.1876C37.8782 14.1543 37.0946 14.938 36.1279 14.938C35.1612 14.938 34.3775 14.1543 34.3775 13.1876C34.3775 12.2209 35.1612 11.4372 36.1279 11.4372C37.0946 11.4372 37.8782 12.2209 37.8782 13.1876Z" fill="#29232F"/>
</svg>
