<svg width="638" height="466" viewBox="0 0 638 466" fill="none" xmlns="http://www.w3.org/2000/svg">
<path d="M316 283C327.181 270.907 136.252 327.06 84.392 336.825C72.0974 339.153 15.0771 345.528 13.964 350.132C11.1813 361.669 106.401 350.638 130.636 352.662C154.87 354.686 86.7699 380.541 121.883 388.839C156.995 397.137 286.923 371.333 297.447 379.023C307.97 386.714 246.498 404.626 249.786 412.114C257.375 429.317 539.441 384.184 600.762 364.806C662.083 345.427 592.616 334.7 482.573 334.599C372.529 334.498 461.426 304.813 455 291C448.676 277.238 256.551 347.309 316 283Z" fill="url(#paint0_linear)"/>
<path d="M271.997 148.806C272.959 148.806 272.959 147.288 271.997 147.288C271.036 147.288 271.036 148.806 271.997 148.806Z" fill="#FAF3F0"/>
<path d="M182.748 287.898C171.769 301.104 163.573 316.435 158.766 332.98C158.514 333.941 159.981 334.346 160.234 333.385C164.99 317.143 172.984 302.015 183.811 288.96C184.469 288.201 183.406 287.139 182.748 287.898Z" fill="#6D4D96"/>
<path d="M496.183 334.498C491.023 308.896 476.856 285.469 456.517 269.076C455.758 268.469 454.696 269.531 455.454 270.138C475.642 286.38 489.656 309.503 494.767 334.903C494.918 335.864 496.335 335.459 496.183 334.498Z" fill="#6D4D96"/>
<path d="M291.629 190.144L284.646 250.76C284.646 250.76 363.979 267.406 375.616 244.233C387.253 221.059 358.92 156.345 358.92 156.345L291.629 190.144Z" fill="#FAD9DB"/>
<path fill-rule="evenodd" clip-rule="evenodd" d="M359.345 156.159L358.919 156.345C359.345 156.159 359.346 156.159 359.346 156.16L359.347 156.162L359.366 156.207L359.427 156.347C359.481 156.471 359.56 156.655 359.662 156.895C359.868 157.376 360.167 158.084 360.544 158.993C361.297 160.811 362.36 163.433 363.599 166.652C366.076 173.088 369.258 181.914 372.077 191.467C374.896 201.018 377.354 211.309 378.378 220.673C379.4 230.019 379.003 238.522 376.031 244.441C373.017 250.444 365.675 253.783 356.578 255.486C347.449 257.194 336.398 257.284 325.74 256.65C315.076 256.017 304.78 254.658 297.152 253.458C293.337 252.858 290.188 252.297 287.992 251.887C286.894 251.681 286.035 251.514 285.449 251.397C285.156 251.339 284.932 251.293 284.781 251.262L284.609 251.227L284.566 251.218L284.552 251.215C284.551 251.215 284.551 251.215 284.646 250.76L284.551 251.215L284.136 251.128L291.195 189.841L359.149 155.71L359.345 156.159ZM285.157 250.39C285.286 250.416 285.444 250.448 285.631 250.485C286.213 250.601 287.069 250.768 288.163 250.972C290.351 251.382 293.491 251.941 297.296 252.539C304.906 253.736 315.171 255.091 325.795 255.722C336.424 256.354 347.388 256.26 356.407 254.572C365.457 252.878 372.396 249.608 375.2 244.024C378.046 238.356 378.472 230.08 377.454 220.774C376.438 211.487 373.996 201.255 371.185 191.731C368.376 182.208 365.202 173.407 362.731 166.986C361.495 163.776 360.435 161.161 359.685 159.349C359.309 158.443 359.011 157.738 358.807 157.26C358.763 157.157 358.723 157.064 358.688 156.982L292.062 190.447L285.157 250.39Z" fill="url(#paint1_linear)"/>
<path d="M255.707 133.526C220.138 110.808 215.18 148.402 232.382 159.381C249.585 170.361 264.156 170.765 264.156 170.765L255.707 133.526Z" fill="#FAD9DB"/>
<path fill-rule="evenodd" clip-rule="evenodd" d="M234.592 125.975C239.937 125.459 247.022 127.428 255.956 133.134L256.117 133.237L264.741 171.247L264.142 171.23L264.155 170.765C264.142 171.23 264.142 171.23 264.142 171.23L264.141 171.23L264.138 171.23L264.129 171.23L264.094 171.229C264.065 171.228 264.021 171.226 263.964 171.223C263.849 171.217 263.68 171.207 263.46 171.19C263.021 171.157 262.376 171.098 261.55 170.992C259.899 170.78 257.521 170.383 254.604 169.641C248.771 168.158 240.781 165.294 232.131 159.773C227.721 156.958 224.746 152.448 223.321 147.647C221.898 142.849 222.009 137.713 223.83 133.628C225.661 129.52 229.216 126.493 234.592 125.975ZM263.565 170.265L255.295 133.815C246.522 128.243 239.702 126.416 234.682 126.901C229.662 127.385 226.384 130.182 224.679 134.006C222.965 137.851 222.839 142.753 224.213 147.382C225.585 152.008 228.441 156.314 232.632 158.989C241.185 164.448 249.081 167.276 254.834 168.74C257.71 169.472 260.051 169.862 261.669 170.069C262.478 170.173 263.106 170.231 263.53 170.263C263.542 170.264 263.553 170.265 263.565 170.265Z" fill="#FAD9DB"/>
<path d="M232.939 107.266C221.049 205.425 196.005 180.126 163.118 213.014C130.231 245.902 158.16 295.488 207.641 293.97C323.807 290.428 297.194 183.162 297.194 183.162L232.939 107.266Z" fill="#29232F"/>
<path d="M248.117 96.1346C244.423 165.959 263.599 198.847 310.854 198.847C363.979 198.847 367.52 132.565 367.52 132.565C367.52 91.5809 367.52 82.9794 367.52 82.9794L293.905 63.3477L248.117 96.1346Z" fill="#FAF3F0"/>
<path d="M367.268 110.808C369.797 203.907 316.066 211.344 324.869 254.605C331.851 288.91 376.223 293.109 404.607 277.778C454.291 250.962 472.505 282.838 472.505 282.838C472.505 282.838 501.9 228.193 446.094 197.38C379.41 160.494 394.083 115.362 394.083 115.362" fill="#29232F"/>
<path fill-rule="evenodd" clip-rule="evenodd" d="M337.808 113.191C333.475 111.897 326.842 111.405 318.04 115.238L315.812 110.122C325.832 105.758 333.821 106.176 339.404 107.843C342.168 108.668 344.294 109.784 345.748 110.712C346.476 111.176 347.038 111.595 347.431 111.91C347.627 112.067 347.782 112.199 347.894 112.298C347.95 112.347 347.996 112.389 348.031 112.421C348.048 112.437 348.063 112.451 348.075 112.462L348.091 112.478L348.098 112.484L348.101 112.487C348.102 112.488 348.104 112.49 346.17 114.501C344.237 116.513 344.238 116.514 344.239 116.516L344.242 116.518L344.245 116.521L344.25 116.526L344.251 116.527C344.251 116.527 344.251 116.526 344.249 116.525C344.243 116.52 344.228 116.506 344.203 116.484C344.154 116.44 344.066 116.365 343.941 116.264C343.69 116.063 343.291 115.763 342.747 115.417C341.659 114.722 340.002 113.846 337.808 113.191Z" fill="#29232F"/>
<path fill-rule="evenodd" clip-rule="evenodd" d="M254.782 126.169C259.067 122.24 266.051 118.371 276.933 117.887L277.181 123.462C267.623 123.888 261.882 127.23 258.553 130.283C256.867 131.828 255.761 133.336 255.085 134.433C254.748 134.981 254.52 135.424 254.382 135.713C254.313 135.857 254.267 135.963 254.241 136.024C254.229 136.054 254.221 136.073 254.218 136.08C254.217 136.082 254.217 136.083 254.217 136.083L254.217 136.082L254.22 136.076L254.222 136.071L254.223 136.068C254.223 136.066 254.224 136.065 251.608 135.094C248.992 134.124 248.993 134.123 248.993 134.121L248.995 134.117L248.998 134.108L249.006 134.087C249.012 134.072 249.019 134.053 249.028 134.031C249.045 133.987 249.068 133.93 249.097 133.861C249.155 133.724 249.236 133.538 249.344 133.312C249.56 132.858 249.883 132.239 250.334 131.506C251.237 130.041 252.66 128.115 254.782 126.169Z" fill="#29232F"/>
<path d="M231.421 132.059C243.817 119.662 282.016 121.939 300.23 74.3779V37.4419C300.23 37.4419 256.06 26.3105 233.951 59.7047C209.463 96.6406 231.421 132.059 231.421 132.059Z" fill="#29232F"/>
<path d="M291.376 37.4419C335.899 11.1314 406.783 34.912 394.083 115.362C394.083 115.362 350.268 128.517 294.614 72.8599L291.376 37.4419Z" fill="#29232F"/>
<path d="M340.199 173.042C348.302 173.042 354.871 166.473 354.871 158.369C354.871 150.265 348.302 143.696 340.199 143.696C332.095 143.696 325.526 150.265 325.526 158.369C325.526 166.473 332.095 173.042 340.199 173.042Z" fill="#FAD9DB"/>
<path fill-rule="evenodd" clip-rule="evenodd" d="M340.199 144.161C332.352 144.161 325.992 150.522 325.992 158.369C325.992 166.216 332.352 172.577 340.199 172.577C348.046 172.577 354.406 166.216 354.406 158.369C354.406 150.522 348.046 144.161 340.199 144.161ZM325.062 158.369C325.062 150.008 331.839 143.231 340.199 143.231C348.559 143.231 355.336 150.008 355.336 158.369C355.336 166.73 348.559 173.507 340.199 173.507C331.839 173.507 325.062 166.73 325.062 158.369Z" fill="#FAD9DB"/>
<path d="M278.309 184.761C286.413 184.761 292.982 178.192 292.982 170.088C292.982 161.985 286.413 155.415 278.309 155.415C270.206 155.415 263.637 161.985 263.637 170.088C263.637 178.192 270.206 184.761 278.309 184.761Z" fill="#FAD9DB"/>
<path fill-rule="evenodd" clip-rule="evenodd" d="M278.309 155.88C270.463 155.88 264.102 162.241 264.102 170.088C264.102 177.935 270.463 184.296 278.309 184.296C286.156 184.296 292.517 177.935 292.517 170.088C292.517 162.241 286.156 155.88 278.309 155.88ZM263.172 170.088C263.172 161.728 269.949 154.95 278.309 154.95C286.67 154.95 293.447 161.728 293.447 170.088C293.447 178.449 286.67 185.227 278.309 185.227C269.949 185.227 263.172 178.449 263.172 170.088Z" fill="#FAD9DB"/>
<path fill-rule="evenodd" clip-rule="evenodd" d="M267.934 139.309C271.777 136.981 276.709 136.074 281.092 137.995L279.598 141.403C276.594 140.086 272.95 140.62 269.862 142.492C266.768 144.366 264.565 147.383 264.234 150.567L263.983 152.98L256.305 150.037L257.636 146.563L261.007 147.855C262.103 144.259 264.761 141.232 267.934 139.309Z" fill="#6D4D96"/>
<path d="M275.69 152.803C278.624 152.803 281.003 150.425 281.003 147.491C281.003 144.557 278.624 142.178 275.69 142.178C272.756 142.178 270.378 144.557 270.378 147.491C270.378 150.425 272.756 152.803 275.69 152.803Z" fill="#6D4D96"/>
<path d="M298.155 153.917L295.929 160.393L303.569 158.723L298.155 153.917Z" fill="#6D4D96"/>
<path fill-rule="evenodd" clip-rule="evenodd" d="M302.744 176.373C300.874 176.097 299.025 175.481 297.901 174.358L300.532 171.727C300.8 171.995 301.67 172.454 303.286 172.692C304.811 172.917 306.727 172.902 308.764 172.512C312.838 171.732 317.184 169.501 319.883 165.002L323.073 166.916C319.702 172.536 314.307 175.238 309.464 176.166C307.042 176.63 304.706 176.662 302.744 176.373Z" fill="#6D4D96"/>
<path fill-rule="evenodd" clip-rule="evenodd" d="M331.783 128.954C327.587 128.901 323.951 130.522 322.55 133.059L319.294 131.26C321.637 127.018 326.957 125.172 331.83 125.234C335.976 125.286 340.451 126.719 343.275 129.912L345.823 127.396L348.437 130.043L342.598 135.81L341.407 133.672C339.752 130.701 335.941 129.006 331.783 128.954Z" fill="#6D4D96"/>
<path d="M332.559 141.217C335.493 141.217 337.871 138.838 337.871 135.904C337.871 132.97 335.493 130.591 332.559 130.591C329.625 130.591 327.246 132.97 327.246 135.904C327.246 138.838 329.625 141.217 332.559 141.217Z" fill="#6D4D96"/>
<path d="M366.558 115.109C392.867 98.9175 401.266 124.165 388.01 137.371C377.638 147.744 367.368 152.5 362.46 154.321C366.255 142.077 366.761 132.059 366.761 132.059C366.558 126.24 366.558 120.927 366.558 115.109Z" fill="#FAD9DB"/>
<path fill-rule="evenodd" clip-rule="evenodd" d="M367.023 115.369C367.023 121.087 367.026 126.32 367.225 132.042L367.226 132.062L367.225 132.082L366.761 132.059C367.225 132.082 367.225 132.082 367.225 132.082L367.225 132.091L367.223 132.114L367.218 132.202C367.214 132.28 367.206 132.395 367.195 132.546C367.174 132.847 367.139 133.29 367.085 133.859C366.978 134.997 366.795 136.64 366.493 138.667C365.92 142.518 364.916 147.758 363.182 153.547C368.325 151.524 377.957 146.768 387.682 137.042C394.186 130.562 395.322 121.184 391.728 115.464C389.942 112.621 386.974 110.65 382.841 110.363C378.738 110.079 373.452 111.455 367.023 115.369ZM366.295 132.054C366.093 126.235 366.093 120.921 366.093 115.111V114.849L366.315 114.712C372.941 110.635 378.496 109.13 382.906 109.435C387.333 109.742 390.57 111.872 392.515 114.969C396.384 121.126 395.09 130.975 388.339 137.701C377.909 148.131 367.576 152.919 362.622 154.757L361.736 155.086L362.016 154.184C363.905 148.089 364.975 142.548 365.573 138.53C365.873 136.521 366.053 134.895 366.159 133.772C366.212 133.21 366.247 132.774 366.268 132.48C366.278 132.333 366.285 132.221 366.29 132.146L366.295 132.062L366.295 132.054Z" fill="#FAD9DB"/>
<path d="M379.257 139.446C379.9 139.446 380.421 138.925 380.421 138.282C380.421 137.639 379.9 137.118 379.257 137.118C378.615 137.118 378.094 137.639 378.094 138.282C378.094 138.925 378.615 139.446 379.257 139.446Z" fill="#49ADA4"/>
<path d="M375.109 143.696C376.226 143.696 377.132 142.79 377.132 141.672C377.132 140.554 376.226 139.648 375.109 139.648C373.991 139.648 373.085 140.554 373.085 141.672C373.085 142.79 373.991 143.696 375.109 143.696Z" fill="#49ADA4"/>
<path d="M280.547 261.689C286.365 267.558 295.776 269.531 303.618 270.695C312.573 272.01 321.68 271.707 330.585 269.885C331.546 269.683 331.142 268.216 330.18 268.418C321.579 270.189 312.725 270.492 304.023 269.228C296.434 268.114 287.225 266.293 281.609 260.626C280.952 259.918 279.889 260.98 280.547 261.689Z" fill="#6D4D96"/>
<path d="M289.097 251.772C286.871 255.313 284.847 258.956 282.975 262.701C282.52 263.561 283.835 264.32 284.291 263.46C286.163 259.715 288.187 256.072 290.413 252.531C290.919 251.721 289.603 250.962 289.097 251.772Z" fill="#6D4D96"/>
<path d="M291.982 252.935C289.907 256.831 288.086 260.828 286.518 264.927C286.163 265.837 287.631 266.242 287.985 265.332C289.503 261.334 291.274 257.438 293.297 253.694C293.753 252.834 292.437 252.075 291.982 252.935Z" fill="#6D4D96"/>
<path d="M294.562 254.15C293.347 258.096 292.083 262.043 290.868 265.939C290.565 266.849 292.032 267.254 292.335 266.344C293.55 262.397 294.815 258.45 296.029 254.554C296.332 253.593 294.865 253.188 294.562 254.15Z" fill="#6D4D96"/>
<path d="M297.699 254.504C296.687 258.754 295.574 262.954 294.41 267.153C294.157 268.114 295.624 268.519 295.877 267.558C297.041 263.358 298.154 259.159 299.166 254.909C299.368 253.947 297.901 253.543 297.699 254.504Z" fill="#6D4D96"/>
<path d="M300.482 255.465C299.774 259.665 299.116 263.915 298.407 268.114C298.256 269.076 299.723 269.48 299.875 268.519C300.583 264.32 301.241 260.069 301.949 255.87C302.101 254.909 300.634 254.504 300.482 255.465Z" fill="#6D4D96"/>
<path d="M303.416 256.528C303.113 260.575 302.759 264.623 302.455 268.671C302.354 269.632 303.872 269.632 303.973 268.671C304.276 264.623 304.631 260.575 304.934 256.528C304.985 255.566 303.467 255.566 303.416 256.528Z" fill="#6D4D96"/>
<path d="M306.806 257.185C306.704 261.284 306.603 265.382 306.502 269.481C306.502 270.442 308.02 270.442 308.02 269.481C308.121 265.382 308.222 261.284 308.323 257.185C308.323 256.224 306.806 256.224 306.806 257.185Z" fill="#6D4D96"/>
<path d="M310.044 256.528C310.044 260.98 310.145 265.433 310.246 269.835C310.297 270.796 311.815 270.796 311.764 269.835C311.663 265.382 311.562 260.93 311.562 256.528C311.562 255.566 310.044 255.566 310.044 256.528Z" fill="#6D4D96"/>
<path d="M313.839 256.679C314.092 261.385 314.396 266.141 314.649 270.847C314.699 271.808 316.217 271.808 316.166 270.847C315.914 266.141 315.61 261.385 315.357 256.679C315.306 255.718 313.789 255.718 313.839 256.679Z" fill="#6D4D96"/>
<path d="M317.077 257.894C317.482 261.79 317.887 265.635 318.291 269.531C318.393 270.492 319.91 270.492 319.809 269.531C319.404 265.635 319 261.79 318.595 257.894C318.494 256.932 316.976 256.932 317.077 257.894Z" fill="#6D4D96"/>
<path d="M320.872 258.046C321.327 261.638 321.884 265.18 322.643 268.671C322.845 269.632 324.312 269.228 324.11 268.266C323.402 264.876 322.845 261.486 322.39 258.046C322.289 257.084 320.771 257.084 320.872 258.046Z" fill="#6D4D96"/>
<path d="M324.767 257.742C325.881 261.587 326.741 265.433 327.449 269.379C327.601 270.341 329.068 269.936 328.916 268.975C328.208 265.028 327.348 261.183 326.235 257.337C325.982 256.376 324.515 256.781 324.767 257.742Z" fill="#6D4D96"/>
<path d="M329.827 263.662C330.282 265.23 330.738 266.799 331.193 268.367C331.446 269.329 332.913 268.924 332.66 267.963C332.205 266.394 331.75 264.826 331.294 263.257C331.041 262.296 329.574 262.701 329.827 263.662Z" fill="#6D4D96"/>
<path d="M288.136 251.519C301.089 255.566 314.699 256.932 328.207 255.415C329.169 255.313 329.169 253.795 328.207 253.897C314.85 255.364 301.392 254.099 288.541 250.051C287.63 249.748 287.226 251.215 288.136 251.519Z" fill="#6D4D96"/>
<path d="M228.941 129.175C231.117 121.18 235.569 113.995 241.843 108.531C248.167 103.016 256.06 99.8283 263.75 96.7418C276.602 91.6315 291.122 85.6611 296.485 71.7468C296.839 70.8361 295.372 70.4313 295.018 71.342C289.048 86.8248 271.441 91.7833 257.578 97.602C250.545 100.587 243.766 104.18 238.352 109.644C233.141 114.957 229.397 121.585 227.423 128.77C227.221 129.731 228.688 130.136 228.941 129.175Z" fill="#6D4D96"/>
<path d="M293.855 85.1044C284.95 96.2864 270.024 97.8549 256.718 98.3103C255.757 98.3609 255.757 99.8788 256.718 99.8282C270.429 99.3222 285.759 97.7031 294.917 86.167C295.524 85.408 294.462 84.3455 293.855 85.1044Z" fill="#6D4D96"/>
<path d="M239.768 111.213C244.929 119.662 255.503 120.219 263.801 116.475C264.711 116.07 263.902 114.754 263.042 115.159C255.503 118.549 245.789 118.144 241.084 110.454C240.578 109.644 239.262 110.403 239.768 111.213Z" fill="#6D4D96"/>
<path d="M241.135 118.549C244.12 120.826 247.611 121.939 251.304 121.939C252.266 121.939 252.266 120.421 251.304 120.421C247.813 120.421 244.676 119.308 241.894 117.234C241.135 116.677 240.376 117.993 241.135 118.549Z" fill="#6D4D96"/>
<path d="M296.029 52.7729C298.711 50.749 301.696 49.2816 304.985 48.4215C305.946 48.1685 305.541 46.7012 304.58 46.9542C301.19 47.8649 298.053 49.3322 295.27 51.4573C294.511 52.0139 295.27 53.3294 296.029 52.7729Z" fill="#6D4D96"/>
<path d="M293.652 49.5346C292.286 48.1685 290.717 47.106 288.946 46.3976C288.036 46.0434 287.277 47.3084 288.187 47.7131C289.857 48.4215 291.324 49.3828 292.589 50.6478C293.298 51.3055 294.36 50.243 293.652 49.5346Z" fill="#6D4D96"/>
<path d="M367.368 137.979C368.836 134.841 371.163 131.907 373.187 129.073C376.02 125.076 378.955 120.826 382.699 117.638C383.458 117.031 382.395 115.918 381.636 116.576C377.943 119.662 375.008 123.912 372.226 127.808C370.101 130.794 367.621 133.88 366.053 137.22C365.648 138.08 366.964 138.889 367.368 137.979Z" fill="#6D4D96"/>
<path d="M264.711 156.497C264.407 156.902 264.104 157.357 263.8 157.762C263.547 158.116 263.75 158.622 264.053 158.825C264.458 159.027 264.863 158.875 265.116 158.572C265.419 158.167 265.723 157.711 266.026 157.307C266.279 156.952 266.077 156.446 265.773 156.244C265.369 155.991 264.964 156.143 264.711 156.497Z" fill="#6D4D96"/>
<path d="M267.342 158.673C267.191 158.976 266.988 159.28 266.837 159.583C266.634 159.938 266.735 160.393 267.09 160.646C267.444 160.848 267.95 160.747 268.152 160.393C268.304 160.089 268.506 159.786 268.658 159.482C268.86 159.128 268.759 158.673 268.405 158.42C268.051 158.167 267.545 158.319 267.342 158.673Z" fill="#6D4D96"/>
<path d="M332.913 184.073C333.875 184.073 333.875 182.555 332.913 182.555C331.952 182.555 331.952 184.073 332.913 184.073Z" fill="#6D4D96"/>
<path d="M335.899 179.367C336.86 179.367 336.86 177.849 335.899 177.849C334.887 177.849 334.887 179.367 335.899 179.367Z" fill="#6D4D96"/>
<path d="M292.893 186.704C293.854 186.704 293.854 185.186 292.893 185.186C291.881 185.186 291.881 186.704 292.893 186.704Z" fill="#6D4D96"/>
<path d="M298.458 189.992C299.419 189.992 299.419 188.474 298.458 188.474C297.446 188.474 297.446 189.992 298.458 189.992Z" fill="#6D4D96"/>
<path fill-rule="evenodd" clip-rule="evenodd" d="M401.115 196.5C401.628 196.5 402.045 196.916 402.045 197.43V212.205C402.045 212.718 401.628 213.135 401.115 213.135C400.601 213.135 400.185 212.718 400.185 212.205V197.43C400.185 196.916 400.601 196.5 401.115 196.5Z" fill="#FAF3F0"/>
<path fill-rule="evenodd" clip-rule="evenodd" d="M392.849 204.817C392.849 204.304 393.265 203.887 393.779 203.887H408.552C409.066 203.887 409.482 204.304 409.482 204.817C409.482 205.331 409.066 205.748 408.552 205.748H393.779C393.265 205.748 392.849 205.331 392.849 204.817Z" fill="#FAF3F0"/>
<path fill-rule="evenodd" clip-rule="evenodd" d="M395.246 198.948C395.609 198.585 396.198 198.585 396.561 198.948L407.034 209.422C407.398 209.785 407.398 210.374 407.034 210.737C406.671 211.1 406.082 211.1 405.719 210.737L395.246 200.264C394.883 199.9 394.883 199.311 395.246 198.948Z" fill="#FAF3F0"/>
<path fill-rule="evenodd" clip-rule="evenodd" d="M407.034 198.948C407.398 199.311 407.398 199.9 407.034 200.264L396.561 210.737C396.198 211.1 395.609 211.1 395.246 210.737C394.883 210.374 394.883 209.785 395.246 209.422L405.719 198.948C406.082 198.585 406.671 198.585 407.034 198.948Z" fill="#FAF3F0"/>
<path fill-rule="evenodd" clip-rule="evenodd" d="M224.438 213.197C224.951 213.197 225.368 213.614 225.368 214.127V222.628C225.368 223.141 224.951 223.558 224.438 223.558C223.924 223.558 223.508 223.141 223.508 222.628V214.127C223.508 213.614 223.924 213.197 224.438 213.197Z" fill="#FAF3F0"/>
<path fill-rule="evenodd" clip-rule="evenodd" d="M219.258 218.377C219.258 217.864 219.674 217.447 220.188 217.447H228.688C229.201 217.447 229.618 217.864 229.618 218.377C229.618 218.891 229.201 219.308 228.688 219.308H220.188C219.674 219.308 219.258 218.891 219.258 218.377Z" fill="#FAF3F0"/>
<path fill-rule="evenodd" clip-rule="evenodd" d="M220.744 214.684C221.107 214.321 221.696 214.321 222.059 214.684L228.08 220.705C228.443 221.068 228.443 221.657 228.08 222.02C227.717 222.384 227.128 222.384 226.765 222.02L220.744 215.999C220.381 215.636 220.381 215.047 220.744 214.684Z" fill="#FAF3F0"/>
<path fill-rule="evenodd" clip-rule="evenodd" d="M228.131 214.684C228.494 215.047 228.494 215.636 228.131 215.999L222.11 222.02C221.747 222.384 221.158 222.384 220.795 222.02C220.432 221.657 220.432 221.068 220.795 220.705L226.816 214.684C227.179 214.321 227.768 214.321 228.131 214.684Z" fill="#FAF3F0"/>
<path fill-rule="evenodd" clip-rule="evenodd" d="M197.622 229.853C197.879 229.853 198.087 230.061 198.087 230.318V253.998C198.087 254.255 197.879 254.463 197.622 254.463C197.365 254.463 197.157 254.255 197.157 253.998V230.318C197.157 230.061 197.365 229.853 197.622 229.853Z" fill="#FAF3F0"/>
<path fill-rule="evenodd" clip-rule="evenodd" d="M185.318 242.158C185.318 241.901 185.527 241.693 185.783 241.693H209.462C209.719 241.693 209.927 241.901 209.927 242.158C209.927 242.415 209.719 242.623 209.462 242.623H185.783C185.527 242.623 185.318 242.415 185.318 242.158Z" fill="#FAF3F0"/>
<path fill-rule="evenodd" clip-rule="evenodd" d="M188.946 233.43C189.127 233.248 189.422 233.248 189.603 233.43L206.35 250.178C206.532 250.359 206.532 250.654 206.35 250.835C206.169 251.017 205.874 251.017 205.693 250.835L188.946 234.088C188.764 233.906 188.764 233.612 188.946 233.43Z" fill="#FAF3F0"/>
<path fill-rule="evenodd" clip-rule="evenodd" d="M206.35 233.43C206.532 233.612 206.532 233.906 206.35 234.088L189.603 250.835C189.422 251.017 189.127 251.017 188.946 250.835C188.764 250.654 188.764 250.359 188.946 250.178L205.693 233.43C205.874 233.248 206.169 233.248 206.35 233.43Z" fill="#FAF3F0"/>
<path d="M342.273 141.925C342.577 142.077 342.88 142.279 343.184 142.431C343.538 142.633 343.993 142.532 344.246 142.178C344.449 141.824 344.347 141.368 343.993 141.116C343.69 140.964 343.386 140.761 343.083 140.61C342.728 140.407 342.273 140.508 342.02 140.863C341.818 141.267 341.919 141.723 342.273 141.925Z" fill="#6D4D96"/>
<path d="M339.743 144.708C339.895 144.961 340.097 145.214 340.249 145.467C340.451 145.821 340.907 145.973 341.311 145.72C341.665 145.517 341.817 145.011 341.564 144.657C341.412 144.404 341.21 144.151 341.058 143.898C340.856 143.544 340.401 143.392 339.996 143.645C339.642 143.848 339.49 144.354 339.743 144.708Z" fill="#6D4D96"/>
<path d="M330.839 88.798C348.851 103.016 373.389 107.671 395.297 100.891C396.208 100.587 395.853 99.1199 394.892 99.4234C373.541 106.001 349.458 101.599 331.902 87.7355C331.143 87.1283 330.08 88.1909 330.839 88.798Z" fill="#6D4D96"/>
<path d="M360.184 95.7805C368.785 98.4621 377.842 98.6645 386.594 96.4382C387.556 96.1852 387.151 94.7179 386.19 94.9709C377.69 97.1466 368.937 96.8936 360.589 94.3131C359.628 94.0096 359.273 95.4769 360.184 95.7805Z" fill="#6D4D96"/>
<path d="M336.758 234.265C334.633 254.099 348.547 272.263 368.279 275.4C369.24 275.552 369.645 274.085 368.683 273.933C349.609 270.897 336.252 253.492 338.276 234.265C338.377 233.304 336.859 233.304 336.758 234.265Z" fill="#6D4D96"/>
<path d="M346.473 246.611C350.267 255.819 358.008 262.852 367.621 265.686C368.583 265.939 368.937 264.522 368.026 264.218C358.97 261.587 351.532 254.909 347.94 246.206C347.586 245.346 346.119 245.75 346.473 246.611Z" fill="#6D4D96"/>
<path d="M159.728 228.042C156.186 240.59 157.754 255.01 166.001 265.433C173.591 274.945 186.341 280.106 198.331 277.374C199.293 277.171 198.888 275.704 197.927 275.906C186.492 278.538 174.299 273.478 167.064 264.37C159.171 254.352 157.754 240.488 161.144 228.446C161.498 227.536 160.031 227.131 159.728 228.042Z" fill="#6D4D96"/>
<path d="M165.192 246.358C166.963 256.123 173.894 264.269 183.204 267.71C184.114 268.064 184.519 266.597 183.608 266.242C174.805 262.954 168.329 255.162 166.659 245.953C166.457 244.992 164.99 245.396 165.192 246.358Z" fill="#6D4D96"/>
<path d="M230.205 131.806C231.167 131.806 231.167 130.288 230.205 130.288C229.244 130.288 229.244 131.806 230.205 131.806Z" fill="#6D4D96"/>
<path fill-rule="evenodd" clip-rule="evenodd" d="M489.656 349.809C490.169 349.809 490.586 350.226 490.586 350.74V365.514C490.586 366.028 490.169 366.444 489.656 366.444C489.142 366.444 488.726 366.028 488.726 365.514V350.74C488.726 350.226 489.142 349.809 489.656 349.809Z" fill="#FAF3F0"/>
<path fill-rule="evenodd" clip-rule="evenodd" d="M481.39 358.127C481.39 357.613 481.806 357.197 482.32 357.197H497.093C497.607 357.197 498.023 357.613 498.023 358.127C498.023 358.64 497.607 359.057 497.093 359.057H482.32C481.806 359.057 481.39 358.64 481.39 358.127Z" fill="#FAF3F0"/>
<path fill-rule="evenodd" clip-rule="evenodd" d="M483.787 352.258C484.15 351.894 484.739 351.894 485.102 352.258L495.575 362.731C495.939 363.094 495.939 363.683 495.575 364.047C495.212 364.41 494.623 364.41 494.26 364.047L483.787 353.573C483.424 353.21 483.424 352.621 483.787 352.258Z" fill="#FAF3F0"/>
<path fill-rule="evenodd" clip-rule="evenodd" d="M495.575 352.258C495.939 352.621 495.939 353.21 495.575 353.573L485.102 364.047C484.739 364.41 484.15 364.41 483.787 364.047C483.424 363.683 483.424 363.094 483.787 362.731L494.26 352.258C494.623 351.894 495.212 351.894 495.575 352.258Z" fill="#FAF3F0"/>
<path fill-rule="evenodd" clip-rule="evenodd" d="M475.691 72.0698C455.164 72.0698 438.523 88.7112 438.523 109.239C438.523 129.767 455.164 146.409 475.691 146.409C496.218 146.409 512.859 129.767 512.859 109.239C512.859 88.7112 496.218 72.0698 475.691 72.0698ZM436.663 109.239C436.663 87.6837 454.137 70.2095 475.691 70.2095C497.245 70.2095 514.719 87.6837 514.719 109.239C514.719 130.795 497.245 148.269 475.691 148.269C454.137 148.269 436.663 130.795 436.663 109.239Z" fill="#29232F"/>
<path fill-rule="evenodd" clip-rule="evenodd" d="M421.228 135.112C420.763 135.893 420.844 136.195 420.871 136.249C420.897 136.303 421.087 136.551 421.99 136.658C422.834 136.758 424.046 136.698 425.622 136.454C428.76 135.968 433.121 134.789 438.41 133.002C448.975 129.434 463.103 123.489 478.281 116.012C493.46 108.535 506.783 100.957 516.051 94.7552C520.691 91.6507 524.283 88.912 526.582 86.7199C527.736 85.6191 528.521 84.6953 528.957 83.9645C529.423 83.1836 529.341 82.882 529.315 82.8281C529.288 82.7743 529.099 82.5258 528.196 82.419C527.351 82.3191 526.14 82.379 524.564 82.6231C521.425 83.1091 517.065 84.288 511.776 86.0745C501.211 89.6433 487.083 95.5879 471.904 103.065C456.726 110.542 443.402 118.12 434.134 124.322C429.494 127.426 425.902 130.165 423.604 132.357C422.45 133.458 421.664 134.382 421.228 135.112ZM433.099 122.776C442.455 116.516 455.854 108.898 471.082 101.396C486.31 93.8945 500.516 87.9143 511.18 84.3121C516.506 82.5131 520.984 81.2949 524.279 80.7847C525.919 80.5306 527.324 80.4426 528.414 80.5716C529.447 80.6937 530.513 81.051 530.983 82.0061C531.454 82.9613 531.087 84.0242 530.555 84.9173C529.992 85.8606 529.067 86.9202 527.865 88.0661C525.453 90.3674 521.758 93.1754 517.086 96.3013C507.731 102.561 494.332 110.179 479.103 117.681C463.875 125.182 449.669 131.163 439.005 134.765C433.679 136.564 429.201 137.782 425.906 138.292C424.266 138.546 422.862 138.634 421.771 138.505C420.739 138.383 419.672 138.026 419.202 137.071C418.732 136.116 419.098 135.053 419.631 134.16C420.193 133.216 421.119 132.157 422.32 131.011C424.732 128.709 428.427 125.902 433.099 122.776Z" fill="#29232F"/>
<path fill-rule="evenodd" clip-rule="evenodd" d="M164.818 147.744V124.064H166.678V147.744H164.818Z" fill="#29232F"/>
<path fill-rule="evenodd" clip-rule="evenodd" d="M153.909 134.974H177.587V136.834H153.909V134.974Z" fill="#29232F"/>
<path fill-rule="evenodd" clip-rule="evenodd" d="M158.057 126.847L174.804 143.595L173.489 144.91L156.742 128.163L158.057 126.847Z" fill="#29232F"/>
<path fill-rule="evenodd" clip-rule="evenodd" d="M174.804 128.163L158.057 144.91L156.742 143.595L173.489 126.847L174.804 128.163Z" fill="#29232F"/>
<path fill-rule="evenodd" clip-rule="evenodd" d="M137.405 172.536V158.875H138.335V172.536H137.405Z" fill="#29232F"/>
<path fill-rule="evenodd" clip-rule="evenodd" d="M131.04 165.241H144.701V166.171H131.04V165.241Z" fill="#29232F"/>
<path fill-rule="evenodd" clip-rule="evenodd" d="M133.392 160.569L143.056 170.183L142.4 170.842L132.736 161.229L133.392 160.569Z" fill="#29232F"/>
<path fill-rule="evenodd" clip-rule="evenodd" d="M143.057 161.177L133.393 170.841L132.735 170.184L142.399 160.52L143.057 161.177Z" fill="#29232F"/>
<defs>
<linearGradient id="paint0_linear" x1="316.339" y1="334.446" x2="353.183" y2="581.704" gradientUnits="userSpaceOnUse">
<stop stop-color="#F2D2D6"/>
<stop offset="0.3112" stop-color="#B5DEDA"/>
<stop offset="0.4485" stop-color="#326FB3"/>
<stop offset="0.5321" stop-color="#6D4D96"/>
<stop offset="0.7526" stop-color="#FDF7F7"/>
</linearGradient>
<linearGradient id="paint1_linear" x1="284.326" y1="206.39" x2="378.652" y2="206.39" gradientUnits="userSpaceOnUse">
<stop stop-color="#F2D2D6"/>
<stop offset="0.3112" stop-color="#B5DEDA"/>
<stop offset="0.4485" stop-color="#326FB3"/>
<stop offset="0.5321" stop-color="#6D4D96"/>
<stop offset="0.7526" stop-color="#FDF7F7"/>
</linearGradient>
</defs>
</svg>
