<?xml version="1.0" encoding="utf-8"?>
<!-- Generator: Adobe Illustrator 22.1.0, SVG Export Plug-In . SVG Version: 6.00 Build 0)  -->
<svg version="1.1" xmlns="http://www.w3.org/2000/svg" xmlns:xlink="http://www.w3.org/1999/xlink" x="0px" y="0px"
	 viewBox="0 0 1261 921" style="enable-background:new 0 0 1261 921;" xml:space="preserve">
<style type="text/css">
	.st0{display:none;}
	.st1{display:none;fill:#FAF3F0;}
	.st2{fill:url(#SVGID_1_);}
	.st3{fill:#FAF3F0;}
	.st4{fill:#49ADA4;}
	.st5{fill:#6D4D96;}
	.st6{fill:#FAD9DB;stroke:url(#SVGID_2_);stroke-miterlimit:10;}
	.st7{fill:#FAD9DB;stroke:#FAD9DB;stroke-miterlimit:10;}
	.st8{fill:#29232F;}
	.st9{fill:none;stroke:#29232F;stroke-width:9;stroke-miterlimit:10;}
	.st10{fill:url(#SVGID_3_);}
	.st11{fill:none;stroke:#6D4D96;stroke-width:6;stroke-miterlimit:10;}
	.st12{fill:none;stroke:#FAF3F0;stroke-width:2;stroke-linecap:round;stroke-linejoin:bevel;}
	.st13{fill:none;stroke:#FAF3F0;stroke-linecap:round;stroke-linejoin:bevel;}
	.st14{fill:none;stroke:#29232F;stroke-miterlimit:10;}
</style>
<g id="Layer_1" class="st0">
	
		<image style="display:inline;overflow:visible;" width="1037" height="906" xlink:href="20D66631.jpg"  transform="matrix(1 0 0 1 -6 -69)">
	</image>
</g>
<g id="Layer_8">
	<rect class="st1" width="1261" height="921"/>
	<g>
		
			<linearGradient id="SVGID_1_" gradientUnits="userSpaceOnUse" x1="624.7052" y1="125.8326" x2="829.9867" y2="-323.578" gradientTransform="matrix(0.9609 0.2769 0.2769 -0.9609 -9.8807 608.9282)">
			<stop  offset="0" style="stop-color:#F2D2D6"/>
			<stop  offset="0.3112" style="stop-color:#B5DEDA"/>
			<stop  offset="0.4485" style="stop-color:#326FB3"/>
			<stop  offset="0.5321" style="stop-color:#6D4D96"/>
			<stop  offset="0.7526" style="stop-color:#FDF7F7"/>
		</linearGradient>
		<path class="st2" d="M606.5,598.8c22.1-23.9-337.2,47.6-439.7,66.9c-24.3,4.6-137,17.2-139.2,26.3c-5.5,22.8,182.7,1,230.6,5
			c47.9,4-86.7,55.1-17.3,71.5c69.4,16.4,326.2-34.6,347-19.4c20.8,15.2-100.7,50.6-94.2,65.4c15,34,572.5-55.2,693.7-93.5
			c121.2-38.3-16.1-59.5-233.6-59.7c-217.5-0.2-93-12-105.7-39.3C835.6,594.8,489,725.9,606.5,598.8z"/>
	</g>
	<g>
		<g>
			<path class="st3" d="M537.6,294.1c1.9,0,1.9-3,0-3C535.7,291.1,535.7,294.1,537.6,294.1L537.6,294.1z"/>
		</g>
	</g>
</g>
<g id="Layer_9">
</g>
<g id="Layer_7">
	<g>
		<g>
			<path class="st5" d="M361.2,569c-21.7,26.1-37.9,56.4-47.4,89.1c-0.5,1.9,2.4,2.7,2.9,0.8c9.4-32.1,25.2-62,46.6-87.8
				C364.6,569.6,362.5,567.5,361.2,569L361.2,569z"/>
		</g>
	</g>
	<g>
		<g>
			<path class="st5" d="M980.7,661.1c-10.2-50.6-38.2-96.9-78.4-129.3c-1.5-1.2-3.6,0.9-2.1,2.1c39.9,32.1,67.6,77.8,77.7,128
				C978.2,663.8,981,663,980.7,661.1L980.7,661.1z"/>
		</g>
	</g>
</g>
<g id="Layer_2">
	<linearGradient id="SVGID_2_" gradientUnits="userSpaceOnUse" x1="561.9665" y1="407.9083" x2="748.4004" y2="407.9083">
		<stop  offset="0" style="stop-color:#F2D2D6"/>
		<stop  offset="0.3112" style="stop-color:#B5DEDA"/>
		<stop  offset="0.4485" style="stop-color:#326FB3"/>
		<stop  offset="0.5321" style="stop-color:#6D4D96"/>
		<stop  offset="0.7526" style="stop-color:#FDF7F7"/>
	</linearGradient>
	<path class="st6" d="M576.4,375.8l-13.8,119.8c0,0,156.8,32.9,179.8-12.9s-33-173.7-33-173.7L576.4,375.8z"/>
	<path class="st7" d="M505.4,263.9c-70.3-44.9-80.1,29.4-46.1,51.1c34,21.7,62.8,22.5,62.8,22.5L505.4,263.9z"/>
	<path class="st8" d="M460.4,212c-23.5,194-73,144-138,209s-9.8,163,88,160c229.6-7,177-219,177-219L460.4,212z"/>
	<path class="st3" d="M490.4,190c-7.3,138,30.6,203,124,203c105,0,112-131,112-131c0-81,0-98,0-98l-145.5-38.8L490.4,190z"/>
	<path class="st8" d="M725.9,219c5,184-101.2,198.7-83.8,284.2c13.8,67.8,101.5,76.1,157.6,45.8c98.2-53,134.2,10,134.2,10
		s58.1-108-52.2-168.9C749.9,317.2,778.9,228,778.9,228"/>
	<path class="st9" d="M626.4,222.7c37.2-16.2,57.8,3.6,57.8,3.6"/>
	<path class="st9" d="M547.6,238.5c-40.4,1.8-50.3,28.5-50.3,28.5"/>
</g>
<g id="Layer_3">
	<path class="st8" d="M457.4,261c24.5-24.5,100-20,136-114V74c0,0-87.3-22-131,44C414,191,457.4,261,457.4,261z"/>
	<path class="st8" d="M575.9,74c88-52,228.1-5,203,154c0,0-86.6,26-196.6-84L575.9,74z"/>
</g>
<g id="Layer_4">
</g>
<g id="Layer_5">
	<circle class="st7" cx="672.4" cy="313" r="29"/>
	<circle class="st7" cx="546.4" cy="338" r="29"/>
	<g>
		<path class="st11" d="M554.1,276.1c-14.6-6.4-33.9,5.7-35.5,21.1l-10.7-4.1"/>
		<circle class="st5" cx="544.9" cy="291.5" r="10.5"/>
		<polygon class="st5" points="589.3,304.2 584.9,317 600,313.7 		"/>
		<path class="st11" d="M591.4,342c5.5,5.5,32,6,44-14"/>
		<path class="st11" d="M634.3,261.2c7.4-13.4,35.4-13.7,43.7,1.2l8.1-8"/>
		<circle class="st5" cx="657.3" cy="268.6" r="10.5"/>
	</g>
	<g>
		<path class="st7" d="M724.5,227.5c52-32,68.6,17.9,42.4,44c-20.5,20.5-40.8,29.9-50.5,33.5c7.5-24.2,8.5-44,8.5-44
			C724.5,249.5,724.5,239,724.5,227.5z"/>
	</g>
	<circle class="st4" cx="749.6" cy="273.3" r="2.3"/>
	<circle class="st4" cx="741.4" cy="280" r="4"/>
	<g>
		<g>
			<path class="st5" d="M554.5,517.2c11.5,11.6,30.1,15.5,45.6,17.8c17.7,2.6,35.7,2,53.3-1.6c1.9-0.4,1.1-3.3-0.8-2.9
				c-17,3.5-34.5,4.1-51.7,1.6c-15-2.2-33.2-5.8-44.3-17C555.3,513.7,553.2,515.8,554.5,517.2L554.5,517.2z"/>
		</g>
	</g>
	<g>
		<g>
			<path class="st5" d="M571.4,497.6c-4.4,7-8.4,14.2-12.1,21.6c-0.9,1.7,1.7,3.2,2.6,1.5c3.7-7.4,7.7-14.6,12.1-21.6
				C575,497.5,572.4,496,571.4,497.6L571.4,497.6z"/>
		</g>
	</g>
	<g>
		<g>
			<path class="st5" d="M577.1,499.9c-4.1,7.7-7.7,15.6-10.8,23.7c-0.7,1.8,2.2,2.6,2.9,0.8c3-7.9,6.5-15.6,10.5-23
				C580.6,499.7,578,498.2,577.1,499.9L577.1,499.9z"/>
		</g>
	</g>
	<g>
		<g>
			<path class="st5" d="M582.2,502.3c-2.4,7.8-4.9,15.6-7.3,23.3c-0.6,1.8,2.3,2.6,2.9,0.8c2.4-7.8,4.9-15.6,7.3-23.3
				C585.7,501.2,582.8,500.4,582.2,502.3L582.2,502.3z"/>
		</g>
	</g>
	<g>
		<g>
			<path class="st5" d="M588.4,503c-2,8.4-4.2,16.7-6.5,25c-0.5,1.9,2.4,2.7,2.9,0.8c2.3-8.3,4.5-16.6,6.5-25
				C591.7,501.9,588.8,501.1,588.4,503L588.4,503z"/>
		</g>
	</g>
	<g>
		<g>
			<path class="st5" d="M593.9,504.9c-1.4,8.3-2.7,16.7-4.1,25c-0.3,1.9,2.6,2.7,2.9,0.8c1.4-8.3,2.7-16.7,4.1-25
				C597.1,503.8,594.2,503,593.9,504.9L593.9,504.9z"/>
		</g>
	</g>
	<g>
		<g>
			<path class="st5" d="M599.7,507c-0.6,8-1.3,16-1.9,24c-0.2,1.9,2.8,1.9,3,0c0.6-8,1.3-16,1.9-24
				C602.8,505.1,599.8,505.1,599.7,507L599.7,507z"/>
		</g>
	</g>
	<g>
		<g>
			<path class="st5" d="M606.4,508.3c-0.2,8.1-0.4,16.2-0.6,24.3c0,1.9,3,1.9,3,0c0.2-8.1,0.4-16.2,0.6-24.3
				C609.4,506.4,606.4,506.4,606.4,508.3L606.4,508.3z"/>
		</g>
	</g>
	<g>
		<g>
			<path class="st5" d="M612.8,507c0,8.8,0.2,17.6,0.4,26.3c0.1,1.9,3.1,1.9,3,0c-0.2-8.8-0.4-17.6-0.4-26.3
				C615.8,505.1,612.8,505.1,612.8,507L612.8,507z"/>
		</g>
	</g>
	<g>
		<g>
			<path class="st5" d="M620.3,507.3c0.5,9.3,1.1,18.7,1.6,28c0.1,1.9,3.1,1.9,3,0c-0.5-9.3-1.1-18.7-1.6-28
				C623.2,505.4,620.2,505.4,620.3,507.3L620.3,507.3z"/>
		</g>
	</g>
	<g>
		<g>
			<path class="st5" d="M626.7,509.7c0.8,7.7,1.6,15.3,2.4,23c0.2,1.9,3.2,1.9,3,0c-0.8-7.7-1.6-15.3-2.4-23
				C629.5,507.8,626.5,507.8,626.7,509.7L626.7,509.7z"/>
		</g>
	</g>
	<g>
		<g>
			<path class="st5" d="M634.2,510c0.9,7.1,2,14.1,3.5,21c0.4,1.9,3.3,1.1,2.9-0.8c-1.4-6.7-2.5-13.4-3.4-20.2
				C637,508.1,634,508.1,634.2,510L634.2,510z"/>
		</g>
	</g>
	<g>
		<g>
			<path class="st5" d="M641.9,509.4c2.2,7.6,3.9,15.2,5.3,23c0.3,1.9,3.2,1.1,2.9-0.8c-1.4-7.8-3.1-15.4-5.3-23
				C644.3,506.7,641.4,507.5,641.9,509.4L641.9,509.4z"/>
		</g>
	</g>
	<g>
		<g>
			<path class="st5" d="M651.9,521.1c0.9,3.1,1.8,6.2,2.7,9.3c0.5,1.9,3.4,1.1,2.9-0.8c-0.9-3.1-1.8-6.2-2.7-9.3
				C654.3,518.4,651.4,519.2,651.9,521.1L651.9,521.1z"/>
		</g>
	</g>
	<g>
		<g>
			<path class="st5" d="M569.5,497.1c25.6,8,52.5,10.7,79.2,7.7c1.9-0.2,1.9-3.2,0-3c-26.4,2.9-53,0.4-78.4-7.6
				C568.5,493.6,567.7,496.5,569.5,497.1L569.5,497.1z"/>
		</g>
	</g>
</g>
<g id="Layer_6">
	<g>
		<g>
			<path class="st5" d="M452.5,255.3c4.3-15.8,13.1-30,25.5-40.8c12.5-10.9,28.1-17.2,43.3-23.3c25.4-10.1,54.1-21.9,64.7-49.4
				c0.7-1.8-2.2-2.6-2.9-0.8c-11.8,30.6-46.6,40.4-74,51.9c-13.9,5.9-27.3,13-38,23.8c-10.3,10.5-17.7,23.6-21.6,37.8
				C449.1,256.4,452,257.2,452.5,255.3L452.5,255.3z"/>
		</g>
	</g>
	<g>
		<g>
			<path class="st5" d="M580.8,168.2c-17.6,22.1-47.1,25.2-73.4,26.1c-1.9,0.1-1.9,3.1,0,3c27.1-1,57.4-4.2,75.5-27
				C584.1,168.8,582,166.7,580.8,168.2L580.8,168.2z"/>
		</g>
	</g>
	<g>
		<g>
			<path class="st5" d="M473.9,219.8c10.2,16.7,31.1,17.8,47.5,10.4c1.8-0.8,0.2-3.4-1.5-2.6c-14.9,6.7-34.1,5.9-43.4-9.3
				C475.5,216.7,472.9,218.2,473.9,219.8L473.9,219.8z"/>
		</g>
	</g>
	<g>
		<g>
			<path class="st5" d="M476.6,234.3c5.9,4.5,12.8,6.7,20.1,6.7c1.9,0,1.9-3,0-3c-6.9,0-13.1-2.2-18.6-6.3
				C476.6,230.6,475.1,233.2,476.6,234.3L476.6,234.3z"/>
		</g>
	</g>
	<g>
		<g>
			<path class="st5" d="M585.1,104.3c5.3-4,11.2-6.9,17.7-8.6c1.9-0.5,1.1-3.4-0.8-2.9c-6.7,1.8-12.9,4.7-18.4,8.9
				C582.1,102.8,583.6,105.4,585.1,104.3L585.1,104.3z"/>
		</g>
	</g>
	<g>
		<g>
			<path class="st5" d="M580.4,97.9c-2.7-2.7-5.8-4.8-9.3-6.2c-1.8-0.7-3.3,1.8-1.5,2.6c3.3,1.4,6.2,3.3,8.7,5.8
				C579.7,101.4,581.8,99.3,580.4,97.9L580.4,97.9z"/>
		</g>
	</g>
	<g>
		<g>
			<path class="st5" d="M726.1,272.7c2.9-6.2,7.5-12,11.5-17.6c5.6-7.9,11.4-16.3,18.8-22.6c1.5-1.2-0.6-3.4-2.1-2.1
				c-7.3,6.1-13.1,14.5-18.6,22.2c-4.2,5.9-9.1,12-12.2,18.6C722.7,272.9,725.3,274.5,726.1,272.7L726.1,272.7z"/>
		</g>
	</g>
	<g>
		<g>
			<path class="st5" d="M523.2,309.3c-0.6,0.8-1.2,1.7-1.8,2.5c-0.5,0.7-0.1,1.7,0.5,2.1c0.8,0.4,1.6,0.1,2.1-0.5
				c0.6-0.8,1.2-1.7,1.8-2.5c0.5-0.7,0.1-1.7-0.5-2.1C524.5,308.3,523.7,308.6,523.2,309.3L523.2,309.3z"/>
		</g>
	</g>
	<g>
		<g>
			<path class="st5" d="M528.4,313.6c-0.3,0.6-0.7,1.2-1,1.8c-0.4,0.7-0.2,1.6,0.5,2.1c0.7,0.4,1.7,0.2,2.1-0.5
				c0.3-0.6,0.7-1.2,1-1.8c0.4-0.7,0.2-1.6-0.5-2.1C529.8,312.6,528.8,312.9,528.4,313.6L528.4,313.6z"/>
		</g>
	</g>
	<g>
		<g>
			<path class="st5" d="M658,363.8c1.9,0,1.9-3,0-3C656.1,360.8,656.1,363.8,658,363.8L658,363.8z"/>
		</g>
	</g>
	<g>
		<g>
			<path class="st5" d="M663.9,354.5c1.9,0,1.9-3,0-3C661.9,351.5,661.9,354.5,663.9,354.5L663.9,354.5z"/>
		</g>
	</g>
	<g>
		<g>
			<path class="st5" d="M578.9,369c1.9,0,1.9-3,0-3C576.9,366,576.9,369,578.9,369L578.9,369z"/>
		</g>
	</g>
	<g>
		<g>
			<path class="st5" d="M589.9,375.5c1.9,0,1.9-3,0-3C587.9,372.5,587.9,375.5,589.9,375.5L589.9,375.5z"/>
		</g>
	</g>
	<g>
		<path class="st12" d="M792.8,390.2v29.2"/>
		<path class="st12" d="M807.5,404.8h-29.2"/>
		<path class="st12" d="M803.2,415.2l-20.7-20.7"/>
		<path class="st12" d="M782.5,415.2l20.7-20.7"/>
	</g>
	<g>
		<path class="st12" d="M443.6,423.2V440"/>
		<path class="st12" d="M452,431.6h-16.8"/>
		<path class="st12" d="M449.5,437.5l-11.9-11.9"/>
		<path class="st12" d="M437.7,437.5l11.9-11.9"/>
	</g>
	<g>
		<path class="st13" d="M390.6,455.2V502"/>
		<path class="st13" d="M414,478.6h-46.8"/>
		<path class="st13" d="M407.2,495.1l-33.1-33.1"/>
		<path class="st13" d="M374.1,495.1l33.1-33.1"/>
	</g>
	<g>
		<g>
			<path class="st5" d="M676.5,280.5c0.6,0.3,1.2,0.7,1.8,1c0.7,0.4,1.6,0.2,2.1-0.5c0.4-0.7,0.2-1.6-0.5-2.1
				c-0.6-0.3-1.2-0.7-1.8-1c-0.7-0.4-1.6-0.2-2.1,0.5C675.6,279.2,675.8,280.1,676.5,280.5L676.5,280.5z"/>
		</g>
	</g>
	<g>
		<g>
			<path class="st5" d="M671.5,286c0.3,0.5,0.7,1,1,1.5c0.4,0.7,1.3,1,2.1,0.5c0.7-0.4,1-1.4,0.5-2.1c-0.3-0.5-0.7-1-1-1.5
				c-0.4-0.7-1.3-1-2.1-0.5C671.3,284.3,671,285.3,671.5,286L671.5,286z"/>
		</g>
	</g>
	<g>
		<g>
			<path class="st5" d="M653.9,175.5c35.6,28.1,84.1,37.3,127.4,23.9c1.8-0.6,1.1-3.5-0.8-2.9c-42.2,13-89.8,4.3-124.5-23.1
				C654.5,172.2,652.4,174.3,653.9,175.5L653.9,175.5z"/>
		</g>
	</g>
	<g>
		<g>
			<path class="st5" d="M711.9,189.3c17,5.3,34.9,5.7,52.2,1.3c1.9-0.5,1.1-3.4-0.8-2.9c-16.8,4.3-34.1,3.8-50.6-1.3
				C710.8,185.8,710.1,188.7,711.9,189.3L711.9,189.3z"/>
		</g>
	</g>
	<g>
		<g>
			<path class="st5" d="M665.6,463c-4.2,39.2,23.3,75.1,62.3,81.3c1.9,0.3,2.7-2.6,0.8-2.9c-37.7-6-64.1-40.4-60.1-78.4
				C668.8,461.1,665.8,461.1,665.6,463L665.6,463z"/>
		</g>
	</g>
	<g>
		<g>
			<path class="st5" d="M684.8,487.4c7.5,18.2,22.8,32.1,41.8,37.7c1.9,0.5,2.6-2.3,0.8-2.9c-17.9-5.2-32.6-18.4-39.7-35.6
				C687,484.9,684.1,485.7,684.8,487.4L684.8,487.4z"/>
		</g>
	</g>
	<g>
		<g>
			<path class="st5" d="M315.7,450.7c-7,24.8-3.9,53.3,12.4,73.9c15,18.8,40.2,29,63.9,23.6c1.9-0.4,1.1-3.3-0.8-2.9
				c-22.6,5.2-46.7-4.8-61-22.8c-15.6-19.8-18.4-47.2-11.7-71C319.2,449.7,316.3,448.9,315.7,450.7L315.7,450.7z"/>
		</g>
	</g>
	<g>
		<g>
			<path class="st5" d="M326.5,486.9c3.5,19.3,17.2,35.4,35.6,42.2c1.8,0.7,2.6-2.2,0.8-2.9c-17.4-6.5-30.2-21.9-33.5-40.1
				C329,484.2,326.1,485,326.5,486.9L326.5,486.9z"/>
		</g>
	</g>
	<g>
		<g>
			<path class="st5" d="M455,260.5c1.9,0,1.9-3,0-3C453.1,257.5,453.1,260.5,455,260.5L455,260.5z"/>
		</g>
	</g>
	<g>
		<path class="st12" d="M967.8,693.2v29.2"/>
		<path class="st12" d="M982.5,707.8h-29.2"/>
		<path class="st12" d="M978.2,718.2l-20.7-20.7"/>
		<path class="st12" d="M957.5,718.2l20.7-20.7"/>
	</g>
	<g>
		<circle class="st14" cx="940.2" cy="215.9" r="75.3"/>
		
			<ellipse transform="matrix(0.8971 -0.4419 0.4419 0.8971 0.9683 437.2132)" class="st14" cx="939" cy="216.5" rx="121.3" ry="16.1"/>
	</g>
	<g>
		<path class="st14" d="M327.6,245.2V292"/>
		<path class="st14" d="M351,268.6h-46.8"/>
		<path class="st14" d="M344.2,285.1l-33.1-33.1"/>
		<path class="st14" d="M311.1,285.1l33.1-33.1"/>
	</g>
	<g>
		<path class="st14" d="M272.5,314v27"/>
		<path class="st14" d="M286,327.5h-27"/>
		<path class="st14" d="M282.1,337L263,318"/>
		<path class="st14" d="M263,337l19.1-19.1"/>
	</g>
</g>
</svg>
