<?xml version="1.0" encoding="utf-8"?>
<!-- Generator: Adobe Illustrator 23.0.4, SVG Export Plug-In . SVG Version: 6.00 Build 0)  -->
<svg version="1.1" id="Layer_1" xmlns="http://www.w3.org/2000/svg" xmlns:xlink="http://www.w3.org/1999/xlink" x="0px" y="0px"
	 viewBox="0 0 240 240" style="enable-background:new 0 0 240 240;" xml:space="preserve">
<style type="text/css">
	.st0{fill:url(#SVGID_1_);}
	.st1{fill:url(#SVGID_2_);}
	.st2{fill:#BBEFEA;stroke:#BBEFEA;stroke-miterlimit:10;}
	.st3{clip-path:url(#SVGID_4_);fill:none;stroke:#FFFFFF;stroke-width:3;stroke-miterlimit:10;}
</style>
<linearGradient id="SVGID_1_" gradientUnits="userSpaceOnUse" x1="83.0774" y1="189.3292" x2="379.8391" y2="-351.8226" gradientTransform="matrix(1 0 0 -1 0 242)">
	<stop  offset="0" style="stop-color:#F2D2D6"/>
	<stop  offset="0.0605" style="stop-color:#EED3D6"/>
	<stop  offset="0.1163" style="stop-color:#E3D5D7"/>
	<stop  offset="0.1701" style="stop-color:#D1D9D8"/>
	<stop  offset="0.2225" style="stop-color:#B6DEDA"/>
	<stop  offset="0.225" style="stop-color:#B5DEDA"/>
	<stop  offset="0.2574" style="stop-color:#6D4D96"/>
	<stop  offset="0.3871" style="stop-color:#326FB3"/>
	<stop  offset="0.7526" style="stop-color:#FDF7F7"/>
</linearGradient>
<ellipse class="st0" cx="120" cy="120" rx="66" ry="66.5"/>
<linearGradient id="SVGID_2_" gradientUnits="userSpaceOnUse" x1="565.3027" y1="550.4902" x2="1527.8927" y2="1342.7732" gradientTransform="matrix(1 0 0 1 0 -319)">
	<stop  offset="0" style="stop-color:#F2D2D6"/>
	<stop  offset="0.2396" style="stop-color:#326FB3"/>
	<stop  offset="0.4375" style="stop-color:#6D4D96"/>
	<stop  offset="0.4844" style="stop-color:#B5DEDA"/>
	<stop  offset="0.7526" style="stop-color:#FDF7F7"/>
</linearGradient>
<path class="st1" d="M570.1,203.7C581.6,172,320.9,305.9,246.3,343c-17.7,8.8-33.8,17.3-33.4,28.5c1.1,28.2,141.3-23.2,179.3-24.7
	s-53.9,77.9,3.6,88.4c57.5,10.4,233.5-124.2,253.1-108.7s-65.8,74.4-57.3,91.3c19.6,38.9,364.4-105.7,449-167.9
	c84.6-62.2-19.2-45.7-187.3-17s-74.7-2-90.9-33.2C746.1,168.3,509.4,372.5,570.1,203.7z"/>
<g>
	<path class="st2" d="M102,21.6C61.3,29.1,29.1,61.3,21.6,102h1C30,61.8,61.8,30.1,102,22.6V21.6z"/>
	<path class="st2" d="M138,21.6v1c40.2,7.4,71.9,39.2,79.4,79.4h1C210.9,61.3,178.7,29.1,138,21.6z"/>
</g>
<g>
	<path class="st2" d="M102,217.4C61.8,210,30.1,178.2,22.6,138h-1c7.4,40.7,39.6,72.9,80.4,80.4V217.4z"/>
	<path class="st2" d="M217.4,138c-7.4,40.2-39.2,71.9-79.4,79.4v1c40.7-7.4,72.9-39.6,80.4-80.4H217.4z"/>
</g>
<g>
	<defs>
		<ellipse id="SVGID_3_" cx="120" cy="119" rx="66" ry="66.5"/>
	</defs>
	<clipPath id="SVGID_4_">
		<use xlink:href="#SVGID_3_"  style="overflow:visible;"/>
	</clipPath>
	<path class="st3" d="M56.89,124.27c9.74,0,9.74,10,19.49,10c9.74,0,9.74-10,19.49-10c9.74,0,9.74,10,19.49,10
		c9.74,0,9.74-10,19.49-10c9.75,0,9.75,10,19.49,10c9.75,0,9.75-10,19.49-10"/>
	<path class="st3" d="M56.89,141.73c9.74,0,9.74,10,19.49,10c9.74,0,9.74-10,19.49-10c9.74,0,9.74,10,19.49,10
		c9.74,0,9.74-10,19.49-10c9.75,0,9.75,10,19.49,10c9.75,0,9.75-10,19.49-10"/>
</g>
</svg>
