<svg width="305" height="201" viewBox="0 0 305 201" fill="none" xmlns="http://www.w3.org/2000/svg">
<path d="M228.519 4V39.0374" stroke="white" stroke-width="4" stroke-linecap="round" stroke-linejoin="bevel"/>
<path d="M246.037 21.5187L211 21.5187" stroke="white" stroke-width="4" stroke-linecap="round" stroke-linejoin="bevel"/>
<path d="M240.906 33.9064L216.131 9.13117" stroke="white" stroke-width="4" stroke-linecap="round" stroke-linejoin="bevel"/>
<path d="M216.131 33.9064L240.907 9.13116" stroke="white" stroke-width="4" stroke-linecap="round" stroke-linejoin="bevel"/>
<path d="M292.754 28.8184V47.3103" stroke="white" stroke-width="2" stroke-linecap="round" stroke-linejoin="bevel"/>
<path d="M302 38.0643L283.508 38.0643" stroke="white" stroke-width="2" stroke-linecap="round" stroke-linejoin="bevel"/>
<path d="M299.292 44.6023L286.216 31.5265" stroke="white" stroke-width="2" stroke-linecap="round" stroke-linejoin="bevel"/>
<path d="M286.216 44.6023L299.292 31.5265" stroke="white" stroke-width="2" stroke-linecap="round" stroke-linejoin="bevel"/>
<path d="M258.203 64.8291V89.1607" stroke="white" stroke-width="2" stroke-linecap="round" stroke-linejoin="bevel"/>
<path d="M270.369 76.9949L246.038 76.9949" stroke="white" stroke-width="2" stroke-linecap="round" stroke-linejoin="bevel"/>
<path d="M266.806 85.5974L249.601 68.3924" stroke="white" stroke-width="2" stroke-linecap="round" stroke-linejoin="bevel"/>
<path d="M249.601 85.5974L266.806 68.3924" stroke="white" stroke-width="2" stroke-linecap="round" stroke-linejoin="bevel"/>
<circle cx="107.897" cy="121" r="73.5" stroke="white" stroke-width="5"/>
<path d="M204.977 100.556C205.118 101.082 205.074 101.928 204.3 103.254C203.522 104.587 202.135 106.168 200.049 107.956C195.889 111.523 189.395 115.54 180.958 119.739C164.121 128.119 140.018 136.989 112.655 144.321C85.2911 151.653 59.9831 156.023 41.2117 157.184C31.8051 157.766 24.173 157.534 18.7862 156.525C16.0864 156.019 14.0943 155.344 12.7541 154.579C11.4208 153.818 10.9597 153.106 10.8187 152.58C10.6777 152.054 10.7213 151.207 11.4953 149.881C12.2733 148.548 13.661 146.968 15.7463 145.18C19.9071 141.613 26.4003 137.595 34.8377 133.396C51.6751 125.017 75.7774 116.147 103.141 108.815C130.505 101.483 155.812 97.113 174.584 95.9514C183.991 95.3692 191.623 95.602 197.009 96.6107C199.709 97.1162 201.701 97.7913 203.042 98.5566C204.375 99.318 204.836 100.029 204.977 100.556Z" stroke="white" stroke-width="5"/>
</svg>
