<svg width="266" height="142" viewBox="0 0 266 142" fill="none" xmlns="http://www.w3.org/2000/svg">
<path d="M186.519 16V51.0374" stroke="white" stroke-width="4" stroke-linecap="round" stroke-linejoin="bevel"/>
<path d="M204.037 33.5187L169 33.5187" stroke="white" stroke-width="4" stroke-linecap="round" stroke-linejoin="bevel"/>
<path d="M198.906 45.9064L174.131 21.1312" stroke="white" stroke-width="4" stroke-linecap="round" stroke-linejoin="bevel"/>
<path d="M174.131 45.9064L198.906 21.1312" stroke="white" stroke-width="4" stroke-linecap="round" stroke-linejoin="bevel"/>
<path d="M250.754 40.8184V59.3103" stroke="white" stroke-width="2" stroke-linecap="round" stroke-linejoin="bevel"/>
<path d="M260 50.0643L241.508 50.0643" stroke="white" stroke-width="2" stroke-linecap="round" stroke-linejoin="bevel"/>
<path d="M257.292 56.6023L244.216 43.5265" stroke="white" stroke-width="2" stroke-linecap="round" stroke-linejoin="bevel"/>
<path d="M244.216 56.6023L257.292 43.5265" stroke="white" stroke-width="2" stroke-linecap="round" stroke-linejoin="bevel"/>
<path d="M216.203 76.8291V101.161" stroke="white" stroke-width="2" stroke-linecap="round" stroke-linejoin="bevel"/>
<path d="M228.369 88.9949L204.038 88.9949" stroke="white" stroke-width="2" stroke-linecap="round" stroke-linejoin="bevel"/>
<path d="M224.806 97.5974L207.601 80.3924" stroke="white" stroke-width="2" stroke-linecap="round" stroke-linejoin="bevel"/>
<path d="M207.601 97.5974L224.806 80.3924" stroke="white" stroke-width="2" stroke-linecap="round" stroke-linejoin="bevel"/>
<circle cx="74.6313" cy="77" r="46.5" stroke="white" stroke-width="5"/>
<path d="M136.364 64.0486C136.372 64.0801 136.447 64.3775 136.019 65.111C135.587 65.8513 134.773 66.7961 133.467 67.9155C130.865 70.146 126.753 72.6982 121.34 75.3921C110.552 80.7613 95.0714 86.4611 77.4685 91.1778C59.8656 95.8945 43.6092 98.6985 31.5816 99.4429C25.5469 99.8163 20.7099 99.662 17.3414 99.0313C15.6508 98.7147 14.4736 98.3034 13.7293 97.8784C12.9917 97.4572 12.9074 97.1625 12.8989 97.1309C12.8905 97.0994 12.8162 96.802 13.2443 96.0685C13.6764 95.3282 14.4902 94.3834 15.7961 93.264C18.3979 91.0335 22.5097 88.4813 27.9227 85.7874C38.711 80.4183 54.1915 74.7184 71.7944 70.0017C89.3973 65.285 105.654 62.481 117.681 61.7367C123.716 61.3632 128.553 61.5175 131.922 62.1483C133.612 62.4648 134.789 62.8761 135.534 63.3011C136.271 63.7223 136.356 64.017 136.364 64.0486Z" stroke="white" stroke-width="5"/>
</svg>
