<svg width="266" height="142" viewBox="0 0 266 142" fill="none" xmlns="http://www.w3.org/2000/svg">
<path d="M196.019 35V51.0374" stroke="#FAF3F0" stroke-width="2" stroke-linecap="round" stroke-linejoin="bevel"/>
<path d="M204.037 43.0187L188 43.0187" stroke="#FAF3F0" stroke-width="2" stroke-linecap="round" stroke-linejoin="bevel"/>
<path d="M201.689 48.6888L190.349 37.3487" stroke="#FAF3F0" stroke-width="2" stroke-linecap="round" stroke-linejoin="bevel"/>
<path d="M190.349 48.6888L201.689 37.3487" stroke="#FAF3F0" stroke-width="2" stroke-linecap="round" stroke-linejoin="bevel"/>
<path d="M228.166 59V83.3316" stroke="#FAF3F0" stroke-width="2" stroke-linecap="round" stroke-linejoin="bevel"/>
<path d="M240.332 71.1658L216 71.1658" stroke="#FAF3F0" stroke-width="2" stroke-linecap="round" stroke-linejoin="bevel"/>
<path d="M236.768 79.7683L219.563 62.5633" stroke="#FAF3F0" stroke-width="2" stroke-linecap="round" stroke-linejoin="bevel"/>
<path d="M219.563 79.7683L236.768 62.5633" stroke="#FAF3F0" stroke-width="2" stroke-linecap="round" stroke-linejoin="bevel"/>
<circle cx="74.6313" cy="77" r="48" stroke="#FAF3F0" stroke-width="2"/>
<path d="M137.813 63.6603C137.961 64.2115 137.862 64.9285 137.314 65.8672C136.765 66.8085 135.814 67.8789 134.443 69.0543C131.705 71.4018 127.467 74.0184 122.009 76.735C111.107 82.1607 95.5262 87.8922 77.8568 92.6267C60.1873 97.3612 43.8286 100.188 31.6743 100.94C25.5887 101.317 20.6104 101.169 17.0653 100.506C15.2902 100.173 13.9319 99.7215 12.9854 99.1809C12.0416 98.642 11.5977 98.0704 11.45 97.5192C11.3023 96.968 11.401 96.251 11.9488 95.3124C12.4983 94.371 13.4487 93.3006 14.8198 92.1252C17.558 89.7777 21.7958 87.1612 27.2544 84.4445C38.1564 79.0188 53.7368 73.2873 71.4062 68.5528C89.0756 63.8183 105.434 60.9917 117.589 60.2395C123.674 59.8629 128.653 60.0101 132.198 60.6739C133.973 61.0063 135.331 61.458 136.278 61.9986C137.221 62.5375 137.665 63.1091 137.813 63.6603Z" stroke="#FAF3F0" stroke-width="2"/>
</svg>
