<?xml version="1.0" encoding="utf-8"?>
<!-- Generator: Adobe Illustrator 22.1.0, SVG Export Plug-In . SVG Version: 6.00 Build 0)  -->
<svg version="1.1" id="Layer_1" xmlns="http://www.w3.org/2000/svg" xmlns:xlink="http://www.w3.org/1999/xlink" x="0px" y="0px"
	 viewBox="0 0 720 316" style="enable-background:new 0 0 720 316;" xml:space="preserve">
<style type="text/css">
	.st0{fill:url(#SVGID_1_);}
	.st1{fill:none;stroke:#FFFFFF;stroke-width:4;}
	.st2{fill:none;stroke:#FFFFFF;stroke-width:2;}
	.st3{fill:url(#SVGID_2_);}
	.st4{fill:none;stroke:#FFFFFF;stroke-width:4;stroke-linejoin:round;}
	.st5{fill:none;stroke:#FFFFFF;stroke-width:2;stroke-linejoin:round;}
</style>
<g>
	<g>
		
			<linearGradient id="SVGID_1_" gradientUnits="userSpaceOnUse" x1="-33.7421" y1="1839.6855" x2="926.9965" y2="1157.3129" gradientTransform="matrix(1 0 0 -1 0 1848.5149)">
			<stop  offset="0" style="stop-color:#2378BA"/>
			<stop  offset="0.1492" style="stop-color:#916DBF"/>
			<stop  offset="0.4862" style="stop-color:#FFFFFF"/>
		</linearGradient>
		<path class="st0" d="M1.4,10.1l-1.8,0.1v1.8V314v2h2h704.3h4.5l-3-3.3c-5.2-5.8-11.5-14.3-19.1-24.6c-1.9-2.5-3.8-5.2-5.8-8
			c-6.1-8.3-12.7-17.5-20-27.2c-19.4-25.7-43.1-54.9-71-80.3c-55.6-50.8-127.9-87-214.3-50.3c-36.2,15.4-61.4,14.8-82.8,5.8
			c-18.8-7.9-34.8-22.2-53-38.5c-2.8-2.5-5.6-5-8.5-7.5c-21.8-19.3-47.3-39.9-83.6-54.5C113.1,13.2,66.2,4.8,1.4,10.1z"/>
		<path class="st4" d="M2.6,48.9c258.1-20.9,220.2,151.3,366.6,89c170.7-72.6,293.6,128,335.7,175.4"/>
		<path class="st5" d="M18.5,127.8c196.8-60,177.3,129.3,323.7,67"/>
	</g>
	<path class="st1" d="M709.1,315.5l-3-3.3c-5.2-5.8-11.5-14.3-19.1-24.6c-1.9-2.5-3.8-5.2-5.8-8c-6.1-8.3-12.7-17.5-20-27.2
		c-19.4-25.7-43.1-54.9-71-80.3c-55.6-50.8-127.9-87-214.3-50.3c-36.2,15.4-61.4,14.8-82.8,5.8c-18.8-7.9-34.8-22.2-53-38.5
		c-2.8-2.5-5.6-5-8.5-7.5c-21.8-19.3-47.3-39.9-83.6-54.5C111.9,12.6,64.9,4.3,0.2,9.6l-1.8,0.1v1.8"/>
</g>
</svg>
