<?xml version="1.0" encoding="utf-8"?>
<!-- Generator: Adobe Illustrator 22.1.0, SVG Export Plug-In . SVG Version: 6.00 Build 0)  -->
<svg version="1.1" id="Layer_1" xmlns="http://www.w3.org/2000/svg" xmlns:xlink="http://www.w3.org/1999/xlink" x="0px" y="0px"
	 viewBox="0 0 920 348" style="enable-background:new 0 0 920 348;" xml:space="preserve">
<style type="text/css">
	.st0{fill:url(#SVGID_1_);}
	.st1{fill:none;stroke:#FFFFFF;stroke-width:4;}
	.st2{fill:none;stroke:#FFFFFF;stroke-width:2;}
	.st3{fill:url(#SVGID_2_);}
	.st4{fill:none;stroke:#FFFFFF;stroke-width:4;stroke-linejoin:round;}
	.st5{fill:none;stroke:#FFFFFF;stroke-width:2;stroke-linejoin:round;}
	.st6{fill:none;stroke:#FFFFFF;stroke-width:2;stroke-linecap:round;stroke-linejoin:bevel;}
	.st7{fill:none;stroke:#FFFFFF;stroke-width:4;stroke-linecap:round;stroke-linejoin:bevel;}
</style>
<g>
	
		<linearGradient id="SVGID_1_" gradientUnits="userSpaceOnUse" x1="839.8337" y1="1579.5824" x2="159.843" y2="799.2603" gradientTransform="matrix(1 0 0 -1 0 1492)">
		<stop  offset="0" style="stop-color:#2378BA"/>
		<stop  offset="0.1657" style="stop-color:#B5DEDA"/>
		<stop  offset="0.4391" style="stop-color:#FFFFFF"/>
		<stop  offset="0.7526" style="stop-color:#FDF7F7"/>
		<stop  offset="1" style="stop-color:#F2D2D6"/>
	</linearGradient>
	<path class="st0" d="M918.1,3.3l1.9,0.1v1.9V344v2h-2H8.9H4l3.5-3.4c6.8-6.6,14.4-15,23-24.5c25.4-28,59.1-65.2,104.3-92.9
		c60.7-37.2,142.3-57.3,253.1-16.4c46.7,17.3,82.1,11.7,114.2-5.8c27.3-14.9,52.3-38.5,79.8-64.6c5-4.8,10.1-9.6,15.4-14.5
		c33.8-31.5,72.2-64.7,123.1-88.4C771.2,11.7,834.5-2.6,918.1,3.3z"/>
	<path class="st1" d="M898,54C564.9,30.5,556.1,329.2,367.1,259.4c-181-66.9-285.9,18.9-347.8,81.2"/>
	<path class="st2" d="M857.4,125.4c-333.1-23.5-317.9,250.5-506.9,180.7"/>
	<path class="st1" d="M4,346l3.5-3.4c6.8-6.6,14.4-15,23-24.5c25.4-28,59.1-65.2,104.3-92.9c60.7-37.2,142.3-57.3,253.1-16.4
		c46.7,17.3,82.1,11.7,114.2-5.8c27.3-14.9,52.3-38.5,79.8-64.6c5-4.8,10.1-9.6,15.4-14.5c33.8-31.5,72.2-64.7,123.1-88.4
		C771.2,11.7,834.5-2.6,918.1,3.3l1.9,0.1v1.9"/>
</g>
<g>
	<g>
		
			<linearGradient id="SVGID_2_" gradientUnits="userSpaceOnUse" x1="-962.3825" y1="1661.4281" x2="-1.6439" y2="979.0554" gradientTransform="matrix(1 0 0 -1 0 1492)">
			<stop  offset="0" style="stop-color:#2378BA"/>
			<stop  offset="0.1492" style="stop-color:#916DBF"/>
			<stop  offset="0.4862" style="stop-color:#FFFFFF"/>
		</linearGradient>
		<path class="st3" d="M-927.2-168.2l-1.8,0.1v1.8v301.9v2h2h704.3h4.5l-3-3.3c-5.2-5.8-11.5-14.3-19.1-24.6c-1.9-2.5-3.8-5.2-5.8-8
			c-6.1-8.3-12.7-17.5-20-27.2c-19.4-25.7-43.1-54.9-71-80.3c-55.6-50.8-127.9-87-214.3-50.3c-36.2,15.4-61.4,14.8-82.8,5.8
			c-18.8-7.9-34.8-22.2-53-38.5c-2.8-2.5-5.6-5-8.5-7.5c-21.8-19.3-47.3-39.9-83.6-54.5C-815.5-165.1-862.5-173.4-927.2-168.2z"/>
		<path class="st4" d="M-926.1-129.4c258.1-20.9,220.2,151.3,366.6,89c170.7-72.6,293.6,128,335.7,175.4"/>
		<path class="st5" d="M-910.1-50.4c196.8-60,177.3,129.3,323.7,67"/>
	</g>
	<path class="st1" d="M-219.5,137.2l-3-3.3c-5.2-5.8-11.5-14.3-19.1-24.6c-1.9-2.5-3.8-5.2-5.8-8c-6.1-8.3-12.7-17.5-20-27.2
		c-19.4-25.7-43.1-54.9-71-80.3C-394-57-466.2-93.2-552.6-56.4c-36.2,15.4-61.4,14.8-82.8,5.8c-18.8-7.9-34.8-22.2-53-38.5
		c-2.8-2.5-5.6-5-8.5-7.5c-21.8-19.3-47.3-39.9-83.6-54.5c-36.3-14.5-83.2-22.8-148-17.6l-1.8,0.1v1.8"/>
</g>
<path class="st6" d="M-852.1,45.2v38"/>
<path class="st6" d="M-833.1,64.2h-38"/>
<path class="st6" d="M-838.6,77.6l-26.9-26.9"/>
<path class="st6" d="M-865.5,77.6l26.9-26.9"/>
<path class="st6" d="M796.1,229.2v18.3"/>
<path class="st6" d="M805.2,238.4h-18.3"/>
<path class="st6" d="M802.5,244.8l-12.9-12.9"/>
<path class="st6" d="M789.6,244.8l12.9-12.9"/>
<path class="st7" d="M838.9,258.6v24.1"/>
<path class="st7" d="M850.9,270.6h-24.1"/>
<path class="st7" d="M847.4,279.1l-17-17"/>
<path class="st7" d="M830.4,279.1l17-17"/>
</svg>
