<?xml version="1.0" encoding="utf-8"?>
<!-- Generator: Adobe Illustrator 22.1.0, SVG Export Plug-In . SVG Version: 6.00 Build 0)  -->
<svg version="1.1" id="Layer_1" xmlns="http://www.w3.org/2000/svg" xmlns:xlink="http://www.w3.org/1999/xlink" x="0px" y="0px"
	 viewBox="0 0 920 348" style="enable-background:new 0 0 920 348;" xml:space="preserve">
<style type="text/css">
	.st0{fill:url(#SVGID_1_);}
	.st1{fill:none;stroke:#FFFFFF;stroke-width:4;}
	.st2{fill:none;stroke:#FFFFFF;stroke-width:2;}
	.st3{fill:url(#SVGID_2_);}
	.st4{fill:none;stroke:#FFFFFF;stroke-width:4;stroke-linejoin:round;}
	.st5{fill:none;stroke:#FFFFFF;stroke-width:2;stroke-linejoin:round;}
</style>
<g>
	
		<linearGradient id="SVGID_1_" gradientUnits="userSpaceOnUse" x1="839.8337" y1="1579.5824" x2="159.843" y2="799.2603" gradientTransform="matrix(1 0 0 -1 0 1492)">
		<stop  offset="0" style="stop-color:#2378BA"/>
		<stop  offset="0.1657" style="stop-color:#B5DEDA"/>
		<stop  offset="0.4391" style="stop-color:#FFFFFF"/>
		<stop  offset="0.7526" style="stop-color:#FDF7F7"/>
		<stop  offset="1" style="stop-color:#F2D2D6"/>
	</linearGradient>
	<path class="st0" d="M918.1,3.3l1.9,0.1v1.9V344v2h-2H8.9H4l3.5-3.4c6.8-6.6,14.4-15,23-24.5c25.4-28,59.1-65.2,104.3-92.9
		c60.7-37.2,142.3-57.3,253.1-16.4c46.7,17.3,82.1,11.7,114.2-5.8c27.3-14.9,52.3-38.5,79.8-64.6c5-4.8,10.1-9.6,15.4-14.5
		c33.8-31.5,72.2-64.7,123.1-88.4C771.2,11.7,834.5-2.6,918.1,3.3z"/>
	<path class="st1" d="M898,54C564.9,30.5,556.1,329.2,367.1,259.4c-181-66.9-285.9,18.9-347.8,81.2"/>
	<path class="st2" d="M857.4,125.4c-333.1-23.5-317.9,250.5-506.9,180.7"/>
	<path class="st1" d="M4,346l3.5-3.4c6.8-6.6,14.4-15,23-24.5c25.4-28,59.1-65.2,104.3-92.9c60.7-37.2,142.3-57.3,253.1-16.4
		c46.7,17.3,82.1,11.7,114.2-5.8c27.3-14.9,52.3-38.5,79.8-64.6c5-4.8,10.1-9.6,15.4-14.5c33.8-31.5,72.2-64.7,123.1-88.4
		C771.2,11.7,834.5-2.6,918.1,3.3l1.9,0.1v1.9"/>
</g>
</svg>
